<?xml version="1.0" standalone="no"?>
<!DOCTYPE svg PUBLIC "-//W3C//DTD SVG 20010904//EN"
 "http://www.w3.org/TR/2001/REC-SVG-20010904/DTD/svg10.dtd">
<svg version="1.0" xmlns="http://www.w3.org/2000/svg"
 width="1024.000000pt" height="1024.000000pt" viewBox="0 0 1024.000000 1024.000000"
 preserveAspectRatio="xMidYMid meet">

<g transform="translate(0.000000,1024.000000) scale(0.100000,-0.100000)"
fill="#000000" stroke="none">
<path d="M4244 10221 c-29 -10 -75 -34 -103 -54 -28 -20 -55 -37 -59 -37 -13
0 -216 -135 -231 -154 -8 -10 -33 -27 -55 -38 -23 -11 -64 -42 -92 -69 -29
-26 -71 -61 -95 -76 -24 -15 -71 -55 -104 -88 -33 -33 -76 -74 -95 -91 -54
-47 -189 -197 -212 -235 -11 -19 -40 -57 -63 -84 -24 -28 -54 -74 -68 -102
-13 -28 -38 -72 -56 -97 -17 -26 -31 -50 -31 -55 0 -4 -13 -25 -30 -47 -16
-21 -35 -57 -41 -79 -6 -22 -28 -76 -49 -120 -61 -129 -84 -190 -94 -250 -1
-5 -4 -15 -8 -20 -8 -13 -54 -205 -64 -265 -13 -85 -15 -95 -23 -185 -12 -121
-13 -555 -2 -735 6 -95 6 -161 -1 -190 -5 -25 -16 -72 -24 -105 -15 -67 -44
-234 -59 -340 -2 -16 -11 -142 -20 -280 -8 -137 -16 -257 -17 -265 -4 -31 14
-92 41 -143 15 -29 34 -73 41 -100 7 -26 17 -50 21 -53 5 -3 9 -35 9 -72 0
-37 5 -106 11 -152 6 -47 12 -92 13 -100 4 -25 27 -124 34 -140 8 -21 11 -46
13 -114 1 -56 -1 -61 -32 -87 -19 -16 -50 -36 -69 -46 -19 -10 -56 -35 -81
-55 -25 -21 -49 -38 -53 -38 -4 0 -21 -10 -38 -21 -16 -12 -75 -45 -131 -75
-56 -30 -138 -73 -182 -96 -44 -23 -109 -55 -145 -71 -36 -15 -72 -32 -80 -37
-39 -25 -130 -69 -177 -85 -29 -11 -53 -24 -53 -31 0 -6 -8 -11 -17 -10 -13 1
-17 -5 -15 -19 4 -23 30 -55 45 -55 6 0 3 8 -6 18 -21 23 -21 32 -3 32 17 0
29 -31 21 -52 -4 -10 10 -32 37 -59 49 -49 96 -116 127 -181 23 -47 79 -126
123 -173 16 -16 40 -53 53 -82 14 -28 30 -55 35 -58 17 -10 130 -163 130 -176
0 -6 19 -31 43 -55 102 -105 117 -121 117 -128 0 -11 84 -118 115 -146 15 -14
47 -54 70 -90 23 -36 55 -76 70 -90 36 -33 66 -97 65 -140 0 -19 3 -52 6 -72
4 -24 2 -38 -4 -38 -14 0 -62 40 -151 125 -40 38 -79 75 -85 80 -7 6 -27 24
-45 40 -24 21 -31 24 -23 10 14 -26 260 -275 293 -297 20 -13 29 -29 34 -65 5
-26 9 -53 11 -60 4 -20 55 -144 89 -218 18 -38 36 -81 40 -95 4 -14 20 -43 35
-65 14 -22 44 -66 66 -99 105 -156 183 -251 315 -386 52 -53 94 -101 95 -108
3 -37 5 -39 29 -34 17 3 39 -6 75 -32 27 -20 54 -36 58 -36 4 0 28 -18 52 -40
24 -22 50 -40 58 -40 7 0 20 -6 28 -14 15 -16 18 -27 7 -25 -20 3 -21 -4 -3
-43 12 -26 16 -53 13 -75 -6 -37 15 -48 24 -12 5 18 10 14 33 -26 39 -67 98
-135 113 -129 13 5 72 -79 82 -118 3 -13 19 -39 34 -57 29 -34 35 -34 101 4
37 22 78 18 103 -8 22 -23 185 -107 207 -107 10 0 103 -37 175 -70 89 -41 290
-83 445 -94 159 -11 213 -16 252 -22 20 -3 63 0 95 7 32 7 62 12 66 11 4 -1
15 5 24 14 12 11 18 12 23 3 4 -6 13 -8 19 -5 6 4 20 1 31 -7 18 -12 18 -15 5
-20 -25 -10 -17 -24 13 -20 26 4 26 4 8 -11 -23 -19 -57 -21 -73 -5 -16 16
-33 2 -33 -25 0 -12 -7 -31 -15 -42 -8 -10 -15 -27 -15 -36 0 -10 -5 -18 -12
-18 -6 0 -9 -2 -7 -5 11 -10 48 8 52 27 5 16 11 19 31 14 14 -3 28 -2 31 4 3
5 -1 10 -9 10 -19 0 -20 5 -5 31 11 22 31 17 22 -6 -8 -23 6 -18 38 15 17 16
28 34 25 39 -7 11 53 71 71 71 7 0 17 9 23 19 9 18 53 35 90 36 8 0 17 11 20
24 3 13 20 32 39 42 19 10 39 23 45 29 18 19 -41 -7 -77 -33 -18 -13 -54 -29
-82 -36 -27 -7 -57 -19 -66 -27 -8 -8 -26 -15 -40 -15 -17 -1 -19 -3 -6 -6 33
-9 17 -21 -28 -21 -32 0 -45 4 -45 14 0 15 1 15 40 19 13 1 31 12 38 24 8 11
21 21 28 21 8 0 14 6 14 13 0 13 76 64 90 60 5 -2 11 5 15 15 7 21 82 75 94
68 5 -3 14 1 21 9 7 8 21 15 31 15 11 0 19 5 19 10 0 6 7 10 16 10 9 0 41 25
70 56 45 48 56 55 69 44 13 -11 15 -9 15 14 0 14 5 26 10 26 6 0 10 16 10 35
0 22 5 35 13 35 7 0 31 13 53 30 48 36 50 36 58 5 6 -25 -24 -89 -32 -67 -2 7
-14 6 -37 -5 -36 -17 -52 -57 -32 -83 10 -13 10 -13 -5 -2 -15 12 -20 8 -44
-27 -15 -23 -35 -41 -45 -41 -10 0 -29 -14 -41 -31 -19 -25 -28 -29 -53 -25
-37 7 -47 0 -69 -42 -16 -30 -16 -32 2 -32 10 0 23 5 29 11 12 12 37 3 28 -11
-10 -16 30 -17 49 -1 17 15 18 15 12 -6 -6 -17 -3 -23 8 -23 10 0 16 9 16 25
0 14 -4 25 -10 25 -5 0 -10 5 -10 11 0 6 6 9 14 6 9 -4 16 4 21 21 8 33 53 82
70 76 6 -3 17 2 24 10 7 8 19 12 27 9 8 -3 14 0 14 6 0 6 -4 11 -10 11 -19 0
-9 25 25 63 20 20 42 37 51 37 11 0 14 5 10 16 -9 22 11 44 40 44 16 0 22 4
18 14 -3 8 9 30 27 50 17 20 29 39 27 42 -3 2 -19 -11 -36 -30 -32 -37 -70
-61 -80 -52 -3 4 6 19 20 34 14 15 32 37 40 49 18 28 105 123 112 123 3 0 5
-23 5 -50 -1 -28 -5 -50 -9 -50 -5 0 -12 -12 -18 -28 -5 -15 -11 -31 -13 -36
-2 -5 7 -13 19 -17 20 -8 30 -3 59 26 20 20 33 39 29 42 -4 4 -21 -7 -38 -25
-44 -48 -46 -31 -3 27 20 28 34 55 30 61 -3 5 0 10 8 10 8 0 22 9 32 20 10 11
13 20 7 20 -7 0 -12 -5 -12 -12 0 -6 -3 -8 -6 -5 -10 10 16 36 30 31 7 -3 27
12 44 33 37 44 178 198 239 260 49 48 52 57 21 47 -19 -6 -21 -4 -12 7 24 31
149 184 154 189 15 14 110 139 110 144 0 4 26 39 58 77 31 39 68 90 82 114 31
54 80 127 94 140 13 13 33 46 87 150 23 44 45 82 50 83 5 2 9 8 9 14 0 5 8 22
18 36 11 15 36 70 56 122 21 52 42 103 47 113 6 11 5 17 -2 17 -6 0 -9 7 -5
15 3 8 1 15 -5 15 -11 0 -2 42 17 79 28 53 10 103 -23 70 -19 -19 11 71 45
135 17 31 45 74 61 95 l31 39 -23 7 c-12 4 -30 6 -40 5 -15 -1 -17 3 -12 19 5
16 3 20 -9 15 -29 -11 -16 12 37 67 28 30 59 63 68 74 8 11 43 46 77 77 34 31
62 60 62 63 0 12 82 116 95 121 7 3 31 31 54 63 58 83 65 87 109 71 20 -7 59
-36 87 -64 28 -28 73 -71 100 -96 28 -25 74 -71 103 -103 28 -31 56 -57 62
-57 5 0 16 -15 23 -33 8 -17 43 -64 78 -104 35 -39 75 -86 89 -104 14 -18 49
-59 78 -92 28 -33 52 -63 52 -68 0 -16 35 -8 70 17 19 13 51 35 72 49 20 13
43 34 51 46 9 12 27 29 40 38 58 38 223 168 261 207 23 23 57 49 76 59 19 10
73 48 120 84 104 82 114 86 148 63 15 -10 54 -28 87 -41 33 -12 80 -31 105
-41 25 -10 64 -21 88 -25 70 -11 51 16 -39 55 -44 19 -85 41 -91 48 -6 7 -27
20 -47 28 -20 8 -45 23 -56 33 -11 10 -30 22 -43 26 -15 4 -21 12 -18 21 3 8
-1 15 -12 16 -9 0 -22 2 -27 2 -10 1 -54 30 -170 111 -105 74 -243 182 -277
217 -20 21 -42 38 -48 38 -14 0 -63 37 -118 89 -23 22 -63 54 -89 72 -26 17
-52 37 -58 44 -14 17 -147 105 -158 105 -6 0 -25 11 -43 25 -18 14 -36 25 -39
25 -4 0 -26 14 -51 31 -24 16 -68 37 -97 45 -28 8 -65 21 -82 29 -47 21 -119
50 -125 50 -3 0 -9 3 -15 6 -20 13 -141 38 -195 41 -49 3 -55 1 -58 -17 -3
-21 -58 -59 -66 -46 -8 12 21 88 49 129 58 87 93 133 121 159 94 88 292 230
353 253 35 14 46 23 46 40 1 63 367 113 585 80 97 -15 278 -69 340 -102 35
-18 67 -25 40 -8 -8 5 -12 12 -8 15 6 6 39 -9 68 -32 16 -12 70 -35 70 -29 0
7 -225 152 -265 171 -99 48 -354 80 -565 72 -116 -5 -150 -10 -235 -37 -57
-19 -135 -53 -181 -81 -45 -27 -86 -49 -90 -49 -5 0 -23 -13 -41 -28 -17 -15
-42 -36 -55 -46 -12 -11 -50 -43 -84 -73 -34 -29 -66 -53 -73 -53 -14 0 -15
32 -1 46 6 6 13 35 17 65 3 30 14 66 24 81 11 14 19 29 19 34 0 17 55 77 106
115 30 22 58 48 61 57 16 41 156 139 212 147 20 4 59 17 86 30 57 27 243 57
363 58 71 1 83 -2 152 -37 109 -56 205 -113 220 -130 7 -9 18 -16 24 -16 6 0
35 -16 64 -36 29 -19 72 -42 95 -50 22 -8 48 -20 57 -28 8 -7 33 -22 55 -33
241 -122 336 -181 464 -291 81 -70 59 -35 -42 64 -63 62 -114 103 -162 128
-38 21 -81 48 -95 61 -14 13 -67 42 -118 65 -93 42 -109 50 -227 127 -35 23
-84 52 -107 64 -41 21 -107 66 -118 81 -3 4 -28 17 -55 29 -28 12 -52 25 -55
29 -3 4 -26 17 -52 28 -28 12 -48 27 -48 36 0 9 5 16 11 16 7 0 30 19 53 43
22 24 70 58 106 75 36 18 76 39 90 47 97 55 136 61 550 90 118 8 231 19 250
25 19 5 52 10 72 10 20 0 39 4 43 9 3 6 18 6 38 -1 55 -17 74 -19 46 -6 -14 7
-32 18 -40 24 -8 6 -36 17 -64 23 -28 7 -68 27 -92 47 -23 19 -68 48 -100 65
-32 17 -69 41 -83 53 -33 31 -126 78 -230 117 -47 18 -89 36 -95 39 -26 18
-220 71 -308 84 -60 9 -110 22 -130 35 -30 19 -49 28 -163 82 -100 47 -266 64
-369 39 -60 -15 -136 -52 -155 -75 -8 -10 -41 -35 -73 -57 -35 -24 -64 -52
-70 -69 -13 -32 -54 -56 -71 -39 -7 7 -6 10 5 10 12 0 12 2 -1 10 -17 11 -51
3 -62 -14 -13 -20 -8 -36 11 -36 29 0 42 -22 25 -44 -18 -26 -18 -36 2 -36 9
0 50 36 93 81 141 149 287 223 441 222 132 -1 281 -43 240 -68 -6 -4 -41 -8
-78 -11 -135 -8 -198 -15 -266 -31 -39 -9 -65 -18 -58 -21 7 -2 42 4 79 13
111 28 369 2 465 -46 9 -4 38 -11 65 -14 26 -4 57 -13 69 -20 12 -8 39 -16 60
-20 154 -25 254 -60 459 -160 116 -57 218 -106 228 -109 31 -10 18 -23 -25
-25 -24 -1 -77 -5 -118 -10 -41 -6 -232 -7 -425 -5 -453 6 -457 6 -543 -17
-71 -19 -204 -80 -270 -125 -18 -12 -47 -26 -65 -30 -18 -3 -55 -17 -84 -30
-28 -13 -56 -24 -62 -24 -11 0 -83 -40 -91 -51 -3 -3 -13 -4 -22 0 -15 5 -15
8 3 30 10 13 19 19 19 15 0 -5 5 -1 11 9 5 9 18 17 27 17 14 0 15 2 2 10 -12
7 -11 10 5 16 82 29 160 79 149 95 -3 5 1 9 9 9 8 0 21 8 28 17 8 9 10 15 4
12 -56 -28 -64 -33 -54 -39 7 -5 5 -9 -5 -13 -9 -4 -16 -2 -16 3 0 17 -17 11
-48 -15 -16 -13 -32 -22 -35 -19 -6 6 -60 -21 -89 -45 -11 -8 -18 -10 -18 -3
0 15 70 71 97 78 12 3 25 15 28 26 4 10 12 17 18 15 7 -2 29 10 49 28 21 17
56 38 78 45 22 7 47 21 56 31 9 10 32 23 51 30 23 7 33 16 29 25 -7 17 10 19
17 2 4 -9 8 -10 14 -2 13 18 65 42 108 49 22 4 47 11 55 15 8 4 38 1 65 -6 28
-8 66 -16 85 -19 19 -3 39 -10 44 -15 6 -6 18 -10 28 -10 10 0 18 -4 18 -10 0
-6 -58 -10 -154 -10 -168 0 -196 -6 -240 -51 -17 -17 -42 -37 -58 -45 -15 -8
-28 -19 -28 -24 0 -6 -9 -10 -20 -10 -11 0 -20 -4 -20 -10 0 -11 11 -13 34 -4
9 3 16 12 16 18 0 7 13 13 31 13 17 0 34 4 37 10 4 6 26 20 50 32 73 37 176
48 412 45 160 -2 202 0 165 7 -27 5 -57 12 -65 16 -8 3 -28 7 -44 9 -16 2 -34
8 -40 13 -6 5 -31 12 -56 16 -25 4 -54 13 -65 19 -37 24 -127 48 -175 48 -62
0 -104 -13 -285 -92 -22 -10 -51 -21 -64 -25 -34 -10 -91 -45 -91 -56 0 -5 -6
-9 -14 -9 -7 0 -26 -10 -40 -21 -22 -17 -25 -24 -14 -31 10 -7 9 -8 -5 -4 -22
7 -67 -13 -67 -30 0 -6 -7 -14 -15 -18 -8 -3 -15 -13 -15 -23 0 -10 -5 -25
-10 -33 -7 -10 -9 16 -9 83 2 87 -3 119 -15 106 -2 -2 -7 -29 -10 -59 -6 -53
-15 -90 -39 -175 -11 -37 -21 -58 -72 -142 -20 -32 -52 -53 -90 -59 -11 -2
-36 -6 -55 -9 -19 -4 -47 -2 -61 3 -25 10 -26 11 -17 74 4 34 11 70 14 78 8
22 34 239 34 286 0 47 15 63 75 83 21 8 45 20 52 27 7 7 18 14 25 17 9 3 7 10
-7 27 -18 19 -27 22 -74 17 -59 -6 -113 -42 -89 -60 9 -6 7 -7 -5 -3 -12 4
-25 -2 -37 -16 -10 -13 -20 -21 -23 -18 -2 3 -14 43 -26 90 -31 119 -36 252
-17 470 35 388 39 497 27 665 -7 88 -17 189 -23 225 -6 36 -12 76 -14 90 -8
62 -69 305 -82 325 -4 6 -18 44 -33 86 -33 93 -116 285 -140 319 -9 14 -30 53
-48 87 -17 34 -35 64 -41 68 -6 4 -24 34 -41 67 -16 33 -47 78 -68 101 -21 23
-53 64 -71 91 -18 27 -58 75 -87 105 -30 31 -61 67 -70 81 -9 14 -83 88 -165
165 -181 170 -174 164 -223 200 -22 16 -63 50 -91 75 -27 25 -72 57 -100 72
-27 15 -89 52 -138 83 l-89 55 -971 -1 c-897 0 -975 -2 -1022 -18z m1266 -180
c25 -5 80 -16 122 -24 43 -9 94 -21 115 -28 21 -7 48 -12 61 -10 13 1 28 -2
35 -7 7 -6 66 -28 132 -50 126 -43 182 -65 279 -113 33 -16 66 -29 75 -29 9
-1 34 -12 56 -25 22 -14 65 -38 96 -54 31 -17 63 -37 71 -44 8 -8 38 -27 67
-42 30 -14 72 -45 95 -66 22 -22 62 -54 89 -71 26 -17 47 -34 47 -38 0 -11
121 -140 131 -140 13 0 -48 118 -77 150 -12 14 -35 48 -51 77 -36 67 -145 205
-203 257 -24 23 -63 59 -86 82 -23 22 -68 53 -100 69 -55 26 -115 65 -101 65
4 0 40 -16 81 -35 41 -19 78 -35 81 -35 4 0 28 -17 53 -37 130 -104 223 -203
317 -338 28 -39 65 -89 82 -110 18 -22 40 -60 48 -86 9 -26 25 -55 35 -64 11
-10 20 -21 20 -25 0 -8 61 -112 78 -133 5 -7 17 -39 27 -72 9 -33 21 -65 26
-72 15 -17 85 -221 98 -283 27 -132 41 -280 39 -435 -1 -117 -1 -123 -8 -60
-4 39 -15 95 -24 125 -9 30 -19 71 -22 90 -2 19 -19 80 -38 135 -18 55 -43
132 -56 170 -22 68 -63 156 -151 322 -42 78 -130 198 -202 273 -54 57 -185
173 -230 203 -23 16 -53 39 -67 52 -14 13 -44 31 -66 39 -23 8 -63 29 -90 48
-90 61 -141 87 -219 113 -22 7 -78 28 -125 45 -204 77 -284 100 -430 124 -14
3 -26 5 -27 7 -7 4 -85 18 -138 24 -22 2 -76 9 -120 15 -110 14 -439 11 -571
-6 -167 -21 -440 -82 -469 -104 -5 -4 -28 -13 -50 -20 -22 -7 -47 -18 -55 -25
-19 -16 -120 -65 -134 -65 -39 0 -356 -255 -356 -286 0 -7 -16 -26 -35 -41
-31 -25 -155 -182 -155 -197 0 -3 -19 -36 -42 -73 -22 -38 -59 -104 -81 -148
-22 -44 -64 -117 -93 -161 -30 -45 -54 -85 -54 -89 0 -7 -56 -123 -79 -165
-24 -43 -87 -213 -96 -260 -11 -55 -24 -71 -25 -29 0 20 3 39 8 43 4 4 7 17 8
29 3 73 42 266 62 304 5 10 12 34 16 53 5 31 32 108 57 165 4 11 24 60 44 109
19 49 43 99 53 110 10 12 38 53 62 91 50 81 143 200 166 213 8 5 23 20 32 33
9 14 49 53 87 88 39 34 81 72 95 85 14 12 39 31 55 41 17 10 44 31 60 46 17
14 57 36 89 48 33 12 72 33 88 46 16 14 34 25 39 25 4 0 40 15 79 34 38 19 85
38 103 41 37 8 172 51 202 64 21 9 249 48 320 55 79 8 701 -3 745 -13z m-1190
-566 c0 -2 -14 -12 -31 -21 -44 -22 -99 -74 -112 -106 -7 -15 -27 -37 -46 -50
-19 -13 -54 -48 -78 -78 -23 -30 -57 -73 -75 -95 l-33 -40 30 19 c17 10 72 51
124 90 51 39 103 77 115 85 32 21 -245 -243 -384 -366 -47 -41 -104 -93 -127
-115 -24 -23 -43 -39 -43 -36 0 18 95 189 116 209 14 13 44 51 66 84 23 33 71
90 107 127 36 36 77 78 91 92 68 70 171 158 211 180 42 23 69 32 69 21z m1740
-1831 c206 -9 383 -19 394 -23 11 -5 -192 -11 -450 -15 -1116 -17 -1514 -26
-1589 -35 -44 -5 -118 -12 -165 -16 -46 -4 -87 -8 -90 -10 -3 -1 -52 -6 -110
-9 -58 -4 -113 -10 -124 -13 -24 -7 -51 -9 -231 -17 -143 -6 -147 -5 -90 8 33
8 116 32 185 55 69 23 143 44 165 47 171 22 370 41 515 47 188 8 1262 -4 1590
-19z m-170 -139 c126 -7 310 -30 400 -50 130 -28 235 -54 255 -63 38 -17 90
-34 150 -48 33 -8 78 -23 100 -33 22 -10 76 -29 120 -42 44 -12 81 -26 83 -30
2 -4 26 -15 53 -24 80 -27 52 -26 -51 1 -118 31 -113 30 -185 48 -33 9 -80 21
-105 27 -25 6 -52 12 -60 13 -8 1 -26 8 -40 16 -21 11 -142 41 -225 56 -16 2
-43 9 -60 14 -45 14 -212 48 -275 55 -30 4 -62 8 -70 10 -8 2 -42 8 -75 14
-33 5 -71 13 -85 16 -14 3 -42 9 -63 12 -21 3 -40 10 -44 15 -3 6 9 8 33 5 22
-4 86 -9 144 -12z m-650 -444 c58 -6 141 -12 185 -15 44 -2 123 -9 175 -15 52
-6 115 -13 140 -15 25 -3 108 -10 185 -16 77 -5 160 -12 185 -14 25 -3 79 -8
120 -11 41 -4 96 -13 121 -20 26 -7 73 -17 105 -20 33 -4 73 -14 89 -23 17 -8
39 -16 50 -18 39 -5 150 -35 205 -56 53 -19 224 -102 245 -117 6 -4 44 -20 85
-35 41 -15 92 -38 112 -52 21 -13 41 -24 44 -24 4 0 15 -6 23 -14 9 -7 41 -27
72 -43 72 -38 138 -84 169 -118 14 -15 40 -33 59 -41 18 -8 64 -46 100 -84 58
-60 71 -81 95 -152 16 -46 32 -87 36 -93 4 -5 15 -53 24 -105 9 -52 19 -108
23 -124 l5 -30 19 39 c11 21 18 43 17 49 -3 20 15 51 61 106 53 64 62 71 78
65 7 -2 15 0 18 5 3 5 21 17 40 26 19 9 35 22 35 29 0 17 42 27 52 12 6 -9 8
-9 8 0 0 6 10 15 21 18 16 5 18 9 9 15 -9 6 -6 10 11 15 13 5 28 14 34 21 9
10 119 31 205 38 14 1 30 5 35 8 27 15 72 18 126 7 32 -6 57 -15 54 -19 -2 -4
-42 -10 -87 -13 -120 -10 -289 -75 -417 -162 -24 -17 -54 -37 -67 -45 -43 -30
-211 -190 -235 -225 -34 -49 -49 -45 -49 13 0 66 -24 147 -53 181 -13 16 -27
48 -31 71 -17 109 -90 222 -191 299 -53 40 -272 166 -309 177 -11 3 -84 34
-161 69 -77 34 -153 68 -170 75 -16 8 -88 26 -160 42 -71 15 -139 30 -150 32
-118 26 -188 31 -581 42 -159 5 -247 4 -259 -3 -18 -10 -18 -11 1 -20 10 -6
143 -13 294 -17 276 -6 393 -18 547 -54 93 -22 221 -82 273 -127 19 -17 54
-44 76 -61 23 -16 59 -52 79 -79 21 -28 41 -52 45 -55 3 -3 37 -51 75 -108 49
-73 69 -112 69 -135 0 -18 -16 -88 -36 -157 -20 -69 -43 -154 -52 -190 -9 -36
-23 -87 -30 -115 -8 -27 -23 -84 -35 -125 -53 -198 -74 -242 -126 -265 -99
-44 -388 -115 -467 -115 -16 0 -28 -4 -28 -10 0 -5 -8 -10 -17 -10 -14 1 -11
6 12 25 17 14 39 28 50 31 11 4 29 14 40 24 11 10 46 32 79 50 75 40 88 54 83
87 l-3 28 -14 -34 c-10 -25 -25 -39 -64 -57 -28 -13 -57 -24 -63 -24 -7 0 -34
-13 -60 -29 -27 -16 -75 -37 -108 -46 -33 -10 -65 -21 -70 -25 -10 -8 -50 -7
-230 5 -89 5 -338 31 -400 40 -22 4 -49 8 -60 10 -100 15 -241 35 -290 39
-118 12 -431 7 -570 -9 -77 -9 -162 -18 -190 -21 -27 -2 -84 -9 -125 -14 -41
-4 -230 -6 -419 -4 -379 6 -383 6 -461 32 -19 6 -48 13 -65 16 -81 13 -153 29
-180 41 -16 8 -42 16 -56 20 -21 5 -33 22 -61 88 -20 45 -52 134 -73 197 -20
63 -43 128 -51 143 -8 16 -14 48 -14 71 0 24 -6 64 -14 90 -8 25 -14 49 -14
51 0 7 -13 84 -18 110 -17 81 -28 185 -28 266 l-1 96 37 46 c26 31 53 51 85
63 27 10 66 30 87 46 22 15 45 28 52 28 7 0 19 6 26 13 31 31 81 59 126 72 27
8 57 25 68 37 15 17 15 20 2 9 -10 -7 -22 -11 -29 -9 -6 2 2 10 18 18 15 8 35
20 43 26 24 20 187 37 300 31 l104 -5 -37 22 c-20 13 -40 26 -44 30 -7 7 205
0 284 -10 34 -4 52 -16 103 -65 34 -33 65 -58 67 -55 3 3 -13 27 -36 54 -22
28 -41 54 -41 60 0 13 108 20 358 22 l212 1 7 -32 c7 -36 102 -139 128 -139
12 0 9 8 -13 30 -17 17 -35 30 -41 30 -6 0 -11 6 -11 14 0 8 -10 31 -21 51
l-21 36 163 -2 c241 -2 233 0 269 -68 37 -69 115 -160 104 -121 -3 14 -9 45
-11 70 -3 25 -9 49 -14 54 -5 6 -9 20 -9 33 0 23 0 23 146 23 141 0 145 -1
139 -20 -8 -24 15 -50 44 -50 12 0 21 6 21 14 0 8 3 23 7 33 5 15 1 13 -20 -6
-24 -22 -27 -22 -33 -7 -4 10 -2 22 3 27 16 16 373 12 391 -4 9 -7 80 -17 166
-24 251 -20 497 -53 571 -77 22 -7 60 -16 85 -19 l45 -6 -35 16 c-19 9 -37 17
-40 18 -3 1 -30 9 -60 18 -108 32 -196 56 -229 62 -19 3 -41 9 -50 14 -9 4
-52 14 -96 21 -44 7 -89 14 -100 16 -11 2 -60 9 -110 15 -49 5 -103 14 -120
19 -16 4 -84 13 -150 19 -66 6 -166 16 -223 22 -103 11 -148 14 -337 24 -55 3
-134 8 -175 10 -41 3 -255 8 -475 11 -366 6 -487 2 -750 -21 -67 -6 -301 -45
-360 -60 -11 -3 -58 -14 -105 -25 -123 -30 -175 -48 -267 -91 -45 -22 -84 -39
-87 -39 -7 0 -130 -73 -136 -81 -7 -9 -47 -29 -57 -29 -4 0 16 16 46 35 30 19
66 46 80 59 24 22 81 60 156 102 30 18 89 40 245 95 140 49 313 75 680 105 41
3 116 10 165 14 117 11 789 4 925 -9z m3730 -12 c9 -5 1 -6 -20 -3 -19 4 -39
11 -45 16 -12 11 41 0 65 -13z m-3667 -197 c3 7 6 9 6 3 0 -5 -4 -17 -9 -25
-9 -13 -12 -12 -25 4 -8 10 -12 23 -8 29 4 6 11 3 19 -7 9 -13 13 -14 17 -4z
m2691 -63 c-8 -14 -41 -11 -41 4 0 9 9 12 24 9 12 -2 20 -8 17 -13z m-54 -9
c0 -5 -8 -10 -17 -10 -10 0 -29 -3 -43 -6 l-25 -6 25 15 c29 18 60 21 60 7z
m-2600 -15 c7 -9 8 -15 2 -15 -5 0 -12 7 -16 15 -3 8 -4 15 -2 15 2 0 9 -7 16
-15z m3360 -355 c10 -7 -6 -9 -55 -9 -50 1 -63 3 -45 9 35 11 82 11 100 0z
m80 -41 c0 -5 9 -9 19 -9 11 0 31 -15 45 -32 24 -30 24 -33 7 -36 -10 -2 -39
11 -64 27 -25 17 -47 31 -50 31 -3 0 -18 5 -34 11 -24 10 -26 12 -10 18 24 9
87 1 87 -10z m-252 -36 c-10 -2 -15 -10 -11 -19 3 -8 -3 -16 -13 -20 -11 -3
-32 -12 -49 -19 -16 -8 -54 -17 -82 -21 -29 -4 -53 -10 -53 -15 0 -11 -57 -12
-64 -1 -5 8 88 54 169 86 22 8 58 15 80 14 22 0 32 -2 23 -5z m137 -23 c4 -6
-7 -10 -25 -10 -18 0 -29 4 -25 10 3 6 15 10 25 10 10 0 22 -4 25 -10z m-499
-25 c-11 -8 -25 -15 -30 -15 -6 0 -2 7 8 15 11 8 25 15 30 15 6 0 2 -7 -8 -15z
m70 -72 c-10 -10 -19 5 -10 18 6 11 8 11 12 0 2 -7 1 -15 -2 -18z m-450 -499
c8 -30 -44 -136 -68 -140 -12 -1 -10 11 13 65 16 36 29 74 29 84 0 26 19 20
26 -9z m478 -38 c-21 -15 -30 -14 -19 3 3 6 14 11 23 11 13 0 13 -2 -4 -14z
m-545 -226 c-2 -24 -27 62 -27 90 0 15 5 5 14 -25 7 -27 13 -57 13 -65z m142
-18 c-5 -26 -13 -82 -17 -126 -5 -59 -9 -74 -17 -61 -9 16 0 96 20 185 8 32 9
40 13 65 2 18 3 18 7 2 2 -9 0 -39 -6 -65z m-44 -54 c-6 -32 -14 -58 -19 -58
-11 0 -10 47 1 54 4 3 11 20 15 37 3 18 8 30 10 28 2 -2 -1 -30 -7 -61z m-31
-169 c3 -29 9 -56 15 -60 11 -6 9 -65 -9 -314 -4 -55 -3 -114 2 -132 12 -43
-1 -54 -26 -23 -18 23 -20 34 -14 150 3 69 8 196 12 283 6 160 13 191 20 96z
m440 -124 c131 -32 382 -157 459 -228 17 -15 54 -48 83 -74 28 -25 52 -50 52
-55 0 -6 13 -27 28 -47 34 -43 87 -153 98 -201 19 -88 29 -227 19 -276 l-7
-39 -17 60 c-21 75 -34 98 -67 124 -29 23 -44 20 -44 -9 0 -10 -4 -21 -9 -24
-5 -3 -8 11 -7 32 4 62 -14 153 -33 159 -9 3 -27 15 -40 27 -13 12 -21 15 -16
7 30 -51 67 -430 48 -481 -11 -26 -14 -4 -28 165 -10 116 -115 425 -145 425
-5 0 -30 26 -55 58 -68 85 -85 101 -124 123 -20 11 -58 38 -86 59 -27 22 -68
45 -90 50 -22 6 -48 15 -57 20 -28 15 -180 30 -218 21 -27 -7 -30 -9 -11 -10
39 -2 16 -13 -26 -13 -21 0 -46 -7 -55 -15 -16 -14 -18 -14 -24 0 -7 18 1 112
11 139 8 20 29 23 165 24 77 1 129 -5 196 -21z m-861 -140 c-21 -31 -62 -79
-92 -108 -30 -28 -57 -59 -61 -68 -4 -9 -42 -46 -84 -84 -43 -37 -78 -70 -78
-74 0 -3 -62 -54 -137 -111 -75 -58 -148 -116 -162 -130 -14 -14 -39 -32 -56
-40 -16 -8 -56 -32 -88 -53 -32 -21 -88 -54 -125 -74 -37 -19 -78 -42 -92 -49
-14 -8 -30 -14 -36 -14 -6 0 -31 -11 -56 -25 -24 -13 -75 -36 -113 -50 -39
-15 -74 -30 -80 -35 -5 -4 -39 -18 -75 -30 -142 -50 -164 -59 -149 -60 38 0
308 62 394 91 51 18 128 39 175 49 25 5 54 12 65 16 11 3 -14 -16 -56 -44 -42
-28 -96 -56 -120 -63 -24 -7 -51 -18 -59 -24 -32 -26 -189 -104 -260 -129 -41
-15 -88 -33 -105 -40 -70 -31 -96 -40 -200 -76 -156 -54 -302 -97 -358 -104
-26 -4 -69 -11 -96 -16 -69 -13 -651 -13 -762 1 -167 19 -268 37 -284 49 -5 5
-57 18 -115 30 -58 12 -123 29 -145 37 -22 8 -49 17 -60 20 -11 3 -29 13 -40
23 -28 23 -150 90 -166 90 -7 0 -30 16 -50 36 -34 33 -36 39 -31 82 5 56 15
70 37 52 8 -7 15 -9 15 -5 0 4 6 3 13 -3 6 -6 46 -19 87 -31 41 -11 109 -29
150 -41 41 -12 84 -23 95 -25 71 -12 240 -35 290 -39 80 -7 474 -25 553 -26
68 0 76 13 15 24 -21 4 -51 11 -68 16 -34 11 -245 71 -260 75 -5 1 -17 5 -25
8 -8 4 -33 11 -55 16 -84 20 -161 42 -195 56 -19 7 -73 25 -120 40 -47 14
-103 35 -125 45 -22 10 -60 25 -85 31 -25 7 -52 18 -60 25 -9 7 -42 23 -75 35
-33 13 -78 33 -100 46 -22 13 -71 38 -110 57 -38 18 -90 50 -115 70 -203 165
-271 229 -257 243 8 7 81 -55 97 -83 21 -37 87 -61 175 -63 43 -1 82 -4 86 -7
4 -2 24 -6 45 -10 21 -3 50 -14 64 -23 14 -10 50 -23 80 -29 30 -7 69 -19 85
-28 17 -9 37 -17 46 -19 9 -2 52 -13 95 -24 199 -51 382 -93 428 -98 28 -2 58
-7 66 -10 24 -9 40 -12 140 -24 52 -6 102 -13 110 -16 19 -7 32 -9 175 -24
155 -15 181 -16 295 -2 52 7 124 15 160 18 36 3 88 8 115 11 150 13 253 26
275 34 14 5 41 12 60 15 99 15 190 37 295 70 28 9 66 21 85 27 49 15 120 47
120 55 0 6 -203 -3 -265 -12 -42 -6 -414 -33 -630 -46 -271 -16 -418 -19 -431
-9 -6 6 -24 11 -40 12 -16 1 -34 5 -40 9 -5 5 -46 15 -90 23 -43 9 -111 22
-149 30 -121 25 -313 40 -670 51 -110 4 -255 13 -323 20 l-123 14 -62 54 c-34
29 -81 68 -105 85 -61 44 -108 88 -178 167 -97 111 -109 152 -23 77 81 -71
336 -182 417 -182 19 0 58 -7 88 -16 29 -8 68 -14 86 -12 33 4 32 4 -12 15
-42 10 -38 11 60 11 58 0 154 8 214 16 108 16 163 20 155 12 -2 -2 -21 -7 -41
-10 -21 -3 -57 -10 -80 -16 -24 -5 -59 -10 -78 -10 -20 0 -40 -4 -45 -9 -6 -5
-19 -11 -30 -14 -22 -7 30 -2 150 12 96 11 402 70 430 82 11 5 36 11 55 13 19
2 73 13 119 26 46 12 100 22 120 22 20 0 41 3 46 7 13 10 83 28 155 41 30 5
82 14 115 20 85 16 343 3 369 -19 7 -6 21 -9 30 -5 9 3 22 2 29 -4 6 -6 33
-13 60 -17 26 -4 47 -12 47 -17 0 -6 -11 -7 -27 -3 -16 4 -52 9 -82 11 -30 3
-61 9 -68 15 -7 6 -70 13 -140 16 -133 5 -186 -3 -458 -67 -111 -27 -107 -26
-125 -33 -8 -3 -46 -11 -85 -17 -38 -7 -81 -16 -95 -20 -14 -5 -32 -9 -40 -9
-8 0 -45 -7 -81 -15 -36 -8 -77 -17 -90 -20 -13 -3 -35 -7 -49 -10 -50 -11
-99 -16 -255 -26 -88 -5 -167 -10 -175 -11 -8 -1 -1 -5 15 -9 41 -10 452 -4
600 9 205 18 317 21 740 24 403 2 641 -6 700 -23 17 -4 37 -8 45 -8 8 -1 42
-4 75 -7 73 -8 471 -8 575 0 l75 5 -55 -21 c-88 -34 -85 -42 15 -37 66 3 103
10 138 26 26 12 68 32 95 44 26 13 49 23 52 23 9 2 85 40 90 45 19 20 92 71
128 89 24 12 51 30 61 39 47 45 89 80 116 99 17 12 37 33 45 47 7 14 16 24 18
21 3 -3 -12 -30 -33 -60z m677 -36 c29 -6 94 -31 143 -55 50 -24 95 -44 101
-44 6 0 40 -31 77 -69 36 -37 77 -75 91 -84 14 -9 42 -47 62 -84 20 -38 43
-75 49 -83 7 -8 16 -26 20 -40 3 -14 13 -39 20 -55 8 -17 17 -87 21 -160 3
-72 10 -149 14 -172 4 -24 6 -43 5 -43 -2 0 -20 17 -42 38 -83 78 -120 109
-168 144 -27 20 -63 51 -80 68 -16 18 -55 48 -85 68 -30 19 -72 51 -93 71 -21
20 -66 52 -101 71 -98 54 -174 108 -180 127 -14 49 -27 175 -24 233 3 63 4 65
33 71 47 10 80 10 137 -2z m-467 -106 c-6 -37 -38 -137 -56 -178 -5 -11 -13
-38 -18 -60 -6 -22 -19 -65 -30 -95 -11 -30 -20 -67 -21 -82 0 -14 -9 -47 -19
-71 -11 -25 -17 -47 -14 -50 2 -3 -7 -26 -21 -50 -13 -25 -30 -74 -37 -108 -8
-40 -21 -72 -35 -86 -12 -12 -20 -24 -17 -26 8 -9 -66 -144 -82 -151 -9 -3
-13 -10 -10 -16 3 -5 -1 -22 -9 -37 -8 -16 -26 -55 -41 -88 -14 -33 -31 -69
-37 -80 -18 -32 -65 -126 -89 -180 -13 -27 -51 -79 -86 -114 -34 -35 -65 -71
-68 -82 -3 -10 -23 -28 -43 -41 -20 -12 -50 -38 -67 -57 -16 -20 -38 -43 -47
-53 -10 -10 -18 -26 -18 -35 0 -14 -2 -15 -9 -4 -5 7 -14 10 -20 7 -6 -4 -9
-12 -6 -17 4 -5 1 -9 -5 -9 -5 0 -44 -33 -86 -74 -42 -40 -88 -80 -102 -87
-15 -8 -41 -29 -58 -48 -30 -32 -116 -89 -201 -132 -24 -11 -40 -25 -37 -31 3
-5 12 -4 22 4 13 11 14 11 10 -2 -2 -8 -24 -22 -49 -31 -24 -9 -71 -33 -103
-53 -33 -20 -65 -36 -70 -36 -6 0 -31 -14 -56 -30 -25 -17 -66 -40 -92 -52
-27 -11 -48 -23 -48 -27 0 -4 -17 -15 -37 -24 -99 -48 -154 -78 -222 -123 -83
-56 -97 -64 -129 -83 -28 -15 -23 -27 5 -13 10 6 66 34 126 62 59 28 107 55
107 60 0 5 17 14 38 21 20 6 48 20 62 29 14 9 49 25 78 34 29 10 83 34 120 55
65 35 197 91 217 91 6 0 55 23 109 50 55 27 101 48 104 45 2 -2 22 5 43 15 21
11 41 20 44 20 9 0 -123 -130 -132 -130 -16 -1 -53 -39 -53 -55 0 -21 -55 -74
-95 -91 -17 -7 -67 -44 -112 -82 -70 -61 -108 -89 -184 -137 -79 -49 -118 -80
-104 -83 9 -2 22 1 29 7 7 6 35 15 63 21 30 7 60 21 74 36 12 13 28 24 36 24
7 0 13 4 13 8 0 5 18 15 40 22 21 7 51 26 66 41 15 16 33 29 38 29 12 0 124
104 147 135 21 30 109 98 117 91 3 -4 -36 -48 -86 -99 -51 -51 -96 -97 -100
-102 -11 -16 -118 -105 -127 -105 -4 0 -30 -18 -57 -40 -28 -22 -55 -40 -60
-40 -6 0 -23 -9 -38 -20 -27 -19 -95 -45 -250 -96 -41 -13 -86 -31 -100 -40
-25 -15 -25 -15 10 -8 37 6 118 33 233 78 37 14 77 26 87 26 11 0 20 5 20 11
0 6 7 8 15 5 9 -3 23 -2 33 3 39 20 93 41 105 41 21 0 -43 -38 -223 -131 -36
-19 -67 -36 -70 -39 -7 -8 -139 -48 -180 -55 -19 -3 -44 -8 -55 -10 -11 -2
-30 -4 -42 -4 -13 -1 -23 -5 -23 -11 0 -26 374 -5 465 25 35 12 149 68 180 88
27 18 25 15 -10 -22 -27 -30 -75 -60 -150 -97 -60 -30 -116 -54 -123 -54 -8 0
-42 -13 -76 -29 -33 -16 -89 -35 -123 -42 -35 -7 -63 -16 -63 -20 0 -4 -27
-15 -60 -25 -33 -10 -60 -21 -60 -24 0 -4 -6 -8 -12 -10 -31 -7 -502 -8 -521
-1 -12 5 -57 17 -101 27 -43 10 -84 23 -90 30 -7 6 -25 15 -42 18 -16 4 -45
20 -64 36 -37 32 -27 30 60 -13 50 -24 66 -27 171 -27 76 0 119 4 127 12 9 9
15 9 24 0 15 -15 29 -15 25 0 -2 11 73 35 168 53 61 12 19 16 -68 7 -43 -5
-108 -5 -145 0 -67 8 -206 48 -252 73 -14 7 -46 16 -73 20 -26 4 -49 11 -52
15 -2 4 84 10 192 14 107 3 203 11 212 16 13 8 11 10 -11 11 -28 1 -46 5 -50
9 -2 1 -28 8 -58 15 -30 7 -100 25 -155 40 -55 14 -120 31 -143 36 -24 5 -76
20 -115 35 -40 14 -72 25 -72 24 0 -13 -195 64 -247 97 -22 13 -50 28 -64 33
-28 11 -97 57 -129 87 -12 10 -45 38 -75 63 -30 25 -66 58 -80 75 -14 16 -41
46 -60 66 -19 19 -60 64 -90 99 -109 126 -119 136 -120 117 0 -10 9 -35 20
-57 11 -22 31 -72 44 -112 13 -40 39 -111 56 -158 65 -171 81 -217 120 -334
22 -66 40 -125 40 -131 0 -6 9 -28 20 -49 10 -21 24 -64 31 -95 10 -51 35
-120 59 -163 6 -10 10 -23 10 -30 0 -7 11 -35 24 -63 25 -51 25 -75 1 -41 -12
16 -88 168 -196 391 -48 100 -99 227 -99 247 0 18 -10 40 -55 127 -10 19 -19
44 -21 55 -5 34 -64 189 -78 206 -7 8 -23 43 -35 78 -25 74 -61 145 -114 225
-21 32 -43 71 -49 88 -5 16 -30 64 -54 106 -24 43 -44 82 -44 88 0 6 -9 28
-20 50 -11 22 -20 47 -20 57 0 10 -14 57 -30 106 -24 69 -69 227 -85 297 -2
11 -11 36 -25 71 -4 12 -11 48 -15 80 -9 67 -10 73 -18 94 -3 8 -8 35 -11 60
l-5 45 19 -40 c11 -22 20 -47 20 -55 0 -24 38 -139 71 -220 17 -41 35 -84 39
-95 5 -11 20 -45 34 -74 14 -30 26 -65 26 -78 0 -12 12 -44 28 -70 15 -26 45
-86 65 -133 21 -47 60 -116 88 -155 27 -38 61 -90 77 -115 15 -25 55 -73 90
-108 34 -35 69 -76 77 -92 8 -15 30 -41 48 -57 18 -15 57 -55 86 -89 29 -33
84 -85 122 -115 38 -29 69 -57 69 -62 0 -4 26 -20 58 -34 31 -13 71 -31 87
-38 17 -8 53 -19 80 -25 28 -7 57 -14 65 -18 8 -3 17 -6 20 -7 3 0 16 -4 30
-8 14 -3 66 -11 115 -17 50 -6 101 -13 115 -15 192 -28 546 -30 635 -4 38 12
39 13 15 20 -14 4 -46 7 -71 8 -47 1 -77 20 -64 41 4 6 -4 10 -19 10 -28 0
-33 9 -14 28 8 8 5 10 -15 6 -15 -2 -27 0 -27 6 0 5 6 10 14 10 8 0 16 5 18
11 2 5 24 13 48 16 25 3 50 9 55 13 6 4 24 10 40 14 17 4 44 13 60 21 17 7 73
30 125 51 52 20 141 61 197 90 55 30 109 54 118 54 18 0 76 29 86 43 3 4 32
15 65 23 59 16 88 29 174 76 130 72 193 111 228 142 12 11 22 15 22 8 0 -6
-11 -19 -25 -30 -26 -21 -32 -32 -15 -32 5 0 22 18 37 40 16 25 50 55 87 76
34 20 79 53 101 74 22 21 63 54 90 74 87 63 390 353 441 421 16 22 41 53 55
69 15 16 48 68 75 115 26 47 65 108 88 135 22 27 41 59 42 70 1 30 73 172 106
209 9 10 19 31 23 45 3 15 22 69 41 121 19 51 33 95 30 98 -3 3 -18 -23 -34
-58 -16 -35 -51 -95 -78 -132 -27 -38 -64 -89 -82 -115 -18 -26 -52 -67 -76
-92 -23 -25 -59 -67 -78 -95 -20 -27 -68 -78 -107 -113 -39 -35 -71 -68 -71
-73 0 -11 -61 -68 -73 -69 -5 0 -46 -34 -90 -76 -45 -42 -102 -87 -127 -102
-25 -14 -49 -30 -55 -36 -13 -15 -181 -126 -190 -126 -4 0 -67 -29 -140 -65
-107 -52 -198 -88 -305 -120 -3 -1 -21 -9 -41 -18 -20 -9 -48 -18 -62 -21 -14
-2 -41 -11 -59 -19 -18 -9 -49 -19 -68 -22 -19 -4 -40 -12 -47 -17 -6 -5 -40
-16 -75 -24 -35 -8 -99 -26 -143 -39 -86 -26 -172 -50 -300 -85 -44 -12 -102
-29 -130 -38 -27 -9 -59 -17 -70 -19 -11 -1 -58 -11 -105 -20 -63 -13 -133
-18 -275 -18 -185 0 -193 1 -295 32 -97 29 -207 77 -320 138 -25 13 -61 24
-80 24 l-35 -1 34 -10 c38 -10 137 -82 151 -109 5 -9 36 -25 67 -34 32 -10 99
-34 148 -55 50 -20 111 -40 137 -44 26 -4 50 -11 53 -17 4 -5 11 -7 16 -3 5 3
24 1 42 -5 58 -19 552 -18 563 1 3 5 11 5 17 -1 7 -5 34 -6 67 -1 149 22 209
31 250 36 25 4 56 11 70 16 14 5 50 14 80 19 73 11 83 14 95 21 6 3 34 9 64
13 30 4 79 16 110 26 30 11 61 19 69 19 14 0 74 24 102 41 8 5 35 18 60 30 25
12 48 23 53 26 4 2 7 1 7 -4 0 -4 -21 -19 -46 -33 -26 -13 -65 -39 -89 -56
-23 -18 -61 -37 -86 -44 -24 -6 -57 -17 -74 -24 -96 -43 -125 -58 -130 -66 -3
-4 -24 -11 -48 -15 -48 -8 -69 -18 -68 -31 1 -5 -10 -10 -24 -12 -18 -2 -25
-8 -21 -18 3 -9 -1 -14 -12 -14 -10 0 -22 -4 -27 -9 -6 -5 -35 -16 -65 -26
-30 -10 -59 -21 -64 -26 -6 -5 -20 -9 -33 -9 -13 0 -23 -4 -23 -10 0 -5 -12
-12 -27 -16 -16 -4 -38 -12 -50 -20 -12 -7 -57 -21 -100 -30 -43 -9 -84 -20
-91 -26 -7 -6 -71 -11 -150 -12 -111 -1 -144 2 -172 16 -19 10 -56 22 -81 27
-26 6 -114 44 -195 85 -82 41 -159 77 -172 81 -13 4 -53 27 -89 52 -36 24 -73
47 -82 50 -27 10 -174 128 -214 172 -20 22 -43 41 -51 41 -20 0 -90 95 -138
190 -66 128 -168 289 -194 307 -13 8 -24 20 -24 27 0 6 -16 28 -35 50 -19 21
-35 41 -35 45 0 4 -17 31 -38 59 -53 74 -90 134 -108 178 -9 22 -14 37 -12 34
32 -34 119 -142 134 -165 36 -57 365 -372 428 -410 18 -11 56 -39 84 -61 28
-23 72 -52 99 -64 26 -13 57 -31 68 -40 43 -37 257 -141 340 -165 67 -19 108
-25 179 -24 l91 1 -65 20 c-114 34 -149 49 -198 84 -26 18 -69 47 -97 64 -27
16 -84 61 -125 100 -41 38 -78 70 -83 70 -4 0 -59 47 -122 105 -64 58 -119
105 -123 105 -4 0 -41 34 -82 75 -41 41 -79 75 -85 75 -11 0 -113 97 -155 146
-14 17 -42 42 -63 58 -21 15 -51 52 -68 81 -16 29 -37 59 -45 66 -24 20 -98
139 -123 199 -13 30 -34 73 -46 95 -28 49 -60 152 -68 220 -6 46 -6 48 6 20 6
-16 21 -43 31 -60 52 -81 66 -105 89 -151 14 -27 52 -86 85 -131 33 -45 68
-95 77 -112 8 -17 34 -48 57 -69 22 -20 48 -46 57 -57 53 -65 114 -115 154
-127 27 -8 79 -41 132 -83 92 -74 102 -80 176 -114 26 -12 53 -28 60 -37 7 -9
35 -28 62 -42 89 -49 107 -60 147 -86 22 -14 42 -26 44 -26 3 0 33 -13 68 -29
121 -55 169 -64 348 -65 142 -1 269 5 385 19 128 15 279 38 325 49 30 8 75 17
100 20 25 4 68 13 95 21 28 8 82 21 120 29 39 8 97 21 130 31 33 9 85 22 116
29 31 7 62 17 70 22 8 5 32 14 54 20 22 7 56 17 75 24 71 26 156 59 192 74 21
9 39 16 40 15 5 -3 202 102 218 115 8 7 31 19 50 26 40 15 120 69 120 81 0 4
31 24 68 44 38 21 76 49 86 64 10 14 40 42 67 61 52 37 224 217 273 284 16 22
46 58 65 79 20 21 40 46 45 55 22 43 78 119 102 142 15 14 47 55 72 93 25 37
47 67 50 67 2 0 1 -17 -3 -37z m-1842 -12 c18 -5 59 -15 92 -21 33 -7 69 -16
80 -20 11 -5 74 -16 140 -24 166 -22 408 -21 560 3 66 11 138 22 160 25 l40 5
-37 -20 c-51 -26 -143 -49 -200 -49 -26 0 -50 -4 -53 -10 -10 -15 -413 -6
-527 12 -53 9 -102 19 -109 24 -8 4 -20 9 -29 10 -26 2 -134 35 -169 51 -19 9
-46 20 -60 24 -37 13 71 3 112 -10z m-148 -15 c47 -17 21 -20 -45 -5 -25 6
-106 15 -180 19 l-135 9 160 -4 c110 -2 172 -8 200 -19z m2105 -36 c0 -22 -3
-40 -8 -40 -4 0 -6 18 -4 40 2 22 6 40 8 40 2 0 4 -18 4 -40z m-2800 20 c0 -5
-8 -10 -17 -10 -15 0 -16 2 -3 10 19 12 20 12 20 0z m770 -10 c0 -5 -7 -7 -15
-4 -8 4 -15 8 -15 10 0 2 7 4 15 4 8 0 15 -4 15 -10z m2106 -126 c37 -53 59
-124 34 -109 -5 3 -26 -1 -46 -10 -20 -8 -37 -15 -38 -15 -2 0 -2 38 -2 84 1
46 4 82 8 80 4 -3 5 13 2 33 l-5 38 14 -36 c8 -20 23 -49 33 -65z m-89 19 c-3
-10 -5 -2 -5 17 0 19 2 27 5 18 2 -10 2 -26 0 -35z m1093 -627 c0 -16 -18 -31
-27 -22 -8 8 5 36 17 36 5 0 10 -6 10 -14z m-20 -80 c0 -3 -4 -8 -10 -11 -5
-3 -10 -1 -10 4 0 6 5 11 10 11 6 0 10 -2 10 -4z m-4152 -1163 c-10 -2 -26 -2
-35 0 -10 3 -2 5 17 5 19 0 27 -2 18 -5z m69 1 c-3 -3 -12 -4 -19 -1 -8 3 -5
6 6 6 11 1 17 -2 13 -5z m1878 -14 c-3 -5 -12 -10 -18 -10 -7 0 -6 4 3 10 19
12 23 12 15 0z m75 -34 c0 -3 -4 -8 -10 -11 -5 -3 -10 -1 -10 4 0 6 5 11 10
11 6 0 10 -2 10 -4z m-90 -96 c-66 -74 -78 -85 -87 -77 -4 5 136 147 145 147
2 0 -24 -32 -58 -70z m-1579 -236 c-18 -8 -36 -13 -39 -10 -6 7 37 25 58 25 8
-1 0 -7 -19 -15z m22 -31 c-4 -11 -3 -14 5 -9 7 4 12 2 12 -4 0 -7 -8 -9 -22
-4 -29 8 -31 10 -23 23 11 18 35 13 28 -6z m1347 -247 c0 -2 -7 -7 -16 -10 -8
-3 -12 -2 -9 4 6 10 25 14 25 6z m-1473 -162 c-3 -3 -12 -4 -19 -1 -8 3 -5 6
6 6 11 1 17 -2 13 -5z m1718 -154 c-10 -11 -23 -20 -28 -20 -6 0 -2 9 8 20 10
11 23 20 28 20 6 0 2 -9 -8 -20z m-2711 -346 c3 -8 2 -12 -4 -9 -6 3 -10 10
-10 16 0 14 7 11 14 -7z"/>
<path d="M4410 6835 c7 -9 15 -13 17 -11 7 7 -7 26 -19 26 -6 0 -6 -6 2 -15z"/>
<path d="M4627 6824 c5 -13 3 -15 -8 -10 -8 4 -5 0 5 -8 27 -22 39 -20 26 3
-13 26 -32 37 -23 15z"/>
<path d="M4917 6804 c3 -7 9 -14 14 -14 14 0 10 17 -5 23 -10 4 -13 1 -9 -9z"/>
<path d="M4750 6784 c0 -14 3 -14 15 -4 8 7 15 14 15 16 0 2 -7 4 -15 4 -8 0
-15 -7 -15 -16z"/>
<path d="M5643 6742 c-6 -4 -13 -23 -17 -42 -6 -31 -5 -33 6 -15 7 11 13 22
13 25 0 3 4 11 9 18 10 16 4 23 -11 14z"/>
<path d="M4342 6710 c14 -22 24 -19 15 5 -4 8 -11 15 -17 15 -6 0 -6 -7 2 -20z"/>
<path d="M4360 6674 c0 -6 7 -19 16 -30 14 -18 14 -18 3 6 -14 31 -19 36 -19
24z"/>
<path d="M5066 6647 c3 -10 9 -15 12 -12 3 3 0 11 -7 18 -10 9 -11 8 -5 -6z"/>
<path d="M5980 6612 c-13 -11 -20 -24 -16 -30 12 -19 25 -14 41 18 18 34 8 39
-25 12z"/>
<path d="M4390 6611 c0 -5 5 -13 10 -16 6 -3 10 -2 10 4 0 5 -4 13 -10 16 -5
3 -10 2 -10 -4z"/>
<path d="M4410 6576 c0 -5 11 -23 24 -40 13 -17 27 -42 31 -56 10 -33 46 -92
52 -86 3 3 -4 17 -15 33 -10 15 -25 44 -31 63 -11 34 -61 104 -61 86z"/>
<path d="M5140 6563 c8 -3 22 -11 30 -17 13 -10 13 -9 1 7 -7 9 -21 17 -30 16
-13 0 -14 -1 -1 -6z"/>
<path d="M3612 6549 c-29 -5 -65 -16 -80 -26 -120 -73 -272 -190 -272 -209 0
-7 -12 -25 -27 -40 l-26 -26 154 5 c85 3 167 8 182 11 45 7 122 -21 163 -59
38 -36 51 -44 38 -24 -5 8 0 10 17 6 13 -3 45 -9 70 -12 35 -5 46 -11 45 -23
-1 -12 6 -16 24 -15 33 2 77 -15 84 -33 6 -16 -10 -19 -19 -4 -9 15 -32 12
-39 -5 -3 -10 5 -20 24 -30 17 -9 30 -20 30 -24 0 -5 -13 -3 -30 5 -16 9 -34
13 -40 9 -6 -3 -13 1 -16 9 -6 16 -25 23 -23 9 3 -20 -3 -22 -25 -8 -14 9 -47
18 -74 20 -59 4 -132 25 -132 37 0 12 13 10 53 -7 46 -19 47 -19 47 5 0 16 -7
20 -38 20 -21 0 -55 9 -77 20 -28 14 -42 17 -52 9 -18 -15 -7 -29 23 -29 13 0
24 -4 24 -10 0 -5 -12 -10 -27 -10 -14 0 -33 -7 -42 -15 -9 -8 -33 -29 -53
-46 -43 -35 -49 -54 -15 -45 12 3 39 9 60 12 33 6 37 4 37 -15 0 -14 -8 -23
-27 -27 -31 -8 -44 -19 -62 -53 -11 -19 -11 -25 0 -32 20 -12 24 -11 68 12 34
17 42 18 60 7 12 -7 21 -16 21 -20 0 -6 19 -28 77 -90 19 -21 139 -93 170
-102 22 -7 33 -9 121 -26 55 -10 112 -3 169 22 31 13 72 56 73 75 0 7 9 17 19
23 16 8 21 6 26 -11 4 -11 12 -18 18 -16 7 2 20 0 30 -5 15 -8 18 -6 15 9 -2
10 -11 17 -21 17 -10 -1 -17 5 -17 17 0 12 -5 16 -15 13 -10 -4 -15 0 -15 14
0 11 -7 23 -16 26 -13 5 -14 9 -4 21 15 18 31 15 48 -7 7 -10 19 -18 25 -18 7
0 6 4 -3 10 -8 5 -11 12 -7 17 13 12 73 -27 123 -79 40 -43 44 -51 31 -61 -9
-7 -18 -24 -19 -38 -2 -15 -9 -33 -16 -41 -6 -8 -9 -17 -6 -20 3 -3 -17 -24
-43 -47 -63 -54 -38 -52 46 2 70 46 112 69 74 41 -24 -17 -30 -34 -13 -34 6 0
19 8 29 18 37 32 46 38 64 34 12 -2 17 3 17 17 0 14 5 19 15 15 22 -9 19 -20
-20 -58 -19 -20 -35 -38 -35 -41 0 -9 35 12 50 29 7 9 20 16 29 16 9 0 30 9
48 20 18 10 35 16 37 11 3 -4 -7 -14 -22 -21 -24 -11 -25 -13 -9 -19 17 -6 13
-14 -28 -69 -26 -34 -59 -71 -73 -82 -15 -11 -32 -24 -39 -30 -20 -16 -105
-60 -117 -60 -6 0 7 12 29 26 22 14 31 23 21 19 -11 -3 -38 -10 -60 -15 -23
-5 -59 -18 -81 -29 l-40 -20 32 -1 c17 0 34 4 38 10 8 14 35 1 29 -15 -8 -20
116 17 206 62 87 43 130 72 130 89 0 12 40 27 49 19 2 -3 -1 -5 -7 -5 -7 0
-12 -5 -12 -12 0 -6 9 -3 20 7 11 10 18 20 15 23 -11 12 39 74 158 195 70 72
127 134 127 139 0 6 6 8 13 5 7 -2 11 -16 9 -34 -4 -36 24 -66 39 -42 6 10 9
10 9 1 0 -7 25 -42 55 -77 30 -36 55 -69 55 -74 0 -4 13 -24 30 -42 16 -19 30
-39 30 -45 0 -14 28 -39 35 -32 3 3 -1 18 -10 34 -13 26 -13 29 3 36 9 4 31 7
47 8 17 0 48 9 70 20 22 11 52 19 67 20 15 0 30 5 33 11 5 7 14 4 26 -7 18
-16 18 -18 1 -30 -16 -13 -16 -15 1 -25 10 -6 33 -23 50 -38 33 -29 77 -46 77
-31 0 5 -5 21 -12 35 -9 21 -9 28 1 35 11 6 9 14 -9 40 -28 39 -19 49 26 27
125 -60 122 -58 153 -121 14 -26 36 -55 50 -64 14 -9 28 -19 31 -23 13 -16 72
-39 118 -45 50 -6 243 6 210 13 -20 5 -23 18 -8 28 6 4 8 11 5 16 -4 5 -17 2
-30 -7 -33 -21 -88 -9 -147 33 -26 19 -48 36 -48 38 0 6 55 -12 88 -29 26 -14
32 -14 32 -2 0 8 -26 23 -62 36 -35 13 -69 28 -75 33 -9 6 -13 6 -13 -2 0 -19
-25 -12 -60 19 -19 16 -41 29 -47 30 -7 0 -13 4 -13 9 0 5 -8 11 -17 15 -10 3
-47 21 -83 41 -35 19 -70 35 -77 35 -6 0 -14 4 -18 10 -3 5 20 17 52 26 32 9
69 24 83 34 14 10 44 27 68 38 l42 20 32 -39 c19 -24 53 -49 92 -66 34 -15 97
-46 142 -70 45 -23 97 -44 116 -48 45 -9 171 29 206 62 l27 24 -27 -5 c-39 -9
-35 -2 15 26 23 13 74 51 114 83 66 56 70 61 56 78 -9 9 -11 17 -5 17 6 0 13
-4 16 -9 3 -4 40 -7 83 -5 43 2 84 3 91 4 6 0 12 4 12 9 0 5 -11 8 -24 5 -32
-5 -76 12 -76 29 0 16 -74 32 -92 21 -7 -5 -8 -2 -3 6 6 9 1 10 -16 5 -17 -4
-20 -3 -10 3 11 8 10 12 -5 21 -17 9 -17 10 -2 11 9 0 20 -4 23 -10 3 -5 31
-10 61 -10 34 0 53 -4 49 -10 -3 -5 3 -10 13 -10 26 0 36 37 13 45 -43 13
-113 67 -122 94 -11 32 -40 42 -90 32 -29 -6 -30 -6 -12 -27 19 -21 39 -51 49
-72 11 -23 -7 -27 -24 -5 -26 33 -122 61 -122 35 0 -9 -152 -46 -182 -45 -10
0 -18 -3 -18 -7 0 -9 -47 -6 -57 3 -3 4 3 10 13 13 10 4 84 34 164 66 244 99
237 98 292 57 23 -16 45 -29 50 -29 5 0 29 -9 53 -20 24 -11 76 -23 117 -26
40 -4 78 -11 84 -15 6 -5 19 -1 32 12 l22 20 25 -28 c38 -44 29 -11 -17 57
-44 67 -131 158 -188 196 -19 13 -46 33 -60 44 -14 12 -62 30 -105 41 -71 17
-89 18 -155 8 -41 -6 -84 -17 -95 -24 -11 -6 -36 -14 -55 -17 -34 -6 -85 -27
-225 -93 -38 -18 -92 -41 -120 -51 -27 -10 -81 -38 -119 -63 -37 -25 -82 -55
-100 -65 -17 -11 -78 -51 -136 -90 -117 -78 -245 -133 -254 -110 -11 28 -76 5
-76 -26 0 -7 -3 -11 -6 -8 -3 4 -18 2 -34 -2 -28 -8 -77 12 -163 65 -28 17
-66 192 -74 333 l-6 123 -17 -68 c-10 -37 -20 -109 -23 -160 -6 -85 -34 -188
-60 -220 -5 -7 -26 -14 -46 -14 -23 -1 -28 -3 -13 -6 25 -5 28 -16 8 -32 -16
-13 -104 -12 -112 1 -3 4 -17 8 -32 8 -15 1 -38 7 -52 15 -14 8 -37 14 -52 15
-33 0 -109 32 -127 54 -7 9 -19 16 -26 16 -6 0 -37 18 -69 40 -31 22 -76 50
-99 62 -43 22 -98 60 -129 90 -10 10 -48 33 -85 52 -38 20 -93 54 -123 76 -30
22 -80 53 -110 68 -31 16 -76 48 -100 73 -85 83 -155 102 -298 78z m3118 -415
c0 -2 -9 -4 -21 -4 -11 0 -18 4 -14 10 5 8 35 3 35 -6z m-3110 -44 c0 -5 -4
-10 -10 -10 -5 0 -10 5 -10 10 0 6 5 10 10 10 6 0 10 -4 10 -10z m177 -46 c-3
-3 -12 -4 -19 -1 -8 3 -5 6 6 6 11 1 17 -2 13 -5z m-175 -16 c-9 -9 -15 -9
-24 0 -9 9 -7 12 12 12 19 0 21 -3 12 -12z m1545 -30 c-3 -8 -6 -5 -6 6 -1 11
2 17 5 13 3 -3 4 -12 1 -19z m1220 -4 c-3 -3 -12 -4 -19 -1 -8 3 -5 6 6 6 11
1 17 -2 13 -5z m-2420 -29 c37 -7 51 -22 30 -30 -10 -4 -12 -18 -7 -56 7 -53
20 -69 57 -69 30 0 39 18 11 22 -18 2 -24 10 -25 33 -1 17 0 24 3 18 3 -7 16
-13 29 -13 13 0 25 -6 28 -12 3 -10 7 -10 20 1 14 11 18 11 23 -4 16 -41 -51
-105 -109 -105 -15 0 -41 7 -58 15 -29 16 -29 16 -25 -10 6 -34 -11 -32 -54 6
-19 17 -46 37 -61 44 -14 8 -36 34 -49 59 -13 26 -29 51 -37 57 -27 23 -13 36
46 43 33 4 71 4 85 0 19 -4 28 -2 32 10 4 11 10 13 18 7 6 -5 26 -12 43 -16z
m-363 0 c-6 -15 -68 -55 -85 -55 -17 0 10 39 39 54 35 19 53 20 46 1z m2879
-7 c24 -11 27 -18 25 -52 -2 -32 1 -41 19 -49 18 -8 29 -5 58 17 34 27 49 21
20 -7 -8 -8 -11 -17 -8 -20 3 -4 -2 -18 -11 -32 -21 -32 -14 -32 32 1 25 18
19 9 -18 -24 -51 -47 -91 -72 -163 -101 -41 -16 -138 -14 -165 5 -25 17 -29
34 -8 34 8 0 22 10 30 22 11 15 16 18 17 8 0 -8 7 7 15 34 12 38 13 59 5 90
-12 49 -8 56 33 56 18 0 41 7 52 15 24 18 33 18 67 3z m207 -93 c-7 -9 -15
-13 -18 -10 -3 2 1 11 8 20 7 9 15 13 18 10 3 -2 -1 -11 -8 -20z m-1440 -88
c0 -6 10 -21 22 -34 15 -16 17 -23 7 -23 -8 0 -24 18 -36 40 -27 45 -29 57 -8
40 8 -7 15 -17 15 -23z m1275 -77 c-3 -5 -13 -10 -21 -10 -8 0 -12 5 -9 10 3
6 13 10 21 10 8 0 12 -4 9 -10z m-480 -174 c49 -25 95 -46 102 -46 6 0 15 -5
19 -12 5 -8 -9 -10 -53 -6 -69 7 -153 53 -172 95 -14 31 -14 38 2 25 6 -6 52
-31 102 -56z"/>
<path d="M5941 6544 c0 -11 3 -14 6 -6 3 7 2 16 -1 19 -3 4 -6 -2 -5 -13z"/>
<path d="M5902 6471 c-7 -21 -22 -53 -34 -72 -37 -55 -130 -240 -125 -246 3
-3 15 12 27 34 11 21 37 65 58 98 21 33 49 88 61 123 13 34 28 65 32 68 11 7
12 34 1 34 -5 0 -14 -17 -20 -39z"/>
<path d="M5551 6358 c-6 -40 -18 -96 -27 -124 -9 -29 -15 -57 -12 -64 7 -22
47 123 53 193 3 37 3 67 1 67 -2 0 -9 -33 -15 -72z"/>
<path d="M4729 6381 c7 -12 9 -26 6 -31 -3 -5 4 -14 15 -20 11 -6 20 -9 20 -7
0 10 -33 67 -42 73 -6 4 -6 -2 1 -15z"/>
<path d="M4510 6372 c0 -5 11 -22 24 -37 14 -16 27 -39 31 -52 10 -40 115
-186 180 -249 81 -79 103 -94 140 -94 l30 0 -27 14 c-32 17 -218 198 -218 212
0 6 -23 42 -50 79 -28 38 -60 83 -71 102 -19 31 -39 44 -39 25z"/>
<path d="M7199 6193 c8 -27 17 -41 19 -31 3 15 -23 78 -32 78 -2 0 4 -21 13
-47z"/>
<path d="M3614 6215 c11 -8 24 -15 29 -15 5 0 17 -10 27 -22 10 -13 21 -20 25
-17 10 11 -55 69 -78 69 -22 -1 -22 -1 -3 -15z"/>
<path d="M5557 6183 c-3 -16 -1 -35 4 -43 6 -10 8 -2 9 28 0 48 -5 55 -13 15z"/>
<path d="M3625 6170 c3 -5 10 -10 16 -10 5 0 9 5 9 10 0 6 -7 10 -16 10 -8 0
-12 -4 -9 -10z"/>
<path d="M3760 6146 c0 -2 18 -6 39 -8 22 -2 37 0 35 4 -5 8 -74 11 -74 4z"/>
<path d="M5705 6103 l-17 -28 23 22 c12 12 20 25 17 28 -3 3 -13 -7 -23 -22z"/>
<path d="M3765 6110 c3 -5 13 -10 21 -10 8 0 14 5 14 10 0 6 -9 10 -21 10 -11
0 -17 -4 -14 -10z"/>
<path d="M3870 6109 c0 -5 -5 -7 -12 -3 -7 4 -8 3 -4 -4 4 -7 19 -12 33 -12
21 0 24 2 13 15 -14 17 -30 20 -30 4z"/>
<path d="M5536 6093 c-6 -14 -5 -15 5 -6 7 7 10 15 7 18 -3 3 -9 -2 -12 -12z"/>
<path d="M5493 6047 c-11 -12 -29 -40 -41 -62 -14 -25 -16 -31 -5 -17 10 13
31 39 47 58 32 38 31 57 -1 21z"/>
<path d="M3275 6040 c3 -5 11 -10 16 -10 6 0 7 5 4 10 -3 6 -11 10 -16 10 -6
0 -7 -4 -4 -10z"/>
<path d="M3330 6020 c20 -13 33 -13 25 0 -3 6 -14 10 -23 10 -15 0 -15 -2 -2
-10z"/>
<path d="M4386 5814 c13 -30 12 -34 -14 -61 -15 -17 -38 -33 -52 -36 -14 -4
-32 -11 -40 -17 -13 -9 -13 -11 0 -20 20 -14 72 -4 83 15 4 8 14 15 22 15 15
0 20 14 29 86 5 38 4 42 -18 46 -23 5 -23 4 -10 -28z"/>
<path d="M3548 5790 c4 -10 37 -51 73 -92 57 -62 83 -82 175 -130 80 -42 128
-60 179 -68 74 -12 201 -6 245 13 14 5 28 10 31 9 9 -2 79 64 79 74 0 4 7 16
17 26 21 24 7 23 -46 -3 -24 -11 -49 -18 -57 -15 -7 3 -16 1 -18 -3 -3 -5 -19
-11 -36 -14 -18 -4 -30 -13 -30 -22 0 -8 -8 -16 -17 -16 -10 -1 -22 -2 -28 -3
-113 -21 -141 -17 -253 35 -35 16 -68 29 -73 29 -28 0 -95 48 -167 119 -44 43
-78 71 -74 61z"/>
<path d="M4433 5784 c-3 -9 0 -20 8 -25 27 -17 36 -8 23 25 -8 21 -23 20 -31
0z"/>
<path d="M6735 5745 c-88 -81 -199 -153 -262 -171 -31 -9 -88 -19 -127 -23
-66 -6 -68 -7 -33 -14 37 -8 48 -21 25 -30 -7 -3 -3 -6 9 -6 16 -1 21 3 17 14
-4 8 -1 15 5 15 6 0 11 -4 11 -10 0 -16 27 -12 98 16 143 56 182 84 287 208
22 26 42 49 44 52 2 2 0 4 -5 4 -5 -1 -36 -25 -69 -55z"/>
<path d="M5100 5777 c0 -20 9 -25 31 -20 18 5 19 6 2 19 -23 17 -33 17 -33 1z"/>
<path d="M6084 5705 c11 -8 22 -12 25 -9 6 6 -19 24 -34 24 -5 -1 -1 -7 9 -15z"/>
<path d="M5023 5704 c-7 -3 -9 -12 -6 -20 3 -7 10 -11 16 -7 6 4 8 0 4 -11 -4
-10 -3 -15 3 -11 5 3 9 17 8 30 -2 26 -4 27 -25 19z"/>
<path d="M6020 5675 c7 -8 17 -15 22 -15 6 0 5 7 -2 15 -7 8 -17 15 -22 15 -6
0 -5 -7 2 -15z"/>
<path d="M5050 5634 c-17 -34 -24 -69 -26 -136 -2 -49 -6 -94 -9 -98 -3 -5 -1
-11 5 -15 5 -3 10 0 11 7 0 7 4 4 8 -7 5 -12 4 -23 -3 -27 -7 -5 -7 -8 3 -8 7
0 11 -6 7 -15 -3 -8 -1 -15 4 -15 6 0 10 4 10 9 0 5 9 13 21 16 21 7 21 29 1
31 -7 1 -17 2 -23 3 -21 2 22 258 47 277 20 16 17 24 -10 24 -19 0 -29 -10
-46 -46z"/>
<path d="M5225 5650 c-8 -13 -1 -24 14 -19 6 3 7 10 2 18 -6 10 -10 10 -16 1z"/>
<path d="M5578 5623 c7 -3 16 -2 19 1 4 3 -2 6 -13 5 -11 0 -14 -3 -6 -6z"/>
<path d="M5306 5480 c4 -104 9 -138 20 -146 12 -10 12 -13 2 -17 -11 -4 -11
-6 0 -6 25 -2 39 24 35 63 -2 22 1 53 7 69 11 32 4 49 -38 93 -11 12 -23 34
-25 50 -3 16 -3 -32 -1 -106z m34 -130 c0 -5 -5 -10 -11 -10 -5 0 -7 5 -4 10
3 6 8 10 11 10 2 0 4 -4 4 -10z"/>
<path d="M5480 5600 c0 -5 16 -20 35 -32 39 -26 42 -35 18 -54 -26 -20 -49
-17 -93 11 -22 14 -40 24 -40 21 0 -11 78 -86 90 -86 8 0 30 -11 49 -24 20
-13 50 -27 66 -30 22 -5 26 -4 15 4 -12 8 -12 10 6 10 39 0 124 -31 150 -55
15 -14 32 -25 38 -24 6 0 6 3 -2 6 -6 2 -10 9 -6 14 3 5 13 5 25 -1 10 -6 19
-7 19 -2 0 9 -84 52 -101 52 -6 0 -36 12 -67 26 -48 22 -71 28 -124 33 -4 1
-4 17 -1 36 5 29 1 41 -18 61 -30 32 -59 49 -59 34z"/>
<path d="M6150 5590 c19 -11 42 -19 50 -19 8 0 -3 9 -24 19 -51 26 -72 25 -26
0z"/>
<path d="M6227 5573 c-8 -12 30 -29 40 -19 4 3 -1 6 -9 6 -9 0 -18 5 -20 12
-3 9 -6 9 -11 1z"/>
<path d="M4295 5509 c-68 -55 -71 -59 -46 -52 24 6 122 92 106 92 -5 0 -32
-18 -60 -40z"/>
<path d="M6245 5480 c3 -5 8 -10 11 -10 2 0 4 5 4 10 0 6 -5 10 -11 10 -5 0
-7 -4 -4 -10z"/>
<path d="M5845 5411 c28 -26 138 -84 133 -69 -2 6 -13 16 -24 22 -10 6 -21 13
-24 17 -3 3 -21 15 -41 27 -46 28 -71 30 -44 3z"/>
<path d="M5948 5403 c7 -3 16 -2 19 1 4 3 -2 6 -13 5 -11 0 -14 -3 -6 -6z"/>
<path d="M5655 5390 c3 -5 8 -10 11 -10 2 0 4 5 4 10 0 6 -5 10 -11 10 -5 0
-7 -4 -4 -10z"/>
<path d="M5687 5373 c-3 -5 11 -9 31 -10 29 -1 33 0 17 7 -26 11 -43 12 -48 3z"/>
<path d="M5700 5350 c0 -6 7 -10 15 -10 8 0 15 2 15 4 0 2 -7 6 -15 10 -8 3
-15 1 -15 -4z"/>
<path d="M6660 5350 c-9 -6 -10 -10 -3 -10 6 0 15 5 18 10 8 12 4 12 -15 0z"/>
<path d="M3550 5341 c20 -13 65 -21 200 -37 146 -17 180 -16 115 2 -49 13 -78
17 -220 29 -38 4 -79 8 -90 11 -16 4 -17 3 -5 -5z"/>
<path d="M5740 5314 c0 -2 9 -8 20 -14 11 -6 20 -7 20 -2 0 6 -9 12 -20 15
-11 3 -20 3 -20 1z"/>
<path d="M6407 5263 c-4 -3 -48 -7 -99 -10 -50 -2 -94 -5 -96 -7 -2 -3 16 -7
40 -11 47 -6 190 16 172 27 -6 4 -14 5 -17 1z"/>
<path d="M6735 4559 c-16 -5 -59 -11 -95 -14 -92 -7 -132 -15 -158 -32 -12 -7
-27 -11 -32 -8 -5 3 -11 1 -14 -4 -3 -5 -23 -9 -43 -10 -21 0 -51 -5 -68 -10
-25 -8 -19 -9 41 -10 39 -1 95 3 125 8 30 6 86 15 126 21 64 10 131 36 158 61
11 11 1 11 -40 -2z"/>
<path d="M3510 4463 c19 -2 49 -10 67 -18 42 -20 49 -19 28 5 -14 16 -29 20
-74 18 -38 -1 -45 -2 -21 -5z"/>
<path d="M7899 4881 c7 -5 10 -14 7 -20 -4 -6 -3 -11 2 -11 8 0 22 22 22 36 0
2 -10 4 -22 4 -17 0 -19 -3 -9 -9z"/>
<path d="M7308 4083 c-10 -2 -18 -12 -17 -21 0 -11 2 -12 6 -4 2 6 11 12 18
12 8 0 17 5 20 10 6 10 2 11 -27 3z"/>
<path d="M3960 3016 c0 -7 72 -47 77 -43 2 2 -2 8 -9 14 -16 12 -68 34 -68 29z"/>
<path d="M3470 2891 c0 -6 4 -13 10 -16 6 -3 7 1 4 9 -7 18 -14 21 -14 7z"/>
<path d="M5478 2723 c6 -2 18 -2 25 0 6 3 1 5 -13 5 -14 0 -19 -2 -12 -5z"/>
<path d="M5376 2681 c-3 -4 6 -6 19 -3 14 2 25 6 25 8 0 8 -39 4 -44 -5z"/>
<path d="M5156 2331 c-4 -5 3 -7 14 -4 23 6 26 13 6 13 -8 0 -17 -4 -20 -9z"/>
<path d="M5418 1711 c-49 -10 -91 -21 -95 -24 -10 -11 86 2 167 23 94 23 45
24 -72 1z"/>
<path d="M9413 6663 c26 -2 68 -2 95 0 26 2 4 3 -48 3 -52 0 -74 -1 -47 -3z"/>
<path d="M8555 6636 c-22 -12 -52 -30 -65 -40 l-25 -18 25 7 c39 12 120 56
120 66 0 12 -8 10 -55 -15z"/>
<path d="M8460 6559 c0 -5 5 -7 10 -4 6 3 10 8 10 11 0 2 -4 4 -10 4 -5 0 -10
-5 -10 -11z"/>
<path d="M8275 6420 c-3 -5 -2 -10 4 -10 5 0 13 5 16 10 3 6 2 10 -4 10 -5 0
-13 -4 -16 -10z"/>
<path d="M9243 5905 c27 -14 51 -25 53 -25 13 0 -27 31 -51 40 -49 19 -50 10
-2 -15z"/>
<path d="M9370 5840 c0 -5 7 -10 16 -10 8 0 12 5 9 10 -3 6 -10 10 -16 10 -5
0 -9 -4 -9 -10z"/>
<path d="M1593 4601 c-3 -12 -11 -17 -19 -14 -12 4 -12 0 -5 -20 16 -41 35
-71 54 -85 9 -7 17 -20 17 -28 0 -17 29 -61 77 -116 18 -21 46 -64 63 -98 16
-33 55 -85 86 -115 30 -31 52 -60 49 -65 -3 -5 -1 -11 4 -14 5 -4 12 -2 15 3
9 14 -4 41 -20 41 -7 0 -21 15 -30 33 -9 17 -25 43 -36 57 -10 14 -35 50 -55
80 -20 30 -44 63 -54 73 -11 10 -19 24 -19 33 0 19 -50 114 -72 136 -16 16
-24 54 -20 101 2 23 -29 22 -35 -2z m11 -47 c3 -8 2 -12 -4 -9 -6 3 -10 10
-10 16 0 14 7 11 14 -7z"/>
<path d="M1670 4530 c0 -7 11 -28 25 -46 14 -18 25 -38 25 -44 0 -6 11 -26 24
-43 13 -18 36 -56 52 -85 26 -50 64 -87 64 -62 0 5 -5 10 -10 10 -6 0 -15 12
-21 28 -24 67 -84 173 -120 212 -21 23 -39 37 -39 30z"/>
<path d="M1500 4500 c6 -11 15 -20 21 -20 6 0 6 7 -1 20 -6 11 -15 20 -21 20
-6 0 -6 -7 1 -20z"/>
<path d="M1436 4445 c4 -8 8 -15 10 -15 2 0 4 7 4 15 0 8 -4 15 -10 15 -5 0
-7 -7 -4 -15z"/>
<path d="M1600 4400 c0 -5 11 -17 24 -25 13 -9 27 -26 30 -38 22 -89 101 -206
123 -183 9 9 -16 58 -38 74 -10 7 -19 22 -19 33 0 11 -24 48 -52 83 -52 63
-68 76 -68 56z"/>
<path d="M1595 4223 c2 -16 4 -40 4 -54 1 -22 7 -28 31 -31 35 -5 41 13 10 35
-11 8 -23 28 -26 45 -8 39 -24 43 -19 5z"/>
<path d="M1955 4120 c3 -5 8 -10 11 -10 2 0 4 5 4 10 0 6 -5 10 -11 10 -5 0
-7 -4 -4 -10z"/>
<path d="M1810 4071 c24 -28 46 -49 48 -46 9 9 -55 90 -73 94 -12 2 -4 -14 25
-48z"/>
<path d="M9735 4040 c-18 -12 -48 -20 -75 -21 -57 -1 -92 -11 -98 -27 -3 -9 3
-10 20 -4 12 5 46 12 75 16 59 7 123 32 123 46 0 15 -12 12 -45 -10z"/>
<path d="M9763 3987 c-15 -13 -58 -40 -94 -60 -36 -20 -72 -43 -79 -52 -7 -9
16 0 51 19 35 20 79 43 97 52 17 9 32 21 32 27 0 5 8 16 18 23 9 7 14 14 10
14 -3 0 -19 -10 -35 -23z"/>
<path d="M2210 3793 c0 -7 11 -25 25 -40 32 -36 32 -17 0 22 -14 17 -25 25
-25 18z"/>
<path d="M7754 3632 c-40 -35 -89 -124 -108 -197 -8 -31 -22 -65 -30 -74 -23
-25 -20 -34 6 -20 34 18 55 48 79 114 11 33 29 69 39 80 23 26 61 113 52 119
-4 2 -21 -8 -38 -22z"/>
<path d="M2040 3603 c13 -24 28 -43 32 -43 11 0 -21 57 -41 73 -8 7 -4 -7 9
-30z"/>
<path d="M2240 3623 c0 -16 56 -80 64 -72 3 3 -10 23 -29 45 -19 21 -34 33
-35 27z"/>
<path d="M2650 3243 c0 -16 6 -37 13 -47 11 -15 12 -12 9 23 -5 48 -22 66 -22
24z"/>
<path d="M7563 3058 c-13 -24 -34 -77 -47 -118 -27 -83 -70 -178 -116 -255
-16 -27 -30 -57 -30 -65 0 -8 -14 -33 -30 -55 -16 -22 -58 -83 -94 -135 -35
-52 -98 -131 -140 -175 -41 -44 -81 -87 -89 -95 -30 -34 -410 -395 -418 -398
-5 -2 -9 -9 -9 -16 0 -18 -40 -67 -50 -61 -4 3 -14 -3 -21 -12 -10 -12 -10
-14 -1 -9 27 16 9 -17 -29 -54 -31 -29 -39 -43 -34 -59 8 -27 25 -27 25 -1 0
11 4 20 10 20 5 0 6 -7 3 -17 -4 -11 -3 -14 6 -9 7 4 10 13 8 19 -6 17 12 49
24 42 11 -8 30 12 46 46 6 14 39 45 73 70 34 24 87 70 118 102 31 33 68 65 82
72 14 8 40 27 58 44 18 17 39 31 45 31 13 0 97 93 135 149 14 20 51 64 83 99
33 34 59 68 59 73 0 6 22 39 49 73 27 34 64 93 83 131 36 73 95 183 108 200 9
12 57 155 95 278 32 107 31 149 -2 85z"/>
<path d="M3282 1938 c-17 -17 -15 -55 4 -62 27 -11 43 -7 54 14 8 15 6 24 -10
40 -23 23 -31 25 -48 8z"/>
<path d="M3340 1830 c0 -6 7 -13 15 -16 8 -4 15 -16 15 -29 0 -14 7 -25 19
-28 32 -8 32 4 0 44 -30 38 -49 49 -49 29z"/>
<path d="M3530 1741 c0 -5 5 -13 10 -16 6 -3 10 -2 10 4 0 5 -4 13 -10 16 -5
3 -10 2 -10 -4z"/>
<path d="M3533 1694 c-8 -20 13 -42 27 -28 12 12 3 44 -11 44 -5 0 -12 -7 -16
-16z"/>
<path d="M3462 1688 c6 -18 28 -21 28 -4 0 9 -7 16 -16 16 -9 0 -14 -5 -12
-12z"/>
<path d="M3590 1661 c0 -11 26 -22 34 -14 3 3 3 10 0 14 -7 12 -34 11 -34 0z"/>
<path d="M3540 1615 c0 -14 5 -25 10 -25 6 0 10 11 10 25 0 14 -4 25 -10 25
-5 0 -10 -11 -10 -25z"/>
<path d="M3630 1606 c0 -9 5 -16 10 -16 6 0 10 4 10 9 0 6 -4 13 -10 16 -5 3
-10 -1 -10 -9z"/>
<path d="M3434 1581 c21 -23 56 -34 56 -17 0 20 -22 36 -49 36 -23 0 -23 -1
-7 -19z"/>
<path d="M3590 1584 c0 -8 5 -12 10 -9 6 3 10 10 10 16 0 5 -4 9 -10 9 -5 0
-10 -7 -10 -16z"/>
<path d="M3631 1555 c-1 -30 14 -55 31 -55 5 0 4 8 -1 18 -5 9 -14 28 -19 42
l-11 25 0 -30z"/>
<path d="M6387 1533 c-4 -3 -7 -11 -7 -17 0 -6 5 -5 12 2 6 6 9 14 7 17 -3 3
-9 2 -12 -2z"/>
<path d="M6470 1515 c-10 -12 -10 -15 3 -15 8 0 20 7 27 15 10 12 10 15 -3 15
-8 0 -20 -7 -27 -15z"/>
<path d="M6650 1511 c0 -5 7 -11 15 -15 8 -3 14 -15 12 -28 -1 -14 4 -23 16
-26 20 -4 23 25 4 49 -14 18 -47 32 -47 20z"/>
<path d="M6305 1470 c-3 -5 1 -10 9 -10 9 0 16 5 16 10 0 6 -4 10 -9 10 -6 0
-13 -4 -16 -10z"/>
<path d="M3650 1425 c0 -8 6 -15 14 -15 8 0 16 7 20 15 4 10 -1 15 -14 15 -11
0 -20 -7 -20 -15z"/>
<path d="M6285 1430 c-16 -7 -17 -9 -3 -9 9 -1 20 4 23 9 7 11 7 11 -20 0z"/>
<path d="M3867 1389 c4 -13 8 -18 11 -10 2 7 -1 18 -6 23 -8 8 -9 4 -5 -13z"/>
<path d="M6235 1380 c-3 -5 -1 -10 4 -10 6 0 11 5 11 10 0 6 -2 10 -4 10 -3 0
-8 -4 -11 -10z"/>
<path d="M6012 1348 c-17 -17 -16 -44 1 -30 6 6 16 10 20 10 16 0 18 9 4 20
-10 9 -17 8 -25 0z"/>
<path d="M3620 1340 c0 -5 5 -10 11 -10 5 0 7 5 4 10 -3 6 -8 10 -11 10 -2 0
-4 -4 -4 -10z"/>
<path d="M3880 1340 c0 -6 6 -13 14 -16 8 -3 12 -12 9 -21 -3 -8 -1 -18 5 -22
7 -4 21 -25 33 -47 11 -21 18 -31 15 -22 -3 10 -1 20 5 23 5 4 1 18 -11 35
-11 15 -20 32 -20 37 0 11 -33 43 -43 43 -4 0 -7 -5 -7 -10z"/>
<path d="M6120 1305 c0 -8 2 -15 4 -15 2 0 6 7 10 15 3 8 1 15 -4 15 -6 0 -10
-7 -10 -15z"/>
<path d="M6140 1267 c-14 -6 -26 -11 -27 -11 -1 -1 -4 -13 -8 -27 -6 -24 -4
-26 25 -24 17 1 36 7 42 13 14 14 22 55 9 48 -5 -4 -11 -2 -13 3 -1 4 -14 4
-28 -2z"/>
<path d="M3670 1259 c0 -5 5 -7 10 -4 6 3 10 8 10 11 0 2 -4 4 -10 4 -5 0 -10
-5 -10 -11z"/>
<path d="M6675 1240 c4 -6 11 -8 16 -5 14 9 11 15 -7 15 -8 0 -12 -5 -9 -10z"/>
<path d="M4150 1204 c0 -9 5 -14 12 -12 18 6 21 28 4 28 -9 0 -16 -7 -16 -16z"/>
<path d="M3671 1164 c0 -11 3 -14 6 -6 3 7 2 16 -1 19 -3 4 -6 -2 -5 -13z"/>
<path d="M4120 1163 c0 -3 11 -26 25 -50 24 -39 29 -43 65 -43 21 0 42 -5 45
-10 4 -6 11 -7 17 -4 7 5 9 0 6 -14 -5 -16 -1 -22 16 -24 12 -2 20 -9 18 -18
-15 -63 -14 -80 4 -86 11 -3 28 -10 39 -16 19 -10 19 -10 4 8 -23 26 -32 61
-22 79 8 14 11 14 25 -2 9 -10 18 -34 20 -53 3 -37 19 -43 62 -25 14 6 17 5
14 -6 -3 -8 -12 -13 -21 -11 -8 1 -18 -2 -22 -8 -3 -5 3 -10 14 -10 10 0 27
-3 35 -6 12 -5 15 -2 9 12 -5 14 -3 16 13 10 65 -26 76 -29 84 -16 5 7 3 21
-3 31 -9 15 -8 21 8 33 25 18 30 14 15 -14 -9 -18 -9 -24 0 -30 7 -4 10 -12 7
-17 -10 -16 57 -11 77 6 18 15 19 15 13 -1 -5 -14 2 -16 54 -15 34 1 58 6 57
12 -2 6 -13 10 -25 10 -36 -1 -27 10 20 23 52 16 129 12 135 -5 2 -8 -6 -13
-22 -13 -29 0 -33 -16 -12 -45 12 -16 16 -17 30 -6 12 10 23 11 45 3 24 -9 33
-7 50 9 11 11 24 19 28 18 4 0 9 4 11 10 2 6 -9 11 -25 11 l-28 1 32 14 c35
15 75 9 137 -20 l39 -19 -41 -15 c-49 -18 -59 -51 -17 -51 14 0 37 -7 51 -16
14 -10 24 -13 23 -8 -1 5 0 11 1 14 2 3 4 21 4 40 2 35 3 35 56 42 39 5 58 12
71 29 21 29 15 43 -13 28 -23 -12 -130 -14 -180 -4 -17 4 -47 8 -67 10 -20 1
-61 6 -91 9 -275 35 -383 46 -389 41 -2 -3 -9 1 -15 9 -6 7 -37 20 -68 29 -48
13 -58 13 -58 2 0 -8 5 -17 10 -20 6 -3 10 -11 10 -16 0 -15 -83 0 -93 17 -4
8 -13 14 -20 14 -7 0 -29 5 -50 11 -31 8 -36 13 -27 24 8 10 7 16 -7 25 -16
10 -14 11 10 7 21 -3 25 -2 16 9 -10 12 -28 10 -54 -5 -5 -3 -26 -6 -45 -7
-38 -2 -93 38 -84 61 3 7 -2 15 -10 18 -9 4 -16 4 -16 0z m434 -159 c21 -8 20
-24 -1 -24 -13 0 -14 -3 -5 -12 16 -16 15 -28 -1 -28 -9 0 -14 13 -15 35 -1
38 -1 38 22 29z m-100 -38 c-6 -17 -34 -30 -34 -16 0 5 8 14 18 19 22 13 22
13 16 -3z m210 -41 c3 -9 0 -15 -9 -15 -16 0 -27 14 -18 24 10 10 21 7 27 -9z
m316 -35 c0 -5 -10 -10 -22 -10 -19 0 -20 2 -8 10 19 13 30 13 30 0z"/>
<path d="M6041 1155 c-30 -17 -72 -61 -64 -68 3 -3 17 2 31 11 14 9 28 16 29
14 8 -7 31 15 37 36 8 25 2 26 -33 7z"/>
<path d="M4181 1153 c-8 -3 1 -11 25 -20 50 -19 104 -25 104 -12 0 6 -8 9 -17
7 -10 -1 -33 5 -52 15 -36 18 -38 18 -60 10z"/>
<path d="M3907 1009 c4 -13 8 -18 11 -10 2 7 -1 18 -6 23 -8 8 -9 4 -5 -13z"/>
<path d="M4105 1020 c-3 -5 -2 -10 4 -10 5 0 13 5 16 10 3 6 2 10 -4 10 -5 0
-13 -4 -16 -10z"/>
<path d="M4157 1024 c-3 -5 1 -15 9 -22 16 -14 18 -5 5 17 -5 7 -11 9 -14 5z"/>
<path d="M5856 1001 c-4 -7 -5 -15 -2 -18 9 -9 19 4 14 18 -4 11 -6 11 -12 0z"/>
<path d="M4440 836 c0 -2 7 -9 15 -16 12 -10 15 -10 15 4 0 9 -7 16 -15 16 -8
0 -15 -2 -15 -4z"/>
<path d="M5326 794 c-9 -24 -8 -25 14 -12 23 15 26 28 6 28 -8 0 -17 -7 -20
-16z"/>
<path d="M5042 764 c-11 -7 -22 -10 -26 -7 -3 3 -6 2 -6 -3 0 -5 18 -10 40
-10 50 -2 59 -10 34 -29 -25 -19 -15 -19 31 1 21 8 48 13 61 10 12 -3 26 -2
29 4 4 6 -9 10 -32 10 -21 0 -55 8 -75 19 -32 16 -40 16 -56 5z"/>
<path d="M5255 754 c-8 -6 -13 -18 -10 -26 7 -18 -20 -42 -39 -35 -8 3 -20 -1
-26 -9 -10 -11 -9 -14 8 -14 12 0 24 -4 27 -10 10 -15 28 -12 22 4 -3 8 1 20
9 26 11 10 14 9 14 -3 0 -19 16 -31 30 -22 8 5 7 11 -1 21 -9 11 -7 14 13 14
17 0 28 9 39 33 l14 32 -42 0 c-24 0 -50 -5 -58 -11z"/>
<path d="M4970 716 c0 -2 7 -6 15 -10 8 -3 15 -1 15 4 0 6 -7 10 -15 10 -8 0
-15 -2 -15 -4z"/>
<path d="M4933 693 c-12 -2 -24 -11 -27 -19 -7 -18 -2 -18 34 1 28 15 40 27
23 24 -5 -1 -18 -4 -30 -6z"/>
<path d="M4455 660 c-3 -5 -1 -10 4 -10 6 0 11 5 11 10 0 6 -2 10 -4 10 -3 0
-8 -4 -11 -10z"/>
<path d="M5423 649 c-18 -12 -33 -22 -33 -24 0 -9 41 10 56 26 22 24 17 24
-23 -2z"/>
<path d="M4400 646 c0 -9 5 -16 10 -16 6 0 10 4 10 9 0 6 -4 13 -10 16 -5 3
-10 -1 -10 -9z"/>
<path d="M4335 640 c-3 -5 -1 -10 4 -10 6 0 11 5 11 10 0 6 -2 10 -4 10 -3 0
-8 -4 -11 -10z"/>
<path d="M4346 582 c-4 -7 -2 -12 3 -12 6 0 11 -7 11 -16 0 -9 5 -13 13 -10 6
3 20 9 30 12 21 8 22 20 2 28 -8 3 -15 1 -15 -4 0 -14 -28 -12 -32 2 -3 9 -6
9 -12 0z"/>
<path d="M4100 561 c0 -11 4 -21 9 -21 18 0 21 18 6 30 -13 10 -15 9 -15 -9z"/>
<path d="M4690 511 c0 -5 7 -11 15 -15 8 -3 15 -12 15 -21 0 -8 10 -25 22 -37
21 -21 21 -23 5 -26 -16 -3 -16 -6 5 -23 21 -19 23 -19 29 -2 4 12 -2 26 -18
43 -14 13 -31 39 -38 57 -13 30 -35 45 -35 24z"/>
<path d="M3990 475 c0 -10 10 -15 30 -15 20 0 30 5 30 15 0 10 -10 15 -30 15
-20 0 -30 -5 -30 -15z"/>
<path d="M4615 481 c-3 -5 -1 -12 5 -16 5 -3 10 1 10 9 0 18 -6 21 -15 7z"/>
<path d="M4556 436 c-4 -17 -3 -33 3 -39 16 -16 13 -25 -6 -30 -10 -3 -1 -5
21 -6 31 -1 36 2 27 13 -6 7 -17 30 -24 52 l-14 38 -7 -28z"/>
<path d="M4822 448 c-24 -24 -13 -36 31 -34 34 2 42 6 42 22 0 23 -53 32 -73
12z"/>
<path d="M4410 383 c0 -16 12 -41 26 -58 14 -17 23 -22 20 -13 -4 13 2 20 20
24 23 6 30 25 9 26 -6 0 -16 4 -22 10 -7 6 -13 7 -14 2 0 -5 -4 1 -9 14 -13
31 -30 28 -30 -5z"/>
<path d="M4420 220 c0 -5 5 -10 10 -10 6 0 10 5 10 10 0 6 -4 10 -10 10 -5 0
-10 -4 -10 -10z"/>
<path d="M10080 80 l0 -80 80 0 80 0 0 80 0 80 -80 0 -80 0 0 -80z"/>
<path d="M4425 30 c28 -12 45 -12 45 0 0 6 -15 10 -32 9 -28 0 -30 -2 -13 -9z"/>
<path d="M4858 3 c6 -2 18 -2 25 0 6 3 1 5 -13 5 -14 0 -19 -2 -12 -5z"/>
</g>
</svg>
