<?xml version="1.0" standalone="no"?>
<!DOCTYPE svg PUBLIC "-//W3C//DTD SVG 20010904//EN"
 "http://www.w3.org/TR/2001/REC-SVG-20010904/DTD/svg10.dtd">
<svg version="1.0" xmlns="http://www.w3.org/2000/svg"
 width="2000.000000pt" height="2000.000000pt" viewBox="0 0 2000.000000 2000.000000"
 preserveAspectRatio="xMidYMid meet">

<g transform="translate(0.000000,2000.000000) scale(0.100000,-0.100000)"
fill="#000000" stroke="none">
<path d="M8600 17823 c-58 -2 -109 -8 -114 -13 -6 -6 -33 -10 -61 -10 -30 0
-59 -6 -71 -15 -10 -8 -30 -15 -42 -15 -13 0 -37 -9 -53 -21 -35 -24 -39 -67
-11 -107 10 -15 22 -34 25 -42 4 -8 16 -28 27 -45 23 -36 38 -62 76 -135 16
-30 38 -69 50 -85 29 -43 46 -87 37 -96 -7 -6 -154 -67 -258 -106 -22 -8 -48
-19 -57 -24 -10 -5 -30 -9 -46 -9 -15 0 -37 -7 -48 -15 -10 -8 -31 -15 -46
-15 -15 0 -30 -4 -33 -10 -3 -5 -18 -10 -33 -10 -15 0 -36 -7 -46 -15 -11 -8
-30 -15 -42 -15 -13 0 -26 -4 -29 -10 -3 -5 -15 -10 -27 -10 -11 0 -32 -6 -46
-14 -15 -7 -38 -18 -52 -23 -79 -32 -248 -114 -315 -154 -27 -17 -58 -33 -67
-36 -10 -3 -18 -9 -18 -13 0 -4 -11 -12 -25 -18 -44 -20 -208 -143 -275 -207
-36 -33 -96 -88 -134 -120 -183 -157 -702 -692 -833 -859 -18 -22 -43 -52 -56
-66 -13 -14 -35 -44 -49 -65 -14 -22 -37 -51 -52 -64 -14 -14 -26 -29 -26 -34
0 -6 -16 -29 -35 -53 -19 -23 -35 -45 -35 -48 0 -4 -21 -37 -47 -74 -55 -77
-66 -95 -89 -139 -9 -18 -22 -37 -30 -44 -8 -6 -14 -16 -14 -22 0 -6 -6 -18
-14 -26 -8 -9 -26 -38 -41 -66 -14 -27 -35 -64 -44 -81 -41 -69 -175 -342
-215 -439 -9 -22 -21 -48 -26 -57 -6 -10 -10 -29 -10 -42 0 -14 -4 -27 -9 -30
-5 -3 -11 -18 -14 -33 -4 -25 -16 -62 -38 -118 -4 -11 -10 -40 -14 -64 -3 -23
-14 -59 -25 -80 -11 -20 -22 -49 -25 -64 -3 -15 -10 -25 -16 -22 -5 4 -7 16
-3 28 4 12 6 39 5 59 -1 20 5 54 14 75 9 21 19 69 22 106 3 37 10 70 14 73 5
3 9 16 9 30 0 14 5 35 12 47 6 12 15 40 19 62 12 64 40 157 60 197 5 10 9 28
9 40 0 13 7 32 15 42 8 11 15 28 15 38 0 10 4 26 9 36 9 18 30 67 51 117 23
55 42 100 51 117 5 10 9 24 9 32 0 7 7 19 15 26 8 7 15 21 15 31 0 11 5 19 10
19 6 0 10 9 10 19 0 11 4 23 10 26 8 5 18 23 44 85 4 8 12 24 19 35 7 11 25
43 42 70 50 84 53 89 70 122 9 18 23 37 31 44 8 6 14 20 14 29 0 10 3 20 8 22
8 4 92 124 92 133 0 3 11 18 25 33 14 15 25 32 25 38 0 6 11 21 25 34 14 13
25 28 25 34 0 6 16 29 35 51 19 22 35 43 35 48 0 4 17 26 38 50 21 23 51 60
67 82 16 22 42 54 56 70 15 17 42 49 60 72 49 61 180 216 193 228 6 6 58 62
116 125 58 63 114 122 125 132 11 9 17 19 14 22 -9 9 -51 -9 -76 -33 -12 -12
-29 -21 -36 -21 -8 0 -20 -7 -27 -15 -7 -8 -56 -46 -110 -85 -54 -39 -104 -78
-111 -87 -8 -9 -39 -34 -69 -56 -30 -22 -57 -43 -60 -47 -3 -3 -45 -40 -95
-82 -101 -85 -360 -346 -421 -423 -21 -27 -54 -67 -73 -87 -18 -21 -43 -50
-55 -66 -41 -57 -110 -147 -115 -152 -14 -12 -91 -130 -91 -140 0 -5 -4 -10
-8 -10 -5 0 -14 -10 -20 -22 -6 -13 -23 -41 -37 -63 -13 -22 -34 -57 -45 -77
-11 -20 -24 -39 -30 -43 -5 -3 -10 -15 -10 -26 0 -10 -4 -19 -10 -19 -5 0 -10
-9 -10 -19 0 -11 -4 -23 -10 -26 -5 -3 -17 -23 -26 -43 -8 -20 -20 -44 -25
-52 -5 -8 -12 -22 -15 -30 -21 -55 -53 -128 -65 -152 -5 -10 -9 -26 -9 -36 0
-10 -7 -27 -15 -38 -8 -10 -15 -29 -15 -41 0 -12 -4 -25 -10 -28 -5 -3 -10
-21 -10 -38 0 -18 -7 -41 -15 -51 -8 -11 -15 -34 -15 -52 0 -18 -4 -36 -10
-39 -5 -3 -10 -24 -10 -46 0 -22 -5 -50 -12 -62 -23 -42 -31 -164 -30 -517 0
-346 10 -573 28 -601 5 -8 12 -57 16 -109 22 -277 26 -318 37 -338 6 -11 11
-33 11 -49 0 -39 40 -80 87 -87 54 -9 160 13 225 45 10 5 28 9 41 9 13 0 32 7
43 15 10 8 31 15 46 15 15 0 29 4 32 9 3 5 20 11 38 14 34 5 138 39 196 63 18
8 41 14 52 14 10 0 22 5 25 10 3 6 16 10 28 10 12 0 31 7 41 15 11 8 30 15 42
15 13 0 26 5 29 10 3 6 16 10 27 10 12 0 29 6 37 13 9 7 34 19 56 26 36 11 82
30 127 52 10 5 26 9 37 9 10 0 24 7 31 15 7 8 23 15 36 15 12 0 26 5 29 10 3
6 15 10 25 10 10 0 33 8 52 17 61 31 68 33 87 33 10 0 24 7 31 15 7 8 23 15
36 15 12 0 26 5 29 10 3 6 16 10 29 10 12 0 31 7 42 15 10 8 29 15 41 15 12 0
25 5 28 10 3 6 16 10 29 10 12 0 31 7 42 15 10 8 29 15 41 15 12 0 25 5 28 10
3 6 15 10 25 10 10 0 33 8 52 17 62 31 68 33 90 33 13 0 32 7 42 15 11 8 30
15 42 15 13 0 26 5 29 10 3 6 17 10 30 10 22 0 68 16 117 41 10 5 26 9 37 9
11 0 32 6 48 14 37 18 94 36 119 36 10 0 28 7 38 15 11 8 30 15 42 15 13 0 26
5 29 10 3 6 21 10 38 10 18 0 41 7 51 15 11 8 32 15 47 15 15 0 31 5 34 10 3
6 19 10 34 10 15 0 36 7 47 15 10 8 31 15 46 15 15 0 30 5 33 10 3 6 19 10 34
10 15 0 36 7 47 15 10 8 31 15 46 15 15 0 30 5 33 10 3 6 21 10 39 10 18 0 41
7 52 15 10 8 33 15 51 15 17 0 35 5 38 10 3 6 21 10 38 10 18 0 41 7 51 15 11
8 32 15 47 15 15 0 31 5 34 10 3 6 23 10 44 10 22 0 44 6 51 15 7 9 29 15 51
15 21 0 41 5 44 10 3 6 18 10 33 10 15 1 38 7 52 15 14 8 39 14 57 15 17 0 35
5 38 10 3 6 23 10 44 10 20 0 42 5 49 12 6 6 31 15 57 20 25 4 64 12 88 16 23
5 49 12 57 17 8 5 32 12 55 16 82 16 121 26 142 37 12 7 37 12 55 12 19 0 38
4 44 9 5 5 27 11 49 14 53 7 141 30 151 40 4 4 21 7 38 7 32 0 140 31 152 43
4 4 28 7 53 7 25 0 84 9 130 20 97 23 121 20 34 -5 -32 -9 -67 -22 -78 -29
-11 -7 -40 -18 -65 -25 -25 -7 -57 -19 -72 -27 -14 -8 -35 -14 -46 -14 -12 0
-24 -4 -27 -10 -3 -5 -19 -10 -34 -10 -15 0 -36 -7 -47 -15 -10 -8 -29 -15
-41 -15 -12 0 -25 -4 -28 -10 -3 -5 -15 -10 -25 -10 -17 0 -66 -18 -112 -41
-10 -5 -25 -9 -34 -9 -9 0 -28 -6 -42 -14 -15 -8 -47 -19 -72 -26 -25 -7 -57
-18 -72 -26 -14 -8 -35 -14 -46 -14 -12 0 -24 -4 -27 -10 -3 -5 -18 -10 -33
-10 -15 0 -36 -7 -46 -15 -11 -8 -30 -15 -42 -15 -13 0 -26 -4 -29 -10 -3 -5
-16 -10 -29 -10 -12 0 -31 -7 -42 -15 -10 -8 -29 -15 -42 -15 -12 0 -30 -4
-40 -9 -46 -23 -95 -41 -112 -41 -10 0 -22 -4 -25 -10 -3 -5 -15 -10 -27 -10
-11 0 -32 -6 -46 -14 -34 -17 -93 -36 -114 -36 -9 0 -21 -7 -28 -15 -7 -8 -25
-15 -41 -15 -48 0 -79 -56 -47 -88 6 -6 15 -30 19 -54 15 -83 26 -123 37 -145
7 -12 12 -35 12 -52 0 -16 5 -33 10 -36 6 -3 10 -21 10 -38 0 -18 7 -41 15
-51 8 -11 15 -34 15 -52 0 -18 5 -36 10 -39 6 -3 10 -21 10 -38 0 -18 6 -41
14 -52 7 -11 16 -36 19 -55 14 -80 20 -106 33 -125 8 -11 14 -34 14 -52 0 -17
5 -35 10 -38 6 -3 10 -21 10 -38 1 -18 7 -43 15 -57 8 -14 14 -37 15 -52 0
-15 5 -30 10 -33 6 -3 10 -21 10 -39 0 -18 7 -41 15 -52 8 -10 15 -33 15 -51
0 -17 5 -35 10 -38 15 -9 12 -132 -4 -163 -21 -41 -62 -71 -171 -125 -11 -6
-27 -14 -35 -18 -8 -5 -34 -18 -57 -29 -23 -11 -45 -24 -48 -30 -3 -5 -13 -10
-20 -10 -8 0 -38 -15 -67 -33 -29 -19 -82 -48 -118 -66 -78 -39 -140 -70 -160
-82 -8 -4 -76 -38 -150 -74 -74 -37 -142 -71 -150 -76 -8 -5 -22 -12 -30 -15
-36 -14 -129 -54 -152 -65 -10 -5 -28 -9 -42 -9 -13 0 -29 -7 -36 -15 -7 -8
-27 -15 -46 -15 -18 0 -36 -4 -39 -10 -3 -5 -25 -10 -48 -10 -23 -1 -53 -7
-67 -15 -14 -8 -46 -14 -72 -15 -26 0 -50 -4 -53 -10 -3 -5 -29 -10 -56 -10
-27 0 -66 -7 -86 -15 -19 -8 -59 -15 -89 -15 -29 0 -56 -4 -59 -10 -3 -5 -32
-10 -63 -10 -31 0 -73 -5 -92 -11 -34 -12 -91 -20 -241 -37 -41 -5 -82 -13
-90 -18 -8 -5 -43 -12 -79 -16 -36 -4 -99 -11 -140 -16 -41 -5 -85 -14 -97
-20 -12 -7 -46 -12 -75 -12 -30 0 -58 -4 -63 -9 -6 -5 -39 -11 -75 -12 l-64
-3 -18 70 c-10 38 -18 95 -18 126 0 31 -4 60 -10 63 -5 3 -10 26 -10 51 0 25
-7 61 -15 81 -8 19 -15 46 -15 60 0 36 -47 125 -100 191 -39 49 -215 191 -260
209 -8 4 -32 17 -53 30 -37 23 -40 24 -58 7 -23 -21 -26 -88 -5 -130 18 -36
78 -93 131 -127 48 -30 125 -100 125 -114 0 -5 -12 -15 -26 -22 -14 -6 -24
-17 -22 -24 6 -15 86 -76 135 -102 21 -11 52 -31 69 -46 l31 -26 -32 -21 c-17
-12 -41 -22 -53 -22 -38 0 -32 -16 13 -39 47 -23 78 -59 88 -101 3 -14 11 -44
18 -67 16 -52 1 -93 -33 -93 -13 0 -32 -7 -42 -15 -11 -8 -33 -15 -48 -15 -16
0 -36 -4 -46 -8 -9 -5 -44 -22 -77 -37 -33 -16 -75 -42 -92 -59 -32 -29 -33
-33 -33 -104 0 -43 6 -87 14 -105 8 -18 17 -52 20 -77 14 -117 23 -167 34
-187 7 -12 12 -40 12 -62 0 -22 4 -42 9 -45 5 -3 11 -23 14 -43 4 -37 21 -90
38 -125 5 -10 9 -26 9 -37 0 -10 7 -24 15 -31 8 -7 15 -20 16 -29 0 -9 9 -29
20 -46 10 -16 21 -37 25 -45 3 -8 14 -31 24 -50 10 -19 37 -73 60 -120 23 -47
46 -92 51 -100 5 -8 16 -31 25 -50 8 -19 20 -42 25 -50 5 -8 12 -22 15 -30 3
-8 15 -35 26 -60 11 -25 27 -61 35 -80 8 -19 19 -42 24 -50 5 -8 12 -22 15
-30 15 -39 27 -66 35 -80 12 -21 32 -64 64 -135 29 -66 68 -143 97 -190 10
-16 21 -36 24 -44 4 -7 28 -50 53 -95 47 -82 69 -126 91 -181 6 -16 18 -43 26
-58 8 -16 14 -35 14 -43 0 -8 4 -22 9 -32 5 -9 17 -37 26 -62 9 -25 21 -53 26
-62 5 -10 9 -24 9 -32 0 -8 8 -29 17 -48 30 -61 33 -68 33 -86 0 -10 7 -27 15
-38 8 -10 15 -27 15 -37 0 -9 4 -25 9 -35 5 -9 17 -37 26 -62 9 -25 21 -53 26
-62 5 -10 9 -26 9 -36 0 -9 6 -26 13 -37 7 -11 19 -40 26 -65 12 -41 31 -88
52 -132 5 -10 9 -26 9 -36 0 -10 7 -27 15 -38 8 -10 15 -29 15 -41 0 -12 5
-25 10 -28 6 -3 10 -16 10 -28 0 -12 7 -31 15 -41 8 -11 15 -30 15 -42 0 -13
5 -26 10 -29 6 -3 10 -15 10 -26 0 -11 11 -37 25 -59 14 -22 25 -43 25 -47 0
-13 110 -113 124 -113 7 0 19 -7 26 -15 7 -8 22 -15 34 -15 12 0 27 -5 32 -10
12 -12 388 -8 441 5 26 6 33 3 43 -15 9 -17 9 -25 -2 -39 -61 -84 -109 -144
-150 -186 -26 -27 -48 -54 -48 -58 0 -5 -25 -35 -55 -67 -31 -31 -66 -72 -79
-89 -13 -17 -65 -77 -117 -132 -51 -56 -105 -117 -121 -136 -60 -76 -816 -832
-850 -849 -9 -5 -43 -34 -75 -65 -32 -30 -92 -83 -133 -116 -41 -34 -88 -75
-104 -92 -17 -17 -35 -31 -40 -31 -6 0 -27 -15 -46 -33 -19 -18 -53 -46 -75
-62 -22 -16 -56 -44 -77 -63 -20 -19 -45 -39 -55 -46 -35 -20 -116 -80 -154
-113 -20 -18 -40 -33 -44 -33 -3 0 -26 -16 -49 -35 -24 -19 -48 -35 -53 -35
-6 0 -17 -7 -24 -16 -7 -9 -38 -32 -69 -51 -30 -19 -78 -53 -106 -74 -28 -22
-56 -39 -62 -39 -7 0 -12 -4 -12 -10 0 -5 -6 -10 -13 -10 -7 0 -35 -17 -63
-38 -28 -21 -66 -46 -85 -55 -46 -23 -68 -38 -102 -64 -16 -13 -34 -23 -42
-23 -7 0 -18 -7 -26 -16 -7 -9 -30 -23 -51 -31 -21 -8 -38 -19 -38 -23 0 -4
-19 -16 -42 -26 -32 -13 -38 -18 -24 -22 10 -2 31 5 47 17 15 12 33 21 38 21
6 0 70 31 143 68 120 62 149 77 198 103 8 5 31 16 50 25 19 8 42 20 50 24 8 5
35 20 60 33 25 12 72 38 105 57 93 52 198 110 223 122 12 6 22 15 22 20 0 4 7
8 15 8 15 0 25 6 102 58 18 12 35 22 38 22 3 0 48 27 101 60 52 33 97 60 100
60 3 0 29 18 59 40 30 22 57 40 61 40 4 0 22 11 40 25 18 14 37 25 42 25 4 0
19 11 32 25 13 14 28 25 33 25 10 0 211 143 364 259 32 25 60 47 63 51 3 4 31
25 62 48 31 23 59 46 63 52 4 6 30 28 58 49 126 93 566 533 655 656 16 22 42
51 57 65 15 14 45 48 65 75 21 28 66 79 99 115 33 36 61 70 61 75 0 6 23 33
51 60 28 28 64 67 79 87 15 21 61 75 102 120 42 46 102 113 134 150 74 85 867
891 1723 1753 724 729 859 869 951 990 14 18 62 78 108 134 45 56 82 104 82
107 0 4 12 21 28 38 15 17 35 43 44 56 15 21 14 17 -2 -23 -11 -27 -20 -55
-20 -63 0 -8 -11 -32 -25 -54 -14 -22 -25 -49 -25 -60 0 -11 -4 -20 -9 -20 -5
0 -18 -21 -30 -47 -11 -27 -38 -80 -60 -120 -22 -40 -47 -87 -57 -105 -9 -18
-21 -40 -25 -48 -5 -8 -18 -33 -29 -55 -11 -22 -24 -47 -29 -55 -4 -8 -12 -24
-18 -35 -5 -11 -25 -47 -43 -80 -19 -33 -45 -80 -58 -105 -13 -25 -32 -60 -42
-77 -11 -18 -33 -58 -50 -90 -32 -60 -34 -64 -87 -150 -18 -30 -33 -57 -33
-61 0 -5 -11 -19 -25 -32 -14 -13 -25 -28 -25 -34 0 -18 -41 -60 -643 -667
-952 -957 -2040 -2060 -2113 -2139 -37 -41 -156 -167 -264 -280 -109 -113
-224 -236 -257 -275 -34 -38 -77 -86 -98 -105 -20 -19 -61 -64 -90 -100 -29
-36 -72 -85 -95 -110 -23 -25 -54 -61 -68 -80 -14 -19 -51 -62 -82 -96 -30
-33 -84 -98 -120 -144 -36 -45 -79 -99 -96 -119 -17 -20 -56 -72 -87 -117 -31
-44 -63 -87 -72 -94 -8 -7 -15 -16 -15 -20 0 -4 -19 -36 -42 -70 -59 -85 -74
-110 -93 -147 -9 -18 -23 -37 -31 -44 -8 -6 -14 -15 -14 -20 0 -7 -31 -61 -78
-134 -6 -11 -14 -26 -17 -32 -12 -31 -18 -42 -55 -108 -39 -69 -142 -277 -162
-325 -6 -14 -14 -32 -19 -40 -5 -8 -12 -22 -15 -30 -3 -8 -10 -23 -15 -32 -5
-10 -9 -24 -9 -32 0 -7 -7 -19 -15 -26 -8 -7 -15 -19 -15 -27 0 -8 -11 -38
-24 -66 -13 -29 -32 -74 -41 -100 -10 -26 -22 -50 -26 -53 -5 -3 -9 -14 -9
-25 0 -19 -2 -26 -33 -87 -9 -19 -17 -42 -17 -52 0 -10 -4 -22 -10 -25 -5 -3
-10 -17 -10 -29 0 -13 -7 -29 -15 -36 -8 -7 -15 -23 -15 -36 0 -12 -4 -26 -10
-29 -6 -3 -10 -15 -10 -27 0 -11 -6 -32 -14 -46 -8 -15 -21 -49 -29 -77 -17
-55 -36 -110 -67 -195 -7 -19 -15 -47 -17 -63 -3 -15 -9 -30 -14 -33 -5 -3 -9
-18 -9 -33 0 -15 -7 -36 -15 -47 -8 -10 -15 -31 -15 -46 0 -15 -4 -30 -10 -33
-5 -3 -10 -19 -10 -34 0 -15 -7 -36 -15 -47 -14 -19 -20 -75 -9 -86 7 -7 31 6
108 57 32 22 69 47 82 55 37 24 198 134 209 143 8 6 114 73 180 114 11 7 43
24 70 39 28 14 57 32 66 40 8 8 22 14 30 14 8 0 20 5 26 11 13 13 52 34 230
122 76 38 145 73 153 78 21 12 77 38 245 114 57 26 80 36 150 65 51 21 89 37
120 50 45 19 87 37 115 48 14 5 53 22 88 36 35 14 68 26 73 26 5 0 32 11 61
25 28 14 62 25 74 25 12 0 27 7 34 15 7 8 23 15 36 15 12 0 26 4 29 10 3 5 15
10 25 10 17 0 66 18 112 41 10 5 24 9 32 9 8 0 29 8 48 17 61 31 68 33 88 33
17 0 66 18 112 41 10 5 26 9 36 9 10 0 27 7 38 15 10 8 27 15 37 15 16 0 35 8
77 32 8 4 26 13 39 19 35 14 108 94 127 138 9 20 20 43 25 51 5 8 12 22 15 30
15 36 36 79 64 125 16 28 36 64 45 82 9 18 23 37 31 44 8 6 14 16 14 21 0 5
21 39 48 76 26 36 52 74 57 83 24 42 85 127 99 138 9 8 16 17 16 22 0 5 26 43
58 85 31 42 62 84 67 93 6 9 24 34 40 55 17 22 35 48 40 57 6 9 37 52 70 94
33 43 65 87 71 97 7 11 26 35 44 53 18 18 37 42 44 53 15 26 173 229 220 282
12 14 40 50 63 80 22 30 51 64 63 75 12 11 41 45 63 75 23 30 53 69 68 85 15
17 46 54 70 82 73 87 202 238 209 243 3 3 40 46 82 95 41 50 86 99 98 110 13
11 54 57 92 103 38 46 100 115 137 155 38 40 83 90 101 112 56 67 512 525 555
557 22 16 72 60 110 96 39 37 88 81 110 97 22 16 61 47 86 70 77 66 188 155
195 155 4 0 23 15 43 33 37 32 119 93 153 113 10 6 29 21 42 33 12 11 27 21
32 21 5 0 21 11 36 25 15 14 30 25 33 25 9 0 129 84 133 93 2 4 8 7 14 7 6 0
26 11 44 25 18 14 36 25 39 25 3 0 21 11 39 25 18 14 36 25 40 25 4 0 22 11
40 25 18 14 38 25 44 25 7 0 12 4 12 9 0 5 29 24 65 43 36 18 65 36 65 40 0 5
9 8 19 8 11 0 23 5 26 11 4 5 17 14 28 19 12 6 40 21 62 35 22 14 47 27 55 31
8 3 22 10 30 15 8 5 33 18 55 29 22 11 47 24 55 29 8 5 51 26 95 46 44 21 87
41 95 46 8 5 22 12 30 15 22 8 60 24 95 39 17 7 44 18 60 25 55 23 100 42 117
51 10 5 28 9 42 9 13 0 29 7 36 15 7 8 23 15 36 15 12 0 26 5 29 10 3 5 19 10
34 10 15 0 36 7 47 15 10 8 31 15 46 15 15 0 30 5 33 10 3 6 21 10 39 10 17 0
37 5 44 12 10 10 41 18 152 37 25 4 55 13 67 19 12 7 42 12 67 12 25 0 48 5
51 10 3 5 33 10 65 10 32 0 71 5 87 12 48 20 245 30 603 30 347 0 553 -9 579
-26 7 -5 50 -12 95 -17 128 -13 199 -25 229 -37 16 -7 46 -12 67 -12 21 0 42
-4 45 -10 3 -5 23 -10 43 -10 20 -1 48 -7 62 -15 14 -8 39 -14 57 -15 17 0 35
-4 38 -10 3 -5 21 -10 38 -10 18 0 41 -7 51 -15 11 -8 34 -15 52 -15 18 0 36
-4 39 -10 3 -5 16 -10 29 -10 12 0 31 -7 42 -15 10 -8 29 -15 42 -15 12 0 30
-4 40 -9 9 -5 37 -17 62 -26 84 -32 95 -37 123 -51 16 -8 35 -14 42 -14 8 0
35 -11 61 -25 26 -14 54 -25 63 -26 9 0 30 -9 46 -20 17 -10 37 -21 45 -25 8
-3 35 -16 60 -28 94 -48 127 -39 55 14 -76 56 -151 115 -175 137 -14 13 -30
23 -36 23 -6 0 -21 11 -34 25 -13 14 -28 25 -34 25 -6 0 -23 11 -38 25 -15 14
-30 25 -34 25 -4 0 -22 11 -40 25 -18 14 -36 25 -40 25 -4 0 -22 11 -40 25
-18 14 -37 25 -42 25 -5 0 -15 6 -21 14 -7 8 -35 26 -64 41 -29 14 -68 35 -87
47 -58 34 -153 86 -190 103 -19 9 -42 21 -50 26 -8 4 -31 16 -50 25 -19 8 -42
20 -50 25 -8 5 -22 12 -30 15 -8 3 -39 17 -68 30 -29 13 -59 24 -67 24 -8 0
-15 5 -15 10 0 6 -7 10 -15 10 -13 0 -65 20 -107 41 -10 5 -26 9 -36 9 -10 0
-27 7 -38 15 -10 8 -29 15 -41 15 -12 0 -25 5 -28 10 -3 6 -18 10 -33 10 -15
0 -36 6 -47 14 -11 7 -33 16 -50 19 -16 3 -50 10 -75 15 -25 4 -55 14 -67 20
-12 7 -40 12 -62 12 -22 0 -43 5 -46 10 -3 6 -28 10 -55 10 -27 0 -75 7 -107
15 -33 9 -101 15 -159 15 -97 0 -102 1 -118 25 -10 15 -16 46 -16 83 0 33 -7
76 -15 95 -8 20 -15 51 -15 68 0 31 -8 64 -33 133 -14 38 -52 82 -101 117
l-39 29 -196 -1 c-108 0 -218 -5 -246 -10 -27 -6 -90 -14 -140 -19 -176 -19
-200 -22 -220 -36 -11 -8 -34 -14 -52 -14 -17 0 -35 -5 -38 -10 -3 -6 -21 -10
-38 -10 -18 0 -41 -7 -51 -15 -11 -8 -30 -15 -42 -15 -13 0 -26 -4 -29 -10 -3
-5 -16 -10 -29 -10 -12 0 -31 -7 -42 -15 -10 -8 -27 -15 -37 -15 -17 0 -25 -3
-84 -34 -17 -9 -36 -16 -43 -16 -10 0 -146 -61 -180 -81 -15 -8 -60 -30 -90
-43 -8 -4 -33 -17 -55 -29 -139 -77 -180 -102 -183 -109 -2 -4 -10 -8 -17 -8
-7 0 -27 -11 -43 -25 -17 -14 -33 -25 -37 -25 -5 0 -23 -11 -41 -25 -18 -14
-37 -25 -42 -25 -4 0 -19 -11 -32 -25 -13 -14 -28 -25 -34 -25 -6 0 -23 -11
-38 -25 -15 -14 -30 -25 -34 -25 -7 0 -104 -72 -164 -121 -19 -16 -80 -65
-135 -110 -55 -45 -143 -121 -195 -169 -178 -163 -181 -166 -199 -132 -13 24
7 46 159 183 63 57 124 113 135 124 28 28 200 170 276 228 135 102 238 177
244 177 4 0 21 11 38 24 33 25 211 137 237 149 8 4 29 15 45 25 25 15 135 76
204 112 9 5 37 18 64 29 96 42 133 59 190 85 32 14 64 26 72 26 7 0 17 5 20
10 3 6 16 10 28 10 12 0 31 7 41 15 11 8 30 15 42 15 13 0 26 5 29 10 3 6 15
10 25 10 17 0 34 6 120 44 102 44 233 182 289 301 12 28 29 63 37 78 18 37 18
127 0 164 -8 15 -20 42 -26 58 -7 17 -16 37 -21 45 -5 8 -18 33 -29 55 -11 22
-33 63 -49 90 -17 28 -38 66 -47 85 -10 19 -27 49 -38 65 -29 41 -45 67 -53
85 -4 8 -22 38 -40 67 -18 29 -33 57 -33 63 0 5 -4 10 -9 10 -13 0 -41 -40
-41 -58 0 -11 -29 -62 -78 -138 -6 -10 -15 -26 -19 -34 -3 -8 -55 -82 -115
-165 -100 -138 -157 -210 -227 -290 -14 -16 -61 -70 -103 -120 -93 -110 -314
-327 -425 -420 -46 -37 -83 -72 -83 -77 0 -4 -7 -8 -15 -8 -8 0 -23 -9 -34
-21 -11 -12 -43 -32 -71 -45 l-52 -24 27 33 c37 44 145 165 230 257 39 42 99
114 135 159 36 46 80 100 98 121 17 20 32 41 32 45 0 4 12 22 28 40 15 17 53
67 84 111 31 43 68 93 82 109 14 17 26 35 26 41 0 6 7 18 16 25 9 8 28 31 42
53 13 22 35 51 48 65 13 14 24 31 24 37 0 6 7 18 16 25 9 8 28 31 42 53 13 22
33 49 43 60 11 11 19 25 19 31 0 7 10 20 21 31 12 10 25 28 30 39 5 11 13 27
17 35 28 48 32 67 32 133 0 49 -7 90 -21 127 -27 73 -39 114 -49 179 -5 29
-14 67 -21 83 -7 18 -8 33 -2 39 9 9 69 -41 260 -216 39 -36 91 -80 114 -97
24 -17 55 -42 69 -55 14 -13 30 -23 36 -23 6 0 21 -11 34 -25 13 -14 28 -25
33 -25 6 0 24 -10 41 -23 17 -12 45 -28 61 -36 17 -7 37 -17 45 -22 8 -5 22
-12 30 -15 8 -3 23 -10 32 -15 10 -5 26 -9 35 -9 10 0 27 -7 37 -15 11 -8 32
-15 47 -15 15 0 31 -4 34 -10 3 -5 19 -10 34 -10 16 0 42 -7 57 -15 16 -8 48
-15 71 -15 23 0 45 -4 48 -10 3 -5 32 -10 64 -10 32 0 62 -5 69 -12 16 -16
422 -25 422 -10 0 5 -26 17 -57 27 -32 9 -66 21 -75 26 -10 5 -24 9 -32 9 -8
0 -27 6 -43 14 -15 8 -39 18 -53 24 -56 20 -245 112 -315 152 -27 16 -64 36
-82 45 -18 9 -37 23 -44 31 -6 8 -16 14 -22 14 -5 0 -25 11 -43 25 -18 14 -37
25 -42 25 -4 0 -19 11 -32 25 -13 14 -28 25 -34 25 -6 0 -22 10 -36 23 -14 13
-44 37 -66 53 -128 92 -501 465 -566 564 -9 14 -24 34 -35 45 -10 11 -32 38
-48 60 -16 22 -79 92 -140 155 -88 91 -118 131 -147 190 -72 150 -79 177 -85
335 -4 109 1 175 15 175 4 0 18 -16 32 -36 74 -104 134 -176 211 -253 79 -79
177 -161 194 -161 4 0 20 -11 37 -25 16 -14 36 -25 44 -25 8 0 14 -4 14 -10 0
-5 8 -10 19 -10 10 0 24 -7 31 -15 7 -8 18 -15 24 -15 7 0 34 -10 62 -23 27
-13 69 -29 94 -36 25 -7 56 -18 70 -24 31 -13 96 -26 180 -37 36 -4 85 -13
110 -19 52 -13 347 -11 315 2 -11 5 -32 15 -47 23 -14 8 -34 14 -44 14 -22 0
-81 18 -117 36 -16 8 -35 14 -43 14 -8 0 -22 4 -32 9 -9 4 -35 16 -57 26 -83
36 -176 87 -238 131 -26 19 -50 34 -55 34 -4 0 -43 34 -87 76 -81 76 -80 86 5
45 57 -28 153 -73 175 -81 11 -4 40 -15 65 -25 25 -9 53 -21 62 -26 10 -5 26
-9 36 -9 10 0 27 -7 38 -15 10 -8 33 -15 51 -15 17 0 35 -4 38 -10 3 -5 18
-10 33 -10 15 -1 38 -7 52 -15 14 -8 43 -14 66 -15 22 0 44 -4 50 -9 5 -5 36
-11 69 -14 33 -2 78 -9 100 -15 51 -15 531 -15 600 -1 28 6 82 14 120 19 154
20 191 26 212 38 12 7 35 12 52 12 16 0 33 5 36 10 3 6 18 10 33 10 15 1 38 7
52 15 14 8 32 14 41 15 18 0 69 22 109 46 l25 16 -25 -8 c-46 -13 -279 -16
-313 -4 -18 7 -57 16 -87 20 -83 13 -184 45 -300 98 -25 11 -52 23 -60 26 -8
4 -24 12 -35 19 -11 7 -43 25 -70 42 -84 50 -89 53 -122 70 -18 9 -37 23 -44
31 -6 8 -16 14 -22 14 -5 0 -25 11 -43 25 -18 14 -36 25 -39 25 -3 0 -21 11
-39 25 -18 14 -38 25 -44 25 -7 0 -12 3 -12 8 0 4 -30 25 -66 47 -36 22 -79
52 -97 67 -18 15 -37 28 -43 28 -6 0 -21 11 -34 25 -13 14 -28 25 -34 25 -6 0
-29 16 -51 35 -22 19 -45 35 -51 35 -6 0 -19 10 -30 21 -10 12 -35 32 -54 44
-19 13 -44 31 -55 41 -21 20 -112 92 -167 132 -17 12 -65 53 -106 90 -41 37
-85 74 -98 82 -28 19 -249 236 -394 387 -108 113 -220 245 -220 261 0 5 -9 17
-21 28 -19 17 -74 93 -104 142 -5 9 -20 30 -32 45 -13 16 -23 35 -23 43 0 8
-4 14 -9 14 -5 0 -11 8 -14 18 -3 9 -19 40 -36 67 -16 28 -48 88 -71 135 -23
47 -46 92 -51 100 -5 8 -12 22 -15 30 -3 8 -10 23 -15 32 -5 10 -9 26 -9 37 0
10 -7 24 -15 31 -8 7 -15 21 -15 31 0 10 -4 21 -10 24 -5 3 -10 18 -10 33 0
15 -7 36 -15 46 -8 11 -15 30 -15 42 0 13 -4 26 -10 29 -5 3 -10 21 -10 39 0
18 -7 41 -15 52 -8 10 -15 31 -15 46 0 15 -4 30 -10 33 -5 3 -10 13 -10 21 0
44 -154 174 -207 174 -8 0 -36 7 -62 15 -25 8 -58 17 -72 20 -38 7 -76 41 -95
83 -8 20 -20 44 -25 52 -5 8 -12 22 -15 30 -8 22 -24 60 -39 95 -20 50 -32 78
-50 125 -25 66 -36 91 -50 125 -7 17 -17 41 -22 55 -6 14 -18 43 -28 66 -9 23
-17 56 -18 74 -2 32 5 38 114 119 181 134 232 173 258 197 13 13 39 31 58 41
54 29 53 49 -8 104 -30 27 -59 48 -64 49 -6 0 -29 18 -50 40 -21 22 -43 40
-48 40 -5 0 -27 16 -50 35 -22 19 -46 35 -52 35 -7 0 -20 9 -31 21 -10 12 -31
27 -46 35 -14 7 -32 19 -40 26 -7 7 -42 32 -78 55 -36 24 -70 47 -76 52 -6 5
-26 17 -45 26 -19 10 -48 28 -66 41 -17 13 -38 24 -46 24 -8 0 -20 6 -26 14
-7 8 -35 26 -64 41 -29 14 -68 35 -87 47 -19 11 -71 39 -115 61 -44 22 -93 47
-110 55 -40 21 -54 27 -90 42 -16 7 -37 16 -45 21 -8 5 -22 12 -30 15 -55 21
-128 53 -152 65 -10 5 -26 9 -35 9 -10 0 -27 7 -37 15 -11 8 -28 15 -38 15
-18 0 -25 3 -86 33 -19 9 -42 17 -53 17 -11 0 -27 4 -37 9 -32 16 -87 33 -120
38 -18 3 -35 9 -38 14 -3 5 -20 9 -38 9 -17 0 -37 5 -44 12 -6 6 -31 15 -57
20 -114 21 -131 25 -152 36 -12 7 -40 12 -62 12 -22 0 -43 5 -46 10 -3 6 -27
10 -53 10 -26 1 -58 7 -72 15 -14 8 -51 14 -83 15 -32 0 -66 4 -75 9 -20 10
-302 19 -452 14z m191 -3024 c-24 -10 -57 -25 -75 -33 -17 -8 -40 -16 -51 -19
-11 -3 -58 -20 -105 -37 -47 -17 -95 -34 -108 -37 -12 -3 -25 -9 -28 -14 -3
-5 -15 -9 -28 -9 -12 0 -31 -7 -42 -15 -10 -8 -29 -15 -41 -15 -12 0 -25 -4
-28 -10 -3 -5 -16 -10 -28 -10 -12 0 -31 -7 -41 -15 -11 -8 -28 -15 -38 -15
-18 0 -25 -3 -86 -33 -19 -9 -42 -17 -53 -17 -19 0 -27 -3 -86 -34 -17 -9 -40
-16 -51 -16 -12 0 -24 -4 -27 -10 -3 -5 -16 -10 -29 -10 -12 0 -31 -7 -42 -15
-10 -8 -29 -15 -41 -15 -12 0 -25 -4 -28 -10 -3 -5 -16 -10 -29 -10 -12 0 -31
-7 -42 -15 -10 -8 -27 -15 -37 -15 -17 0 -24 -3 -85 -33 -19 -9 -42 -17 -53
-17 -11 0 -27 -4 -37 -9 -42 -22 -91 -41 -144 -56 -32 -9 -60 -21 -64 -26 -3
-5 -16 -9 -29 -9 -13 0 -27 -4 -30 -10 -3 -5 -15 -10 -25 -10 -11 0 -36 -7
-57 -16 -45 -20 -65 -27 -118 -44 -22 -7 -53 -18 -70 -25 -68 -28 -111 -44
-137 -49 -14 -3 -34 -9 -45 -12 -37 -12 142 103 242 155 22 11 48 25 58 31 43
25 92 50 127 64 8 3 22 10 30 15 8 5 31 16 50 24 19 8 55 24 80 35 25 11 52
23 60 26 8 3 22 10 30 14 41 24 61 32 77 32 10 0 27 7 37 15 11 8 28 15 38 15
18 0 26 3 85 34 17 9 40 16 51 16 12 0 24 5 27 10 3 6 15 10 27 10 11 0 32 6
46 14 15 8 47 19 72 26 25 6 59 18 75 25 17 7 44 16 60 20 79 16 102 22 122
33 12 7 33 12 47 12 14 0 28 5 31 10 3 6 21 10 38 10 18 0 41 6 52 14 11 7 38
16 60 19 93 14 251 50 261 60 4 4 30 7 58 8 28 0 69 4 91 8 65 14 73 11 26
-10z m3078 -2079 c-5 -52 -14 -153 -19 -225 -13 -183 -26 -301 -34 -314 -4 -6
-11 -50 -16 -99 -14 -137 -27 -218 -35 -231 -4 -7 -11 -37 -16 -67 -5 -30 -13
-78 -18 -108 -5 -29 -14 -63 -20 -74 -6 -11 -11 -34 -11 -51 0 -16 -4 -33 -10
-36 -5 -3 -10 -18 -10 -33 -1 -15 -7 -38 -15 -52 -8 -14 -14 -35 -15 -48 0
-12 -4 -30 -9 -40 -20 -40 -41 -94 -41 -105 0 -8 -11 -37 -25 -65 -14 -29 -25
-58 -25 -66 0 -8 -11 -34 -25 -57 -14 -24 -25 -54 -25 -65 0 -12 -7 -27 -15
-34 -8 -6 -31 -46 -52 -87 -20 -41 -40 -76 -44 -79 -8 -5 26 114 47 164 8 18
14 43 14 55 0 13 4 27 9 33 4 5 15 32 24 59 8 28 25 79 37 115 12 36 24 82 27
103 3 20 9 40 14 43 5 3 9 17 9 32 0 15 7 40 15 56 8 15 15 43 15 62 0 18 5
36 10 39 6 3 10 21 10 38 0 18 7 45 15 61 8 15 15 43 15 62 0 18 5 36 10 39 6
3 10 25 10 48 1 23 7 53 15 67 8 14 14 44 15 67 0 23 5 45 10 48 6 3 10 21 10
40 0 19 5 46 11 62 11 29 24 92 38 198 5 33 14 73 20 88 6 16 11 45 11 64 0
20 4 50 10 67 9 29 40 188 55 284 12 75 15 40 4 -58z m-2612 -967 c-25 -32
-54 -68 -66 -80 -29 -30 -258 -223 -266 -223 -11 0 -125 -84 -125 -92 0 -4 -7
-8 -16 -8 -8 0 -30 -11 -48 -25 -18 -14 -37 -25 -43 -25 -5 0 -20 -11 -33 -25
-13 -14 -30 -25 -38 -25 -8 0 -29 -11 -46 -24 -17 -13 -41 -26 -52 -30 -12 -3
-29 -15 -39 -26 -10 -11 -26 -20 -35 -20 -10 0 -22 -6 -29 -13 -6 -8 -35 -26
-66 -41 -30 -16 -55 -32 -55 -37 0 -5 -8 -9 -18 -9 -9 0 -34 -11 -54 -25 -20
-14 -40 -25 -44 -25 -4 0 -22 -11 -40 -25 -18 -14 -39 -25 -47 -25 -8 0 -19
-6 -26 -13 -6 -8 -35 -26 -66 -41 -30 -16 -55 -32 -55 -37 0 -5 -9 -9 -19 -9
-11 0 -22 -4 -25 -9 -6 -8 -126 -80 -151 -90 -5 -2 -23 -13 -40 -25 -16 -12
-39 -26 -50 -32 -68 -36 -122 -68 -136 -80 -8 -8 -19 -14 -24 -14 -4 0 -23
-11 -41 -25 -18 -14 -38 -25 -45 -25 -7 0 -33 -12 -58 -26 l-46 -27 52 52 c28
28 56 51 62 51 5 0 14 6 18 14 4 7 26 25 48 39 22 14 80 53 129 86 48 33 96
63 106 66 9 3 25 14 35 25 10 11 22 20 28 20 5 0 23 10 40 23 18 12 48 30 67
39 19 10 53 28 75 41 107 62 209 119 278 155 26 14 47 29 47 33 0 5 8 9 18 9
10 0 27 6 38 14 11 8 43 27 70 42 81 44 88 48 121 72 17 12 38 22 46 22 8 0
26 11 41 25 15 14 32 25 38 25 6 0 26 11 44 25 18 14 37 25 42 25 5 0 17 9 27
20 10 11 37 29 60 40 23 11 60 36 82 55 23 19 46 35 51 35 5 0 16 7 23 17 8 9
26 24 41 33 25 15 93 71 158 130 48 43 92 80 97 80 2 0 -16 -26 -40 -57z"/>
<path d="M6655 16640 c-3 -5 -1 -10 4 -10 6 0 11 5 11 10 0 6 -2 10 -4 10 -3
0 -8 -4 -11 -10z"/>
<path d="M7311 12835 c-18 -8 -44 -15 -57 -15 -12 0 -26 -4 -29 -10 -3 -5 -19
-10 -34 -10 -16 0 -34 -7 -41 -15 -7 -8 -21 -15 -31 -15 -11 0 -27 -4 -37 -9
-9 -5 -44 -22 -77 -37 -33 -16 -89 -45 -124 -66 -34 -21 -67 -38 -72 -38 -5 0
-9 -4 -9 -8 0 -5 -12 -14 -26 -20 -14 -7 -58 -36 -98 -65 -39 -28 -79 -56 -88
-62 -25 -16 -132 -98 -146 -112 -8 -8 -26 -20 -40 -27 -15 -8 -36 -23 -46 -35
-11 -12 -23 -21 -28 -21 -5 0 -28 -15 -51 -32 -23 -18 -49 -37 -58 -43 -19
-12 -98 -70 -116 -85 -7 -5 -15 -10 -19 -10 -4 0 -22 -11 -40 -25 -18 -14 -36
-25 -40 -25 -4 0 -15 -6 -23 -14 -21 -19 -249 -136 -264 -136 -7 0 -25 -12
-40 -26 l-28 -26 27 -36 c43 -59 84 -100 164 -164 65 -53 112 -80 225 -128 57
-24 120 -33 240 -33 124 0 207 11 227 31 7 7 20 12 30 12 10 0 26 4 36 9 18 9
69 31 117 51 17 7 37 16 45 21 8 5 22 12 30 15 24 10 74 34 90 44 8 4 51 25
95 45 151 69 170 80 170 100 0 40 -121 44 -175 5 -15 -11 -35 -20 -43 -20 -8
0 -31 -11 -51 -25 -20 -14 -40 -25 -43 -25 -4 0 -26 -10 -50 -21 -24 -12 -46
-19 -49 -17 -2 3 10 22 27 44 36 45 109 94 142 94 12 0 43 11 69 25 26 14 64
25 85 25 21 1 49 7 63 15 14 8 37 14 52 15 15 0 30 5 33 10 3 6 21 10 38 10
18 1 43 7 57 15 14 8 39 14 56 15 16 0 34 4 40 9 5 5 27 11 49 14 22 3 58 12
80 20 51 19 120 76 107 89 -19 19 -416 -7 -459 -30 -12 -7 -34 -12 -49 -12
-35 0 -75 -12 -229 -71 -61 -23 -62 -23 -43 -1 9 9 17 22 19 29 5 16 118 105
204 162 39 25 72 49 73 54 2 4 12 7 22 7 10 0 22 4 25 10 5 8 36 24 85 44 8 3
22 10 30 15 8 5 29 14 45 21 17 7 44 18 60 25 51 21 100 35 124 35 13 0 37 6
54 14 18 8 52 17 77 20 129 14 188 33 270 86 46 30 55 40 55 65 0 28 -3 30
-42 36 -23 3 -47 10 -55 16 -7 6 -28 13 -45 17 -18 3 -47 9 -64 12 -21 5 -54
31 -102 80 -39 41 -77 74 -83 74 -6 0 -17 7 -24 15 -17 21 -220 21 -269 0z"/>
<path d="M13950 8439 c-25 -6 -83 -13 -130 -16 -47 -2 -89 -9 -94 -14 -6 -5
-32 -9 -59 -9 -26 0 -58 -5 -70 -12 -12 -7 -44 -15 -72 -19 -100 -15 -146 -26
-157 -37 -7 -7 -29 -12 -49 -12 -21 0 -41 -4 -44 -10 -3 -5 -19 -10 -34 -10
-16 0 -34 -7 -41 -15 -7 -8 -25 -15 -41 -15 -15 0 -31 -4 -34 -10 -3 -5 -19
-10 -34 -10 -16 0 -34 -7 -41 -15 -7 -8 -23 -15 -36 -15 -14 0 -32 -4 -42 -9
-17 -9 -62 -28 -117 -51 -16 -7 -43 -18 -60 -25 -16 -7 -43 -18 -60 -25 -16
-7 -37 -16 -45 -21 -8 -5 -22 -12 -30 -15 -8 -3 -23 -10 -32 -15 -10 -5 -25
-9 -33 -9 -8 0 -15 -4 -15 -8 0 -5 -17 -15 -37 -24 -21 -8 -45 -18 -53 -22 -8
-3 -28 -15 -45 -25 -16 -11 -37 -20 -46 -20 -9 -1 -19 -8 -23 -16 -3 -8 -12
-15 -20 -15 -15 0 -128 -63 -157 -87 -8 -7 -23 -13 -32 -13 -9 0 -17 -4 -17
-10 0 -5 -5 -10 -11 -10 -6 0 -25 -10 -42 -22 -35 -26 -57 -39 -104 -63 -18
-9 -37 -23 -44 -31 -6 -8 -16 -14 -21 -14 -6 0 -24 -10 -41 -22 -35 -26 -49
-35 -97 -62 -18 -10 -45 -29 -59 -42 -14 -13 -31 -24 -37 -24 -6 0 -21 -11
-34 -25 -13 -14 -28 -25 -34 -25 -6 0 -29 -16 -51 -35 -22 -19 -45 -35 -51
-35 -6 0 -21 -12 -35 -26 -13 -15 -42 -38 -64 -52 -22 -14 -56 -40 -75 -59
-19 -18 -39 -33 -43 -33 -4 0 -29 -19 -55 -43 -26 -24 -58 -51 -71 -60 -13 -8
-58 -46 -99 -84 -41 -37 -87 -77 -102 -88 -62 -46 -536 -507 -680 -661 -35
-38 -108 -115 -162 -171 -90 -93 -112 -123 -90 -123 5 0 19 11 32 25 13 14 31
25 40 25 9 0 27 12 41 26 13 15 42 38 63 51 22 14 51 36 65 49 14 13 31 24 37
24 6 0 19 9 29 20 11 12 36 31 57 42 21 12 38 25 38 30 0 4 5 8 10 8 12 0 133
81 138 93 2 4 10 7 17 7 7 0 26 10 42 23 35 28 53 38 131 79 34 18 62 36 62
40 0 5 9 8 19 8 11 0 22 4 25 9 3 5 29 21 58 36 29 15 60 33 69 41 8 8 23 14
32 14 9 0 19 4 22 10 5 8 32 22 85 44 8 3 29 15 45 25 17 11 36 20 43 20 6 1
35 12 64 26 28 14 57 25 64 25 6 0 17 7 24 15 7 8 21 15 31 15 11 0 19 5 19
10 0 6 8 10 19 10 10 0 39 11 65 25 26 14 55 25 65 25 10 0 24 7 31 15 7 8 23
15 36 15 12 0 26 5 29 10 3 6 15 10 25 10 10 0 33 8 52 17 62 31 68 33 90 33
13 0 32 7 42 15 11 8 30 15 42 15 13 0 26 5 29 10 3 6 18 10 33 10 15 1 38 7
52 15 14 8 37 14 52 15 15 0 30 5 33 10 3 6 21 10 38 10 18 0 41 7 51 15 11 8
34 15 52 15 18 0 36 5 39 10 3 6 25 10 48 10 23 1 53 7 67 15 14 8 44 14 67
15 23 0 45 5 48 10 3 6 28 10 55 10 27 0 61 5 77 11 33 14 137 26 323 39 74 5
167 13 205 19 90 14 183 14 265 0 36 -6 126 -15 200 -20 185 -12 280 -23 313
-37 16 -7 48 -12 72 -12 24 0 47 -4 50 -10 3 -5 22 -10 41 -10 20 0 45 -5 57
-12 12 -6 42 -16 67 -20 25 -5 59 -12 75 -15 17 -3 39 -12 50 -19 11 -8 32
-14 47 -14 15 0 30 -4 33 -10 3 -5 16 -10 28 -10 12 0 31 -7 41 -15 11 -8 28
-15 38 -15 10 0 26 -4 36 -9 9 -5 37 -17 62 -26 25 -10 70 -29 100 -42 30 -14
66 -30 80 -35 14 -6 32 -14 40 -19 8 -5 22 -12 30 -15 49 -20 80 -36 85 -44 3
-6 12 -10 19 -10 7 0 51 -22 97 -48 46 -26 100 -56 119 -65 40 -20 63 -33 105
-63 17 -11 46 -28 65 -37 19 -10 53 -29 75 -43 22 -13 51 -30 65 -37 14 -6 30
-15 35 -20 24 -19 145 -87 154 -87 14 0 14 27 1 35 -5 3 -10 17 -10 30 0 13
-5 27 -10 30 -6 4 -20 25 -33 47 -12 22 -26 48 -32 57 -5 9 -21 34 -34 56 -14
22 -28 42 -32 45 -3 3 -13 19 -22 35 -8 17 -27 41 -41 54 -14 14 -26 30 -26
36 0 6 -8 20 -18 31 -10 11 -39 45 -63 76 -176 225 -444 498 -719 733 -168
144 -217 197 -225 243 -8 51 0 80 28 93 22 9 40 20 90 52 15 10 34 35 43 55
16 38 13 59 -19 145 -15 42 -87 110 -132 126 -50 16 -488 24 -555 10z"/>
<path d="M13535 6960 c-11 -5 -66 -9 -121 -9 -63 -1 -118 -7 -144 -16 -23 -8
-66 -15 -96 -15 -29 0 -56 -4 -59 -10 -3 -5 -27 -10 -53 -10 -26 -1 -58 -7
-72 -15 -14 -8 -44 -14 -67 -15 -23 0 -45 -4 -48 -10 -3 -5 -21 -10 -38 -10
-18 0 -41 -6 -52 -14 -11 -7 -33 -16 -50 -19 -16 -4 -46 -9 -65 -13 -19 -4
-44 -13 -55 -20 -11 -8 -29 -14 -42 -14 -12 0 -25 -4 -28 -10 -3 -5 -19 -10
-34 -10 -16 0 -34 -7 -41 -15 -7 -8 -23 -15 -36 -15 -12 0 -26 -4 -29 -10 -3
-5 -15 -10 -25 -10 -10 0 -31 -6 -47 -14 -15 -8 -39 -18 -53 -24 -14 -5 -42
-17 -63 -26 -21 -9 -44 -16 -52 -16 -8 0 -15 -4 -15 -10 0 -5 -6 -10 -14 -10
-8 0 -27 -6 -43 -14 -15 -8 -41 -20 -58 -26 -16 -7 -37 -16 -45 -21 -8 -5 -22
-12 -30 -15 -8 -3 -23 -10 -32 -15 -10 -5 -25 -9 -33 -9 -8 0 -15 -4 -15 -8 0
-5 -19 -16 -42 -26 -24 -9 -50 -21 -58 -26 -8 -5 -31 -17 -50 -26 -19 -8 -42
-20 -50 -25 -8 -5 -34 -18 -57 -29 -23 -11 -45 -24 -48 -30 -3 -5 -13 -10 -20
-10 -8 0 -39 -16 -69 -35 -30 -19 -59 -35 -64 -35 -5 0 -15 -7 -22 -15 -7 -8
-21 -15 -31 -15 -11 0 -19 -4 -19 -8 0 -5 -15 -16 -32 -26 -44 -23 -68 -37
-103 -62 -17 -11 -37 -24 -45 -28 -24 -11 -52 -28 -114 -71 -32 -22 -72 -48
-88 -58 -16 -9 -54 -36 -85 -60 -30 -23 -65 -47 -77 -54 -11 -7 -39 -28 -61
-47 -22 -20 -45 -36 -51 -36 -6 0 -19 -10 -30 -21 -10 -12 -44 -40 -74 -62
-30 -23 -61 -47 -69 -55 -8 -7 -37 -31 -65 -52 -28 -20 -62 -50 -76 -65 -14
-15 -56 -53 -95 -84 -139 -111 -592 -576 -734 -754 -18 -23 -50 -62 -71 -87
-56 -65 -123 -149 -140 -175 -8 -12 -31 -41 -50 -64 -18 -24 -39 -51 -45 -61
-5 -10 -28 -42 -51 -71 -22 -30 -65 -90 -94 -134 -30 -44 -57 -82 -61 -85 -8
-6 -109 -170 -109 -176 0 -3 -10 -20 -23 -37 -30 -43 -43 -65 -67 -112 -11
-22 -24 -47 -29 -55 -5 -8 -17 -31 -25 -50 -9 -19 -21 -42 -25 -50 -5 -8 -17
-31 -25 -50 -9 -19 -21 -42 -25 -50 -5 -8 -17 -31 -25 -50 -9 -19 -21 -42 -25
-50 -5 -8 -17 -31 -25 -50 -9 -19 -20 -42 -25 -50 -5 -8 -14 -28 -21 -45 -7
-16 -16 -37 -21 -45 -10 -17 -30 -59 -72 -150 -71 -155 -119 -256 -128 -270
-5 -8 -12 -22 -15 -30 -3 -8 -35 -73 -70 -144 -36 -71 -62 -131 -59 -134 3 -3
13 2 23 11 10 10 22 17 26 17 4 0 26 16 49 35 22 19 46 35 52 35 6 0 22 11 35
25 13 14 28 25 32 25 5 0 40 25 76 55 123 100 134 109 176 137 22 16 55 38 71
51 124 92 217 159 254 182 9 6 46 31 83 58 37 26 71 47 74 47 3 0 37 23 75 50
38 28 71 50 74 50 2 0 29 16 59 35 30 19 59 35 64 35 5 0 15 6 21 14 7 8 26
22 44 30 18 9 50 28 72 42 22 13 49 29 60 34 11 6 34 19 50 30 17 10 50 29 75
43 25 13 64 34 88 46 23 13 45 27 48 32 3 5 14 9 25 9 10 0 19 5 19 10 0 6 9
10 19 10 11 0 22 4 25 9 7 11 468 241 483 241 6 0 16 7 23 15 7 8 21 15 31 15
11 0 19 5 19 10 0 6 8 10 17 10 16 0 103 38 143 61 8 5 22 12 30 15 35 13 95
39 155 64 47 20 88 37 120 50 17 6 43 18 58 26 16 8 35 14 43 14 8 0 22 4 32
9 9 5 35 17 57 26 22 10 48 22 57 26 10 5 26 9 35 9 10 0 27 7 37 15 11 8 30
15 43 15 13 0 23 5 23 10 0 6 11 10 24 10 13 0 39 8 58 17 61 30 68 33 85 33
10 0 27 7 37 15 11 8 30 15 42 15 13 0 26 5 29 10 3 6 19 10 34 10 16 0 34 7
41 15 7 8 25 15 41 15 15 0 31 5 34 10 3 6 16 10 29 10 12 0 31 7 42 15 10 8
31 15 46 15 15 0 30 5 33 10 3 6 19 10 34 10 16 0 34 7 41 15 7 8 26 15 42 15
l30 0 -26 -31 c-14 -17 -26 -35 -26 -40 0 -5 -6 -9 -12 -9 -7 0 -83 -68 -168
-150 -122 -117 -152 -151 -143 -161 14 -14 70 -1 126 27 16 8 37 14 47 14 10
0 22 5 25 10 3 6 16 10 29 10 12 0 31 7 42 15 10 8 29 15 41 15 12 0 25 5 28
10 3 6 16 10 28 10 12 0 31 7 41 15 11 8 30 15 42 15 13 0 26 5 29 10 3 6 15
10 27 10 11 0 34 7 51 16 60 32 67 34 91 34 13 0 29 7 36 15 7 8 25 15 41 15
16 0 29 5 29 10 0 6 12 10 28 10 15 0 36 7 46 15 11 8 30 15 42 15 13 0 26 5
29 10 3 6 19 10 34 10 16 0 34 7 41 15 7 8 25 15 41 15 15 0 31 5 34 10 3 6
18 10 33 10 15 0 36 7 46 15 11 8 32 15 47 15 15 0 31 5 34 10 3 6 19 10 34
10 15 0 36 7 47 15 10 8 33 15 51 15 17 0 35 4 38 10 3 6 23 10 43 10 20 1 48
7 62 15 14 8 44 14 67 15 23 0 45 5 48 10 3 6 31 10 60 10 30 0 74 6 97 14
112 37 654 37 751 0 20 -8 60 -14 87 -14 27 0 52 -4 55 -10 3 -5 25 -10 49
-10 23 0 51 -7 62 -15 10 -8 33 -15 51 -15 17 0 35 -4 38 -10 3 -5 19 -10 34
-10 15 0 36 -7 47 -15 10 -8 28 -15 40 -15 11 0 44 -11 72 -25 29 -14 56 -25
62 -25 6 0 18 -4 28 -9 9 -5 33 -16 52 -24 103 -46 267 -132 291 -153 8 -8 22
-14 31 -14 8 0 25 -11 38 -25 13 -14 28 -25 33 -25 6 0 25 -11 43 -25 18 -14
37 -25 42 -25 4 0 19 -11 32 -25 13 -14 28 -25 33 -25 6 0 25 -11 43 -25 18
-14 37 -25 42 -25 5 0 17 -9 27 -20 9 -10 55 -44 101 -75 46 -31 86 -61 90
-66 3 -5 15 -9 27 -9 l22 0 -3 222 c-2 123 -7 236 -12 252 -6 16 -10 77 -10
135 0 58 -5 124 -12 146 -10 37 -15 82 -35 305 -5 47 -12 92 -18 100 -5 8 -13
47 -17 85 -20 189 -24 215 -36 227 -7 7 -12 37 -12 69 0 32 -4 61 -10 64 -5 3
-10 25 -10 48 -1 23 -7 53 -15 67 -8 14 -14 46 -15 72 0 26 -4 50 -10 53 -5 3
-10 22 -10 41 0 19 -6 47 -14 62 -7 15 -16 50 -19 79 l-6 51 52 27 c29 14 59
30 67 34 13 8 33 16 80 35 8 4 29 15 45 25 17 11 38 20 48 20 42 2 12 45 -130
185 -140 137 -222 209 -282 248 -14 10 -33 22 -41 28 -73 49 -93 60 -105 60
-8 0 -17 5 -20 10 -3 6 -25 19 -48 30 -23 11 -49 24 -57 29 -8 5 -31 17 -50
25 -19 9 -42 20 -50 25 -8 5 -28 14 -45 21 -48 20 -99 42 -117 51 -10 5 -25 9
-34 9 -9 0 -28 6 -42 14 -15 8 -47 19 -72 26 -25 7 -60 18 -78 26 -18 8 -44
14 -57 14 -13 0 -27 5 -30 10 -3 6 -23 10 -44 10 -21 0 -52 7 -67 15 -16 8
-50 15 -76 15 -26 0 -50 5 -53 10 -3 6 -33 10 -65 10 -32 0 -71 5 -87 11 -54
23 -628 47 -668 29z"/>
</g>
</svg>
