<?xml version="1.0" standalone="no"?>
<!DOCTYPE svg PUBLIC "-//W3C//DTD SVG 20010904//EN"
 "http://www.w3.org/TR/2001/REC-SVG-20010904/DTD/svg10.dtd">
<svg version="1.0" xmlns="http://www.w3.org/2000/svg"
 width="1000.000000pt" height="750.000000pt" viewBox="0 0 1000.000000 750.000000"
 preserveAspectRatio="xMidYMid meet">

<g transform="translate(0.000000,750.000000) scale(0.100000,-0.100000)"
fill="#000000" stroke="none">
<path d="M3395 5755 c-63 -14 -169 -55 -214 -82 -110 -68 -210 -143 -189 -143
3 0 43 13 89 29 108 37 268 71 337 71 114 0 235 -50 301 -125 24 -28 61 -96
102 -190 13 -29 46 -173 74 -315 50 -263 75 -347 136 -455 l31 -55 -22 -78
c-25 -87 -71 -313 -84 -415 -7 -51 10 -56 94 -27 l68 24 5 70 c6 81 38 236 62
301 l17 44 47 -23 c25 -13 63 -29 84 -36 33 -10 38 -16 33 -34 -9 -30 -30
-265 -25 -271 3 -2 56 3 119 11 209 26 476 36 688 24 183 -9 380 -28 482 -45
l43 -7 -7 100 c-4 55 -11 125 -15 156 -8 55 -7 57 18 63 14 3 48 17 74 30 72
36 77 32 104 -77 36 -144 44 -190 41 -253 -1 -54 0 -59 26 -72 15 -8 49 -17
77 -21 l49 -7 0 66 c0 90 -34 286 -69 393 l-28 89 36 71 c52 102 59 119 76
198 9 39 20 85 25 101 5 17 16 73 25 125 8 52 19 111 25 130 5 19 17 69 26
110 10 41 21 82 25 90 4 8 21 46 39 83 38 82 74 125 138 165 129 82 306 79
561 -9 46 -16 86 -29 89 -29 12 0 -27 35 -87 77 -140 98 -277 152 -410 160
-144 9 -257 -24 -369 -108 -62 -47 -162 -165 -162 -191 0 -10 9 -44 20 -74 17
-51 18 -55 2 -49 -63 24 -139 39 -217 42 -85 3 -93 2 -154 -29 -36 -18 -66
-37 -68 -43 -2 -6 36 -10 100 -10 85 -1 109 -4 143 -22 150 -79 183 -263 84
-469 -41 -85 -86 -136 -177 -201 -57 -42 -163 -96 -218 -112 -22 -7 -49 -16
-60 -21 -28 -12 -120 -30 -155 -30 -27 0 -50 22 -50 47 0 10 57 27 145 44 65
12 89 21 212 81 50 24 106 62 144 96 l61 57 -45 51 c-110 122 -287 234 -452
287 -304 96 -644 43 -885 -141 -63 -48 -176 -157 -192 -186 -6 -10 10 -31 54
-71 89 -80 232 -148 384 -181 l116 -26 42 40 c37 37 81 62 107 62 5 0 9 -18 9
-40 0 -22 -4 -40 -10 -40 -5 0 -25 -14 -45 -31 -96 -85 -89 -214 16 -294 33
-26 38 -34 34 -59 -7 -37 -9 -39 -33 -32 -43 14 -98 65 -127 117 -25 46 -29
65 -30 134 l-1 79 -79 17 c-264 55 -453 175 -540 343 -92 178 -82 343 26 440
59 53 127 72 232 63 80 -7 85 4 16 39 -86 44 -94 46 -180 41 -74 -3 -112 -11
-206 -41 l-22 -7 19 57 c11 31 20 63 20 70 0 6 -21 40 -47 74 -139 185 -355
265 -578 215z m1677 -1220 c38 -15 94 -73 109 -112 41 -108 -50 -255 -155
-252 -33 1 -36 3 -15 8 38 9 95 51 114 84 48 81 36 160 -33 233 -7 8 -38 21
-68 30 -30 8 -54 17 -54 20 0 10 70 3 102 -11z"/>
<path d="M3471 4249 c-56 -17 -106 -55 -139 -106 -70 -109 -160 -329 -177
-429 -9 -57 6 -68 89 -59 l65 7 32 101 c18 56 39 113 46 127 7 14 13 29 13 34
0 12 120 277 137 301 7 11 13 23 13 27 0 10 -36 9 -79 -3z"/>
<path d="M6480 4253 c0 -5 11 -27 25 -51 21 -37 58 -116 115 -247 10 -22 23
-58 30 -80 7 -22 16 -45 21 -50 4 -6 15 -41 24 -77 10 -37 24 -73 32 -80 8 -6
36 -12 61 -12 l47 -1 3 44 c2 25 -1 54 -7 65 -6 12 -15 41 -22 66 -6 25 -22
69 -35 98 -13 29 -24 55 -24 58 0 15 -97 174 -123 202 -17 17 -55 41 -84 52
-60 22 -63 23 -63 13z"/>
<path d="M6245 4230 c-22 -11 -62 -39 -89 -63 l-49 -43 2 -88 c2 -77 5 -93 27
-121 32 -42 33 -111 2 -150 -12 -15 -50 -41 -85 -57 l-63 -28 0 -53 c1 -92 55
-409 80 -462 5 -11 12 -30 15 -42 5 -19 19 1 71 105 99 196 229 346 347 400
29 13 37 22 33 37 -11 50 -48 173 -61 202 -8 17 -15 36 -15 43 0 37 -150 340
-168 340 -4 0 -25 -9 -47 -20z"/>
<path d="M3717 4222 c-47 -52 -200 -433 -222 -552 -6 -33 -4 -36 40 -64 59
-37 154 -132 210 -211 41 -57 117 -198 146 -271 11 -29 12 -28 35 45 13 41 31
111 39 155 9 45 20 102 25 127 4 25 11 87 15 137 l8 92 -29 10 c-75 28 -116
54 -131 83 -22 44 -20 102 6 137 16 23 23 50 28 120 l6 90 -38 36 c-33 31
-108 84 -118 84 -2 0 -11 -8 -20 -18z"/>
<path d="M4673 4010 c-13 -5 -23 -13 -23 -18 0 -5 -14 -29 -31 -55 -43 -66
-152 -308 -142 -317 4 -5 71 -10 148 -12 77 -3 148 -8 158 -13 15 -6 17 0 17
61 0 73 16 277 26 332 l6 32 -68 -1 c-38 0 -79 -4 -91 -9z"/>
<path d="M5158 4015 c-3 -3 -1 -25 4 -48 15 -69 27 -196 27 -288 l1 -86 43 8
c23 4 97 8 165 9 77 0 122 4 122 10 0 21 -115 266 -153 326 -22 36 -47 64 -60
68 -27 7 -142 8 -149 1z"/>
<path d="M4206 3956 c-109 -19 -121 -24 -162 -59 -24 -21 -56 -54 -70 -73 -32
-42 -26 -52 48 -79 29 -10 67 -27 83 -37 40 -24 52 -23 59 8 9 35 78 146 127
206 23 27 40 50 38 52 -2 1 -57 -7 -123 -18z"/>
<path d="M5650 3967 c0 -7 12 -24 26 -38 46 -43 111 -133 134 -186 12 -29 25
-53 29 -53 3 0 20 8 36 18 17 10 58 29 93 41 34 13 64 27 67 30 6 11 -74 99
-120 131 -33 22 -66 34 -137 45 -51 9 -101 18 -110 21 -11 3 -18 0 -18 -9z"/>
<path d="M4076 3631 c-3 -5 -10 -51 -16 -102 -18 -159 -64 -390 -89 -444 -35
-75 -59 -193 -75 -370 -9 -93 -20 -199 -26 -235 -13 -84 -18 -300 -6 -300 4 0
36 22 70 49 69 55 160 104 226 122 25 7 49 16 54 21 6 4 20 8 33 8 29 0 30 23
3 70 -80 140 -118 236 -151 377 -29 124 -59 327 -51 335 5 5 41 -8 82 -28 159
-76 154 -75 405 -84 127 -4 239 -11 250 -15 11 -4 36 -14 55 -23 26 -12 66
-17 151 -17 l116 0 -4 -60 c-3 -33 0 -80 7 -105 25 -96 25 -93 -23 -133 -64
-52 -86 -55 -151 -18 -30 18 -57 37 -60 44 -8 19 -27 -14 -24 -42 4 -36 87
-92 143 -99 45 -5 45 -5 45 -44 0 -22 -5 -49 -11 -60 -10 -19 -17 -20 -92 -14
-88 8 -110 2 -217 -48 l-55 -27 55 6 c31 2 108 8 172 11 l115 7 12 -36 c19
-57 5 -73 -74 -79 -36 -3 -69 -9 -73 -13 -15 -14 40 -43 95 -50 64 -8 73 -15
73 -62 0 -49 -55 -103 -148 -148 -141 -67 -156 -79 -105 -90 15 -4 42 -12 58
-18 39 -15 255 -15 286 -1 13 7 44 17 69 24 132 36 319 180 464 358 66 80 94
97 122 74 5 -5 29 -14 54 -21 49 -14 170 -85 236 -138 23 -18 45 -33 49 -33
11 0 -3 265 -26 475 -26 245 -35 300 -60 369 -46 128 -105 404 -116 544 -3 39
-7 72 -9 72 -2 0 -36 -16 -76 -35 -106 -52 -134 -57 -353 -66 -159 -6 -225
-13 -320 -34 -181 -40 -207 -41 -305 -12 -147 43 -177 47 -334 47 -149 0 -281
16 -323 39 -61 34 -123 60 -127 52z"/>
<path d="M3643 3253 c-49 -77 -110 -175 -151 -243 -12 -19 -37 -65 -57 -103
l-35 -67 22 -30 c12 -17 24 -30 27 -30 7 0 71 96 71 106 0 3 6 11 13 19 6 7
26 36 42 65 17 28 48 79 70 113 22 34 54 86 72 115 l33 54 -23 39 c-12 21 -25
39 -28 39 -4 0 -29 -35 -56 -77z"/>
<path d="M6268 3281 l-28 -49 80 -127 c44 -70 80 -130 80 -132 0 -2 17 -30 38
-61 21 -31 51 -79 67 -106 l28 -49 28 34 c16 19 29 41 29 50 0 18 -92 188
-155 285 -21 32 -59 91 -84 131 -25 40 -48 72 -51 73 -3 0 -17 -22 -32 -49z"/>
<path d="M3773 3083 c-89 -139 -233 -389 -233 -403 1 -35 154 -133 227 -145
l41 -6 7 68 c3 37 10 88 15 113 5 25 15 94 21 153 12 114 6 159 -31 235 l-17
34 -30 -49z"/>
<path d="M6161 3055 c-12 -31 -21 -75 -21 -98 0 -55 44 -415 52 -422 1 -2 25
1 51 6 51 9 150 64 187 104 l22 24 -33 56 c-120 201 -153 257 -186 317 -21 37
-41 68 -45 68 -4 0 -16 -25 -27 -55z"/>
<path d="M3375 2601 c-33 -49 -46 -77 -43 -97 6 -52 22 -39 127 107 12 17 11
22 -4 39 -10 11 -22 20 -26 20 -4 0 -29 -31 -54 -69z"/>
<path d="M6546 2654 c-22 -21 -20 -28 12 -66 15 -18 42 -53 59 -76 29 -41 32
-42 42 -24 6 12 11 26 11 32 0 13 -92 150 -102 150 -4 0 -14 -7 -22 -16z"/>
<path d="M3545 2552 c-19 -13 -72 -87 -99 -137 l-27 -50 69 -66 c38 -37 93
-77 123 -91 70 -33 156 -55 168 -42 5 5 12 72 15 150 l7 141 -48 6 c-45 5
-150 52 -183 82 -9 8 -20 11 -25 7z"/>
<path d="M6434 2551 c-29 -29 -145 -83 -188 -88 l-49 -6 7 -141 c4 -78 11
-145 16 -150 14 -14 157 31 209 66 70 47 141 119 141 144 0 24 -65 126 -102
161 -15 14 -28 19 -34 14z"/>
<path d="M3292 2239 c-44 -94 -52 -148 -27 -169 12 -10 16 -8 25 15 5 14 10
28 10 30 0 3 18 42 40 87 35 72 39 86 29 105 -7 13 -17 23 -23 23 -6 0 -30
-41 -54 -91z"/>
<path d="M6637 2323 c-14 -13 -6 -44 33 -127 22 -47 40 -89 40 -95 0 -17 22
-24 31 -10 16 25 10 50 -36 145 -44 90 -53 102 -68 87z"/>
<path d="M3450 2199 c0 -10 -21 -61 -86 -212 l-26 -58 28 -40 c73 -106 230
-172 369 -154 l55 6 0 53 c0 29 -3 108 -7 174 -6 121 -6 122 -31 122 -52 0
-147 33 -217 76 -79 47 -85 50 -85 33z"/>
<path d="M6500 2189 c-49 -39 -139 -78 -211 -92 l-74 -13 -3 -171 -2 -172 43
-6 c65 -10 186 10 245 41 28 15 77 53 108 86 62 65 63 67 20 163 -12 27 -36
80 -51 118 -16 37 -34 67 -40 67 -5 0 -21 -10 -35 -21z"/>
</g>
</svg>
