<?xml version="1.0" standalone="no"?>
<!DOCTYPE svg PUBLIC "-//W3C//DTD SVG 20010904//EN"
 "http://www.w3.org/TR/2001/REC-SVG-20010904/DTD/svg10.dtd">
<svg version="1.0" xmlns="http://www.w3.org/2000/svg"
 width="1024.000000pt" height="1024.000000pt" viewBox="0 0 1024.000000 1024.000000"
 preserveAspectRatio="xMidYMid meet">

<g transform="translate(0.000000,1024.000000) scale(0.100000,-0.100000)"
fill="#000000" stroke="none">
<path d="M2710 9259 c0 -16 48 -99 143 -249 123 -193 240 -391 369 -625 59
-107 318 -618 318 -628 0 -3 21 -50 46 -104 49 -104 105 -233 211 -483 108
-256 133 -319 133 -332 0 -7 -38 -53 -85 -102 -89 -92 -113 -141 -56 -111 16
8 33 25 37 37 8 27 92 118 109 118 7 0 15 -8 19 -17 8 -24 54 -105 66 -117 6
-6 10 -17 10 -26 0 -9 20 -36 45 -60 58 -57 58 -73 -1 -25 -25 20 -47 35 -50
32 -4 -4 12 -19 89 -84 106 -89 443 -200 459 -151 3 7 -7 33 -22 58 -26 45
-47 87 -93 191 -36 80 -101 289 -92 297 12 11 37 -34 85 -152 25 -61 78 -165
117 -231 39 -66 87 -151 107 -190 34 -67 34 -70 15 -73 -12 -2 -43 4 -70 13
-28 8 -54 13 -60 10 -5 -4 -42 1 -82 10 -182 41 -286 94 -395 203 -46 45 -85
82 -87 82 -2 0 -4 -24 -4 -52 -3 -238 -10 -351 -22 -359 -14 -9 -20 -99 -7
-99 4 0 5 -7 1 -16 -4 -11 -8 -12 -13 -4 -5 8 -11 2 -18 -16 -8 -23 -10 -8 -6
66 3 61 11 103 20 119 11 16 13 26 6 33 -12 12 -27 -36 -38 -120 -4 -29 -12
-59 -18 -65 -6 -7 -12 -27 -13 -46 -1 -19 2 -29 6 -23 8 13 25 3 28 -18 1 -8
7 -42 14 -75 6 -33 12 -71 13 -84 1 -27 24 -40 36 -22 5 9 36 0 111 -28 57
-23 112 -41 122 -41 9 0 17 -4 17 -10 0 -5 9 -10 20 -10 10 0 29 -4 42 -9 13
-6 88 -26 168 -46 197 -49 272 -72 293 -87 16 -12 51 -136 41 -147 -2 -2 -70
13 -151 34 -81 20 -170 41 -196 46 -27 4 -56 14 -64 20 -8 7 -42 14 -76 15
-64 2 -93 9 -114 29 -6 7 -60 17 -120 24 -59 6 -139 17 -176 23 -55 9 -70 9
-77 -1 -5 -9 -10 -10 -14 -3 -3 6 -1 14 5 17 5 4 8 13 6 19 -3 7 5 55 18 107
12 52 20 100 17 107 -8 23 -20 -6 -33 -83 -6 -38 -17 -81 -25 -95 l-13 -25 -1
27 c0 14 -6 28 -12 31 -10 3 -10 9 0 27 9 14 10 25 4 29 -16 10 -2 71 17 71
13 0 13 2 2 9 -10 6 -12 22 -6 62 3 30 9 62 11 71 5 15 -3 17 -60 16 -36 -1
-68 0 -71 4 -5 5 11 74 55 238 44 164 85 369 74 379 -10 10 -21 -17 -33 -84
-14 -71 -45 -206 -61 -260 -23 -78 -49 -185 -55 -227 l-6 -48 -43 0 c-125 0
-271 102 -647 453 -76 70 -142 127 -148 127 -7 0 -11 -16 -10 -37 3 -68 -12
-237 -26 -298 -14 -58 -55 -390 -55 -444 0 -22 8 -30 48 -48 77 -36 180 -59
257 -57 112 4 257 21 293 34 18 7 36 10 39 6 12 -11 -73 -38 -166 -52 -118
-18 -129 -19 -165 -9 -49 13 -26 -15 29 -36 32 -12 65 -35 92 -65 44 -48 44
-49 27 -132 -3 -13 -38 -100 -78 -195 -40 -95 -97 -228 -126 -297 -29 -69 -68
-160 -86 -203 -18 -42 -31 -84 -28 -92 4 -8 1 -15 -4 -15 -12 0 -45 -69 -55
-115 -6 -28 -6 -29 4 -5 36 85 50 110 58 110 5 0 13 9 16 21 5 15 10 18 18 10
13 -13 -17 -92 -67 -181 l-31 -55 -5 30 c-6 29 -7 28 -14 -14 -5 -24 -16 -60
-25 -80 -24 -53 -112 -199 -127 -212 -8 -6 -14 -18 -14 -27 0 -8 -9 -30 -21
-48 -11 -19 -19 -46 -17 -61 3 -25 7 -20 36 39 l33 68 30 -15 c16 -9 29 -18
29 -21 0 -3 -11 -20 -25 -38 -14 -18 -25 -36 -25 -40 0 -4 -7 -14 -15 -22 -10
-11 -15 -34 -14 -77 1 -62 1 -62 10 -19 4 23 17 56 29 71 11 16 20 33 20 38 0
5 7 19 16 31 11 17 19 20 32 13 12 -7 26 -4 49 10 18 11 37 18 42 14 5 -3 13
0 18 7 12 19 99 58 131 59 15 0 43 7 62 15 31 13 32 14 7 10 -15 -2 -30 1 -33
5 -3 5 -10 9 -15 9 -6 0 -8 -4 -5 -9 3 -5 -16 -14 -41 -21 -26 -6 -52 -15 -58
-20 -5 -4 -25 -11 -43 -15 -19 -4 -30 -11 -26 -17 5 -7 2 -8 -5 -4 -7 5 -19 0
-27 -10 -11 -13 -14 -14 -11 -4 6 26 79 69 137 81 30 6 61 16 68 22 8 6 21 12
30 13 34 5 210 69 225 83 20 16 87 7 87 -12 -1 -22 -46 -46 -96 -51 -74 -8
-124 -28 -124 -48 0 -22 -2 -22 55 2 49 21 86 27 69 11 -5 -5 -18 -12 -29 -15
-12 -3 -9 -4 8 -2 15 2 27 0 27 -4 0 -27 85 -14 96 15 5 13 71 85 78 85 4 0
-13 -118 -24 -175 -6 -27 -19 -112 -30 -187 -10 -76 -24 -147 -30 -158 -16
-29 -44 -21 -50 15 -4 24 -11 31 -40 36 -30 7 -38 4 -57 -19 -15 -19 -25 -24
-33 -16 -8 8 -3 31 15 85 46 131 45 121 15 185 -38 77 -51 94 -74 94 -22 0
-86 -38 -86 -51 0 -14 9 -11 37 11 42 33 65 26 86 -23 29 -71 25 -140 -15
-237 -26 -64 -41 -88 -64 -100 -32 -17 -135 -61 -199 -84 -22 -7 -121 -45
-220 -83 -99 -39 -181 -67 -183 -63 -5 12 54 134 71 149 9 7 14 18 10 24 -3 6
-1 7 5 3 7 -4 25 12 44 41 18 26 48 63 66 82 45 46 102 116 102 125 0 19 91
116 134 144 54 34 70 35 41 2 -32 -35 -8 -33 32 3 21 19 55 42 76 51 21 8 36
20 32 25 -6 11 -20 8 -70 -15 -17 -7 -52 -19 -78 -26 -26 -6 -47 -17 -47 -24
0 -6 -12 -14 -27 -17 -18 -4 -45 -27 -76 -66 -34 -42 -56 -61 -75 -63 -24 -3
-27 -7 -27 -44 0 -42 -17 -74 -40 -74 -7 0 -16 -11 -19 -25 -4 -14 -29 -46
-57 -73 -58 -53 -119 -170 -119 -228 0 -29 4 -34 23 -34 12 0 42 10 67 22 55
26 78 36 205 83 55 21 114 44 132 51 17 8 36 14 43 14 7 0 24 6 38 14 60 32
268 126 279 126 6 0 9 -13 7 -32 -1 -18 -3 -39 -3 -45 -1 -7 -11 -19 -24 -28
-27 -18 -204 -82 -262 -95 -22 -5 -69 -18 -105 -29 l-65 -21 54 6 c30 4 79 15
110 25 60 21 80 24 65 10 -10 -10 -69 -29 -129 -41 -22 -4 -51 -11 -65 -14
-14 -4 -56 -13 -95 -21 -38 -8 -88 -20 -110 -26 -39 -11 -39 -11 -18 -28 21
-17 20 -17 -21 -35 -63 -28 -73 -30 -46 -10 29 21 40 34 40 52 0 19 -37 14
-52 -6 -13 -19 -49 -42 -66 -42 -5 0 -7 12 -4 26 9 46 -21 22 -39 -32 l-18
-49 26 -27 c14 -14 25 -30 24 -35 0 -4 4 -23 10 -40 11 -35 -3 -103 -22 -103
-5 0 -9 -6 -9 -12 0 -7 -27 -40 -59 -73 -55 -56 -61 -66 -80 -145 -17 -66 -28
-91 -51 -110 -45 -39 -128 -155 -87 -122 6 5 41 16 77 25 36 8 74 18 84 23 16
6 18 4 13 -10 -4 -9 -25 -104 -46 -210 -43 -210 -71 -326 -96 -395 -21 -60
-19 -65 13 -43 15 11 117 70 227 132 215 122 364 213 487 297 43 29 82 53 86
53 5 0 26 15 48 33 21 18 71 57 109 87 87 67 85 65 228 201 64 62 123 126 129
141 7 15 18 28 25 28 6 0 96 -81 200 -181 103 -99 221 -206 262 -237 75 -56
193 -125 234 -138 12 -3 29 -16 39 -27 14 -18 19 -19 32 -8 14 12 16 10 16 -9
l0 -22 25 23 c13 13 25 29 25 34 0 6 9 16 20 23 26 16 25 30 -2 28 -11 0 -23
5 -26 13 -3 10 1 12 17 8 26 -6 26 -6 2 35 -16 28 -17 35 -6 45 15 14 31 0 20
-17 -3 -5 -1 -10 4 -10 6 0 11 6 11 13 0 6 3 22 6 35 5 16 2 22 -9 22 -8 0
-17 -6 -20 -12 -2 -7 -8 -9 -13 -5 -5 4 -3 12 4 16 8 4 10 15 6 26 -6 14 -4
16 6 10 10 -6 12 -4 5 11 -4 10 -10 30 -13 43 -4 21 -2 23 22 19 29 -6 36 6 9
16 -14 6 -15 9 -4 15 16 10 10 163 -7 184 -7 8 -9 17 -6 20 10 10 -6 58 -16
52 -6 -3 -10 -1 -10 4 0 6 6 11 13 11 8 1 7 5 -3 13 -9 7 -17 30 -18 52 -2 22
-18 73 -37 113 -20 43 -37 98 -41 129 l-6 56 29 -7 c15 -4 35 -14 43 -21 8 -8
29 -19 45 -25 34 -13 40 -15 108 -31 26 -6 47 -14 47 -17 0 -4 17 -8 37 -9 20
-1 39 -5 42 -10 10 -14 52 -30 146 -58 50 -15 95 -31 100 -35 6 -4 37 -15 70
-25 33 -10 65 -22 72 -28 7 -5 17 -6 23 -2 7 4 10 -28 11 -97 0 -67 3 -96 9
-83 5 11 9 59 9 108 1 72 4 87 17 87 8 0 13 -4 10 -9 -3 -5 2 -8 11 -7 15 1
16 -11 14 -96 -1 -54 1 -98 6 -98 5 0 8 -14 5 -30 -2 -17 -7 -30 -11 -30 -3 0
-7 -16 -8 -36 -1 -20 -6 -41 -12 -47 -19 -19 -31 5 -31 63 0 32 -4 62 -10 65
-6 4 -10 -18 -10 -59 0 -36 -4 -66 -8 -66 -20 0 -401 196 -429 221 -18 15 -50
33 -71 38 -24 7 -44 20 -52 36 -7 13 -21 27 -30 30 -10 3 -27 27 -39 53 -46
99 -102 182 -125 182 -6 0 -5 -5 2 -12 7 -7 12 -20 12 -30 0 -10 5 -17 11 -15
6 1 14 -4 17 -12 3 -8 0 -11 -7 -7 -22 14 -11 -11 18 -40 38 -39 104 -188 125
-284 13 -58 16 -108 12 -220 -5 -166 -10 -193 -36 -185 -10 3 -20 0 -23 -9 -4
-10 0 -12 14 -9 10 3 19 0 19 -6 0 -6 -6 -11 -13 -11 -8 0 -20 -18 -27 -40 -8
-23 -20 -45 -29 -50 -13 -7 -13 -11 -2 -24 9 -11 10 -16 2 -16 -6 0 -11 -5
-11 -12 0 -9 3 -9 13 0 6 7 12 16 13 20 3 27 18 62 26 62 6 0 7 -8 3 -17 -13
-33 -25 -88 -25 -122 0 -18 -11 -55 -25 -82 -13 -27 -22 -49 -18 -49 3 0 30
14 59 31 112 64 128 62 349 -46 178 -87 345 -155 381 -155 42 0 186 62 652
281 34 16 64 29 67 29 2 0 -7 -12 -20 -26 -20 -22 -23 -33 -18 -63 3 -20 6
-48 7 -63 l1 -28 17 23 c18 23 78 168 78 187 0 10 29 27 147 85 28 14 57 32
63 40 7 8 19 15 28 15 9 0 56 27 106 61 63 42 150 119 282 250 106 104 197
189 202 189 6 0 35 -30 65 -68 54 -66 75 -88 172 -174 138 -122 343 -274 503
-373 52 -31 117 -72 145 -91 28 -19 55 -34 59 -34 4 0 39 -20 77 -44 38 -25
104 -63 147 -86 44 -22 96 -56 118 -75 21 -19 46 -35 56 -35 21 0 21 -2 -38
255 -22 94 -48 215 -57 270 -10 55 -22 108 -27 117 -12 24 -7 23 92 -16 47
-19 88 -32 93 -29 4 2 6 23 6 46 -1 27 -3 33 -6 17 -7 -39 -19 -44 -55 -23
-42 26 -117 53 -403 146 -298 98 -531 167 -561 167 -33 0 -40 22 -59 170 -8
69 -31 194 -50 279 -19 85 -35 159 -35 164 0 6 10 2 23 -9 12 -11 35 -28 50
-38 33 -20 55 -12 35 12 -14 16 -24 40 -64 143 -11 27 -27 50 -42 57 -20 9
-22 9 -11 -4 6 -8 9 -17 5 -21 -3 -3 1 -15 11 -25 14 -16 14 -18 0 -18 -9 0
-19 9 -22 20 -3 11 -13 20 -20 20 -8 0 -17 15 -20 38 -4 20 -15 82 -26 137
-48 258 -47 243 -30 260 15 15 15 16 0 10 -11 -4 -18 1 -23 17 -9 36 -7 70 4
63 6 -4 8 -15 5 -25 -7 -22 6 -32 25 -19 13 8 13 10 0 19 -11 7 -7 10 18 10
34 0 42 -16 20 -39 -11 -10 -8 -11 14 -6 49 12 64 -28 119 -315 18 -97 26
-119 50 -141 15 -15 38 -29 51 -32 12 -3 100 -32 193 -65 94 -33 224 -79 290
-102 72 -25 131 -52 148 -68 15 -14 27 -23 27 -20 0 12 -187 394 -228 466 -22
39 -39 72 -36 72 3 0 26 -11 52 -25 26 -14 52 -25 58 -25 7 0 15 -7 18 -16 4
-9 9 -14 12 -11 11 11 -19 91 -86 232 -39 80 -70 149 -70 153 0 4 -10 23 -22
42 -12 19 -34 69 -48 110 -15 41 -35 91 -45 110 -10 19 -22 51 -26 70 -18 86
-79 301 -92 327 -8 15 -29 63 -46 106 -17 43 -38 88 -46 100 -8 12 -15 29 -15
37 0 9 -13 41 -29 71 -31 58 -85 211 -95 271 -6 35 -4 38 36 66 47 31 115 60
278 117 141 48 150 55 150 108 0 44 -19 216 -44 407 -8 63 -18 151 -21 195 -9
123 -11 128 -42 120 -24 -6 -90 -60 -263 -220 -210 -193 -371 -289 -540 -320
l-35 -6 -2 88 c-2 103 -41 325 -78 436 -33 102 -110 271 -148 324 l-29 41 21
54 c268 695 656 1476 1023 2061 65 103 118 190 118 193 0 3 9 17 20 31 21 28
26 53 10 53 -6 0 -37 -24 -69 -54 -32 -30 -72 -62 -87 -72 -16 -10 -65 -44
-109 -75 -155 -110 -354 -213 -538 -280 -110 -39 -326 -89 -388 -89 -19 0 -39
-4 -45 -8 -7 -4 -13 -69 -17 -167 -14 -368 -107 -818 -273 -1330 -26 -80 -51
-145 -55 -145 -5 0 -5 10 0 23 15 35 38 119 45 158 6 34 5 36 -31 47 -56 18
-197 93 -249 132 -104 80 -98 71 -101 146 -1 38 -3 84 -3 102 l0 32 -389 0
-390 0 -3 -26 c-2 -22 -16 -34 -68 -61 -36 -19 -81 -49 -100 -68 -19 -18 -66
-52 -105 -75 -83 -50 -116 -80 -158 -140 l-31 -45 55 51 c30 28 77 63 104 79
28 15 81 48 119 72 38 23 79 43 91 43 11 0 26 5 33 12 9 9 12 -3 12 -54 0 -81
-12 -97 -153 -204 -53 -41 -103 -85 -111 -97 -8 -12 -24 -55 -37 -95 -12 -41
-29 -76 -37 -80 -22 -8 -100 37 -108 62 -3 11 -13 28 -21 37 -12 14 -11 19 12
40 13 13 25 30 25 37 0 7 7 15 15 18 8 4 15 15 15 26 0 10 4 17 9 14 5 -4 7 3
4 14 -3 10 -10 18 -16 17 -20 -4 -77 -85 -77 -109 -1 -18 -3 -20 -9 -8 -35 62
-166 557 -221 835 -32 160 -58 378 -66 543 -4 86 -11 155 -17 159 -6 3 -72 17
-146 29 -335 56 -705 234 -1023 493 -49 39 -88 66 -88 60z m2292 -1711 c6
-157 7 -1276 1 -1255 -6 22 -29 17 -27 -6 2 -17 -39 -36 -124 -58 -46 -11 -55
-11 -63 1 -12 20 -11 1294 2 1340 5 19 13 41 18 49 11 16 66 28 138 30 l52 1
3 -102z m918 -565 c0 -10 -29 -99 -73 -228 -35 -103 -80 -209 -148 -352 -35
-74 -37 -84 -23 -97 13 -14 19 -14 42 -2 15 8 68 26 117 41 93 28 288 114 339
149 45 30 26 2 -29 -44 -64 -53 -245 -141 -360 -174 -107 -31 -266 -57 -279
-45 -5 5 3 24 20 46 16 21 28 42 26 46 -1 5 1 6 6 3 9 -5 49 41 91 104 22 33
21 33 -11 -5 -97 -115 -96 -109 10 53 69 103 183 326 238 464 17 42 34 63 34
41z m-3087 -493 c-3 -11 0 -27 7 -35 8 -9 9 -33 5 -72 -11 -94 -55 -414 -65
-468 -16 -88 -12 -125 13 -145 17 -14 19 -21 10 -30 -8 -9 -20 -9 -47 0 -34
11 -36 14 -31 43 3 18 12 79 21 137 47 312 60 407 70 527 4 40 10 70 14 68 5
-3 6 -14 3 -25z m4550 -52 c-16 -18 -44 -54 -61 -79 -31 -46 -197 -206 -283
-273 -70 -55 -252 -140 -396 -185 -73 -23 -133 -45 -133 -48 0 -4 12 -19 26
-34 27 -28 25 -49 -3 -49 -22 0 -83 64 -83 88 0 25 14 35 72 50 60 15 373 148
413 175 96 66 225 170 335 271 119 109 179 154 113 84z m-4389 -123 c90 -83
148 -134 176 -155 18 -14 40 -33 49 -43 22 -26 145 -107 211 -140 35 -17 79
-29 123 -33 45 -5 67 -11 67 -20 0 -22 -16 -24 -61 -8 -24 8 -57 17 -74 19
-67 9 -162 65 -308 182 -91 72 -267 248 -267 265 0 7 14 -1 31 -18 18 -16 41
-38 53 -49z m2315 -105 c28 -22 57 -52 64 -68 24 -46 40 -128 29 -149 -5 -10
-10 -44 -10 -75 0 -72 -26 -118 -81 -142 -29 -14 -40 -26 -45 -47 l-6 -30 -77
3 -78 3 -2 60 c0 33 -6 105 -13 160 -24 208 -24 193 5 249 27 49 27 50 4 26
-21 -21 -24 -22 -27 -7 -8 40 22 53 125 56 57 1 64 -2 112 -39z m-299 -15 c0
-8 -4 -15 -9 -15 -5 0 -7 -67 -4 -157 2 -87 1 -194 -4 -238 l-8 -80 -17 70
c-10 42 -19 140 -24 247 -6 167 -6 176 12 181 37 9 54 7 54 -8z m15 -317 c-4
-57 -8 -105 -11 -107 -6 -7 -5 143 2 178 12 58 15 31 9 -71z m-1355 40 c-1
-17 -37 -64 -44 -57 -10 10 15 69 30 69 8 0 14 -6 14 -12z m-303 -185 c-8 -8
-59 -10 -245 -12 -106 -1 -141 -4 -136 -13 5 -8 -11 -9 -64 -5 -91 9 -142 27
-57 21 33 -3 103 -1 155 4 113 11 356 15 347 5z m3914 -13 c-152 -69 -544
-155 -791 -174 -102 -8 -48 9 175 54 110 22 292 62 405 89 228 55 282 63 211
31z m-3773 -36 c12 -4 22 -9 22 -13 0 -6 -72 -32 -77 -27 -1 1 0 12 4 24 6 23
14 26 51 16z m-78 -29 c0 -10 -84 -45 -105 -44 -12 1 -6 5 14 11 19 5 44 16
55 24 21 14 36 18 36 9z m297 -62 c-3 -10 -5 -4 -5 12 0 17 2 24 5 18 2 -7 2
-21 0 -30z m-156 -140 c-64 -114 -116 -253 -149 -393 -11 -47 -23 -94 -27
-105 -5 -15 -4 -17 3 -6 9 12 13 12 27 -3 26 -25 12 -48 -27 -43 -24 3 -42 -3
-67 -21 -24 -18 -33 -21 -28 -10 5 14 1 15 -26 7 -48 -15 -137 -39 -180 -49
-34 -7 -39 -6 -48 14 -8 17 -3 36 24 91 38 77 67 144 67 154 0 3 -28 -48 -62
-114 -47 -92 -61 -130 -60 -162 0 -24 -4 -45 -9 -49 -12 -7 -11 -44 1 -44 6 0
10 -8 9 -17 0 -11 -3 -13 -6 -5 -6 16 -23 15 -23 -2 0 -7 -9 -33 -19 -57 -35
-81 -35 -85 0 -84 26 1 33 6 44 35 7 19 20 53 28 75 9 22 18 52 22 68 5 24 35
40 35 18 0 -19 42 -23 58 -7 12 11 12 16 4 16 -7 0 -11 4 -8 8 3 5 -9 7 -27 5
-61 -7 -3 16 80 32 113 22 141 20 145 -7 3 -22 -12 -118 -34 -222 -15 -70 -25
-166 -18 -166 14 0 29 48 35 115 12 126 33 217 57 242 17 18 19 26 10 32 -10
6 -3 18 24 45 35 35 38 36 55 20 24 -21 24 -24 -7 71 -24 75 -25 85 -14 154
16 99 44 181 92 271 49 91 44 85 62 71 20 -17 36 -6 36 23 0 13 7 30 16 37 15
12 16 10 12 -24 -3 -27 -1 -36 8 -33 9 4 12 -5 10 -32 -4 -45 -26 -56 -26 -13
0 17 -4 31 -9 31 -17 0 -18 -25 -3 -48 13 -20 16 -64 16 -235 l1 -212 68 -50
69 -50 -7 -90 c-4 -49 -7 -101 -7 -114 0 -18 -2 -20 -9 -10 -5 8 -9 28 -9 44
0 36 -52 149 -73 162 -26 14 -86 99 -117 165 -24 50 -30 77 -31 133 0 59 -2
66 -11 45 -7 -16 -10 -113 -9 -260 1 -157 -2 -230 -9 -220 -5 8 -10 53 -11
100 -1 47 -4 74 -6 60 -3 -14 -9 -28 -14 -31 -6 -3 -6 -16 1 -33 12 -33 13
-181 1 -297 -7 -61 -17 -101 -36 -135 -24 -46 -25 -47 -19 -15 7 40 -8 35 -31
-9 -17 -33 -65 -60 -108 -60 l-30 0 7 54 c3 30 9 62 13 72 5 14 2 16 -14 12
-11 -3 -27 -1 -36 3 -23 14 -34 -11 -12 -28 17 -12 17 -13 2 -13 -18 0 -24
-34 -8 -44 5 -4 3 -18 -5 -35 -13 -26 -19 -28 -89 -34 -62 -4 -88 -13 -162
-51 -52 -27 -90 -41 -93 -35 -7 10 -26 5 -104 -30 -24 -11 -46 -27 -50 -36 -7
-18 -46 -20 -68 -2 -15 11 -12 19 26 82 23 39 61 99 84 134 23 35 42 68 42 72
0 4 38 87 85 183 47 97 85 180 85 185 0 6 7 14 15 18 9 6 11 13 5 23 -7 11
-15 7 -40 -20 -17 -19 -38 -51 -46 -70 -9 -19 -18 -30 -21 -24 -2 7 15 52 37
100 61 132 230 530 255 602 20 54 24 60 36 46 32 -38 245 21 342 95 34 27 63
47 65 46 2 -2 -24 -52 -57 -112z m447 97 c2 0 1 -4 -2 -9 -3 -4 20 -16 52 -26
31 -10 64 -22 72 -26 8 -4 50 -18 92 -30 43 -12 83 -28 90 -36 10 -12 7 -13
-18 -8 -90 21 -190 49 -194 56 -8 12 -213 69 -247 69 -24 0 -33 -6 -43 -30
-14 -33 -49 -69 -37 -37 3 9 2 17 -4 17 -9 0 -3 43 9 63 3 7 175 4 230 -3z
m2491 -24 c170 2 112 -14 -120 -32 -112 -8 -229 -22 -259 -29 -68 -17 -370
-72 -465 -85 -38 -5 -104 -10 -146 -10 -44 0 -95 -7 -120 -16 -24 -9 -61 -16
-81 -15 -46 0 -56 -12 -22 -28 14 -6 23 -15 20 -20 -8 -13 -146 -22 -188 -12
-28 6 -40 5 -48 -5 -15 -17 -40 -7 -40 16 0 27 -17 34 -23 10 -8 -32 -34 -24
-40 13 -6 42 2 66 15 43 13 -23 28 -10 28 24 0 34 16 41 64 30 22 -5 52 -4 72
2 20 5 38 7 41 4 3 -3 8 -27 10 -53 6 -48 17 -73 34 -73 5 0 9 32 9 71 l0 70
81 -2 c68 -3 80 -6 76 -19 -4 -14 8 -15 127 -3 159 15 305 36 491 69 77 14
174 25 215 26 41 0 95 4 120 9 l45 8 -52 -4 c-29 -2 -53 -2 -53 1 0 11 47 22
70 16 14 -4 76 -7 139 -6z m-2100 -91 c215 -62 271 -73 271 -56 0 6 8 11 17
11 13 0 14 -3 6 -11 -6 -6 -9 -18 -6 -25 6 -16 -18 -19 -33 -4 -6 6 -53 15
-105 21 -52 6 -100 16 -107 22 -10 8 -16 7 -21 -2 -10 -16 -57 -10 -54 6 4 16
-45 49 -86 58 -39 8 -102 34 -85 35 6 0 97 -25 203 -55z m1956 -1 c-254 -89
-913 -259 -932 -241 -12 12 3 17 125 37 66 12 158 32 204 44 162 46 255 75
308 96 30 12 97 32 149 45 53 14 119 31 146 39 98 29 98 14 0 -20z m295 21 c0
-21 53 -300 66 -346 9 -32 14 -74 11 -92 -6 -36 -77 -125 -77 -96 0 8 -5 20
-12 27 -16 16 -33 63 -83 232 -24 80 -46 153 -50 162 -5 13 3 22 34 37 22 12
50 35 63 51 18 25 48 41 48 25z m-2865 -45 c3 -5 -1 -10 -9 -10 -9 0 -16 5
-16 10 0 6 4 10 9 10 6 0 13 -4 16 -10z m275 -49 c232 -59 397 -106 474 -135
37 -14 85 -26 105 -27 39 -1 120 -27 86 -28 -32 -2 -4 -17 65 -36 36 -9 77
-23 92 -31 17 -9 29 -10 33 -4 14 22 26 8 23 -27 -2 -26 -8 -38 -18 -38 -9 0
-31 -14 -50 -32 -33 -31 -35 -32 -52 -13 -9 10 -32 21 -50 25 -18 4 -64 20
-103 36 -38 16 -128 45 -200 65 -116 32 -263 97 -315 139 -8 7 -69 40 -135 75
-66 34 -122 64 -124 66 -9 9 21 2 169 -35z m-340 9 c0 -5 -5 -10 -11 -10 -5 0
-7 5 -4 10 3 6 8 10 11 10 2 0 4 -4 4 -10z m1214 -26 c13 -5 13 -8 1 -20 -21
-21 -44 -18 -38 6 6 21 12 24 37 14z m-859 -137 c11 -7 58 -28 105 -46 47 -18
89 -37 95 -42 5 -5 -35 -9 -102 -9 -62 0 -114 4 -118 9 -3 5 -9 30 -14 55 -9
50 -2 57 34 33z m2135 -62 c-13 -14 -28 -25 -33 -25 -6 0 -26 -17 -46 -38 -59
-62 -249 -228 -274 -239 -93 -43 -187 -44 -187 -3 0 32 40 134 62 157 12 13
28 21 36 18 12 -4 60 12 357 121 109 40 115 41 85 9z m-1890 -31 c0 -2 -7 -4
-15 -4 -8 0 -15 4 -15 10 0 5 7 7 15 4 8 -4 15 -8 15 -10z m1032 -38 c15 -35
6 -50 -46 -74 -82 -39 -109 -26 -118 55 -3 23 1 28 27 34 17 4 51 7 78 8 41 1
49 -2 59 -23z m433 4 c-3 -5 -12 -10 -18 -10 -7 0 -6 4 3 10 19 12 23 12 15 0z
m-1280 -48 c33 -19 95 -52 138 -73 42 -22 77 -41 77 -44 0 -16 -267 117 -299
150 -15 15 -14 15 4 9 11 -5 47 -23 80 -42z m-114 -5 c46 -24 119 -62 161 -85
42 -23 83 -42 90 -42 8 0 24 -11 35 -24 l21 -24 -31 -14 c-18 -7 -54 -12 -82
-12 -34 1 -44 -1 -30 -6 15 -6 16 -9 4 -9 -9 -1 -19 2 -22 6 -4 4 -31 6 -60 4
-71 -3 -148 32 -224 103 -43 40 -69 56 -88 56 -19 0 -41 14 -72 45 l-44 45
129 0 129 0 84 -43z m2189 -17 c0 -5 -2 -10 -4 -10 -3 0 -8 5 -11 10 -3 6 -1
10 4 10 6 0 11 -4 11 -10z m200 -31 c0 -11 -17 -36 -37 -56 l-38 -35 41 -19
c40 -19 42 -23 73 -122 21 -69 33 -130 36 -189 2 -51 11 -100 20 -118 8 -16
15 -33 14 -37 -3 -19 2 -33 12 -33 6 0 24 -11 39 -23 17 -14 54 -29 91 -36
145 -28 293 -94 417 -186 33 -24 73 -50 88 -59 63 -33 108 -96 69 -96 -8 0
-15 -5 -15 -10 0 -6 -33 14 -72 43 -77 58 -172 109 -278 153 -36 14 -70 30
-77 36 -15 12 -137 38 -179 38 -20 0 -39 9 -57 28 -37 38 -88 76 -82 60 5 -13
-6 -14 -58 -9 -18 2 -54 114 -66 206 -19 147 -41 276 -52 309 -8 24 -6 33 12
52 12 13 18 28 14 35 -5 7 -4 10 2 6 6 -4 21 14 34 38 25 47 49 59 49 24z
m-1113 -75 c-30 -86 -50 -92 -78 -20 -10 28 -17 51 -15 53 4 5 111 41 113 38
2 -1 -8 -33 -20 -71z m1240 46 c171 -40 345 -142 403 -234 29 -47 25 -52 -13
-19 -101 89 -286 167 -469 198 -33 5 -38 9 -36 33 3 50 -3 49 115 22z m-360
-33 c-18 -14 -77 -108 -111 -176 -27 -53 -96 -117 -161 -151 -22 -11 -51 -30
-65 -40 l-25 -20 40 16 c22 9 46 21 53 26 8 7 12 7 12 0 0 -16 -22 -28 -85
-46 -123 -36 -293 -53 -241 -24 9 5 21 6 27 2 7 -4 9 0 5 13 -5 16 0 23 25 33
104 43 396 263 478 360 37 44 46 49 54 35 6 -11 4 -20 -6 -28z m-999 -33 c10
-34 10 -36 -11 -30 -12 4 -37 9 -54 13 -18 3 -33 10 -33 14 0 9 55 37 76 38 6
1 16 -15 22 -35z m-778 16 c0 -5 -4 -10 -10 -10 -5 0 -10 5 -10 10 0 6 5 10
10 10 6 0 10 -4 10 -10z m-887 -132 c18 -13 59 -48 92 -78 81 -75 146 -119
227 -152 87 -35 275 -80 348 -82 17 -1 27 -36 11 -36 -14 0 -14 -27 -1 -32 5
-1 -8 -27 -30 -56 -22 -29 -40 -59 -40 -67 0 -8 -4 -15 -9 -15 -6 0 -24 -28
-40 -62 -31 -65 -43 -65 -16 -1 19 44 19 43 -4 43 -11 0 -23 5 -26 11 -5 6
-38 9 -90 7 -52 -2 -83 0 -82 6 1 6 -8 12 -21 14 -15 2 -32 21 -52 55 -17 29
-52 76 -80 106 -36 40 -46 57 -37 63 8 6 -3 22 -41 57 -94 86 -158 105 -147
44 5 -25 -18 -73 -29 -62 -15 14 -9 124 7 141 6 7 12 23 13 36 2 59 4 82 10
82 3 0 20 -10 37 -22z m1021 -18 l66 -30 -6 -43 c-4 -23 -11 -45 -17 -48 -21
-14 17 -19 132 -17 67 1 124 -2 127 -5 4 -3 19 0 35 8 15 8 34 12 42 9 8 -3
18 0 22 6 4 7 -2 14 -14 17 -27 7 -26 19 1 59 15 22 38 37 68 47 25 8 46 14
46 13 1 0 5 -63 9 -138 8 -158 14 -150 -86 -118 -35 10 -65 17 -67 15 -7 -6
32 -23 71 -30 35 -7 62 -25 36 -25 -8 0 -8 -4 1 -15 15 -18 11 -24 -20 -30
-13 -2 -31 -12 -42 -21 -14 -13 -48 -19 -141 -26 -67 -4 -132 -10 -144 -13
-12 -3 -24 -1 -27 4 -3 4 -34 11 -69 15 -57 5 -187 43 -218 62 -21 12 150 166
196 176 16 4 12 8 -20 22 -82 35 -85 39 -68 90 9 26 16 46 18 46 1 0 32 -14
69 -30z m1426 -164 c0 -2 -7 -6 -15 -10 -8 -3 -15 -1 -15 4 0 6 7 10 15 10 8
0 15 -2 15 -4z m-2335 -94 c19 -24 35 -48 35 -52 0 -4 9 -11 20 -16 20 -9 153
-195 145 -203 -3 -2 -14 4 -25 14 -17 15 -20 16 -15 3 5 -13 -6 -17 -67 -22
-120 -11 -146 -17 -173 -38 -21 -16 -25 -28 -26 -76 -1 -31 -4 -70 -8 -86 -6
-28 -7 -29 -23 -12 -14 13 -18 34 -18 91 0 86 -6 106 -27 98 -14 -6 -15 5 -10
83 3 49 11 106 19 127 l14 38 19 -21 c19 -21 155 -110 169 -110 3 0 24 -11 46
-25 46 -29 50 -30 50 -10 0 8 -4 15 -8 15 -4 0 -44 29 -87 65 -44 36 -96 79
-116 95 -27 21 -36 35 -34 54 5 38 11 42 50 38 28 -3 43 -14 70 -50z m1915 8
c-8 -5 -24 -9 -35 -9 l-20 0 20 9 c11 5 27 9 35 9 13 1 13 0 0 -9z m-2110 -17
c0 -10 -7 -61 -15 -113 -8 -52 -12 -114 -9 -136 6 -43 -3 -59 -25 -45 -11 7
-10 34 4 147 9 77 18 145 20 152 6 18 25 15 25 -5z m1790 -9 c30 -4 80 -6 110
-5 72 3 58 -10 -17 -15 -58 -5 -193 22 -193 38 0 4 10 4 23 -1 12 -5 47 -12
77 -17z m-920 -30 c0 -8 8 -14 18 -14 10 0 22 -4 28 -9 9 -10 149 -48 196 -54
54 -6 38 -15 -41 -22 -62 -5 -78 -10 -74 -21 7 -18 73 -19 73 -1 0 8 3 8 9 -2
5 -8 18 -12 30 -8 12 3 21 1 21 -3 0 -5 17 -11 38 -13 20 -2 -6 -4 -58 -5 -53
-1 -100 2 -105 6 -16 13 -89 32 -126 32 -19 0 -47 -7 -63 -15 l-28 -15 17 27
c10 16 29 40 43 55 14 15 23 31 19 34 -4 4 -37 -23 -74 -59 -37 -36 -69 -64
-71 -63 -2 2 21 34 50 71 29 36 54 70 54 76 1 5 2 13 3 18 2 15 41 0 41 -15z
m915 -20 c14 -15 25 -30 25 -35 0 -22 193 -90 245 -86 25 2 30 -2 35 -28 3
-16 10 -30 17 -30 6 0 15 -3 19 -7 4 -5 2 -8 -4 -8 -7 0 -12 -4 -12 -8 0 -8
128 -6 168 3 13 3 20 10 17 15 -3 6 1 10 9 10 20 0 106 79 117 109 8 20 14 23
45 18 20 -4 39 -9 42 -12 7 -7 -28 -45 -42 -45 -7 0 -35 -24 -64 -54 -53 -54
-175 -136 -203 -136 -8 0 -20 -5 -26 -11 -23 -23 -296 34 -478 100 -44 16
-108 39 -142 51 -35 13 -63 28 -63 35 0 7 -9 15 -20 18 -11 3 -20 9 -20 14 0
14 107 67 170 86 116 34 135 34 165 1z m110 6 c3 -5 -3 -10 -14 -10 -11 0 -23
5 -26 10 -3 6 3 10 14 10 11 0 23 -4 26 -10z m375 -83 c0 -5 -4 -5 -10 -2 -5
3 -10 14 -10 23 0 15 2 15 10 2 5 -8 10 -19 10 -23z m-850 4 c0 -6 -5 -11 -11
-11 -5 0 -7 -4 -4 -10 4 -6 -8 -10 -30 -10 -26 0 -34 4 -30 13 3 6 -1 2 -10
-10 -14 -18 -21 -20 -48 -12 -18 5 -49 9 -70 9 -42 0 -48 20 -8 30 48 11 211
12 211 1z m-59 -60 c-21 -6 -22 -8 -8 -19 11 -9 21 -11 33 -4 10 5 35 7 57 4
33 -4 39 -2 32 9 -5 8 1 6 13 -5 18 -16 19 -20 7 -33 -8 -8 -15 -22 -15 -31 0
-33 21 -92 31 -87 5 4 9 1 9 -4 0 -6 6 -11 14 -11 7 0 16 -9 19 -21 5 -17 11
-20 36 -14 17 3 39 1 51 -5 12 -6 34 -14 48 -16 15 -3 29 -9 32 -13 3 -4 25
-11 50 -15 54 -8 39 6 -34 30 -60 20 -175 73 -161 74 17 0 377 -148 499 -206
16 -8 37 -14 47 -14 11 0 40 -8 66 -17 63 -24 106 -19 123 13 7 13 18 24 24
24 7 0 19 8 27 18 9 9 44 43 78 75 73 68 139 154 166 216 11 24 21 39 23 33 3
-10 -38 -91 -85 -165 -14 -23 -62 -78 -105 -122 -43 -44 -78 -83 -78 -86 0 -4
-21 -21 -47 -38 -27 -17 -70 -46 -97 -65 -26 -19 -55 -32 -62 -29 -8 3 -14 -1
-14 -9 0 -14 -192 -118 -217 -118 -6 0 -18 -6 -25 -13 -11 -11 -134 -51 -163
-53 -5 0 -20 -4 -33 -8 -12 -4 -61 -8 -107 -8 -47 -1 -88 -5 -91 -10 -3 -5
-15 -1 -25 8 -19 17 -21 17 -48 1 -32 -19 -45 -22 -37 -8 3 5 -1 14 -8 20 -10
8 -16 9 -21 1 -3 -6 -11 -7 -17 -4 -7 5 -9 1 -5 -9 3 -10 2 -17 -3 -17 -6 0
-10 7 -10 15 0 8 -5 15 -11 15 -6 0 -8 9 -4 20 4 12 2 26 -3 33 -6 7 -9 37 -7
67 7 117 7 206 0 223 -9 21 19 57 32 43 5 -5 2 -11 -4 -13 -7 -3 -13 -9 -13
-15 0 -6 16 -8 43 -4 67 10 141 15 158 10 15 -4 14 -11 -9 -56 -27 -54 -55
-175 -43 -183 10 -5 511 42 519 49 7 8 2 8 -183 -9 -88 -8 -176 -14 -195 -14
l-35 1 35 8 c27 7 322 35 443 43 9 1 17 4 17 7 0 3 -39 7 -87 8 -49 1 -100 4
-115 8 -24 5 -26 8 -18 25 8 15 7 19 -5 19 -8 0 -15 -5 -15 -11 0 -18 -152 -5
-183 16 -26 16 -62 63 -55 71 2 2 83 -12 179 -30 217 -42 396 -63 411 -48 8 8
3 13 -18 17 -16 4 -63 19 -104 35 -84 31 -201 61 -335 85 -49 10 -97 21 -106
26 -10 5 -23 3 -37 -7 -23 -16 -94 -26 -187 -27 l-60 -1 3 37 c2 22 -1 37 -7
37 -6 0 -11 14 -11 32 0 26 -2 30 -12 19 -9 -8 -13 -60 -14 -179 -1 -92 -5
-203 -10 -247 -4 -44 -8 -90 -8 -102 -1 -15 -7 -23 -18 -23 -10 0 -18 5 -18
10 0 6 5 10 10 10 6 0 10 5 10 10 0 6 -7 10 -15 10 -9 0 -15 -9 -15 -21 0 -15
-4 -19 -16 -15 -9 3 -20 6 -26 6 -6 0 -8 7 -4 15 4 11 -1 15 -19 15 -39 0 -40
0 -37 -16 3 -16 1 -17 -22 -8 -9 3 -12 12 -9 22 5 12 2 14 -11 9 -9 -4 -49 -2
-89 5 -40 6 -99 12 -132 14 -68 4 -147 21 -105 23 36 1 12 17 -37 25 -42 6
-62 -8 -25 -17 12 -3 11 -5 -6 -6 -16 -1 -26 6 -29 19 -6 23 -7 24 -32 8 -23
-14 -55 -3 -47 17 3 8 1 15 -4 15 -6 0 -10 -4 -10 -10 0 -12 -40 -13 -67 -3
-14 6 -8 9 22 14 l40 5 -37 17 -38 17 0 93 c0 103 7 118 55 116 29 -1 29 -1 5
-9 -23 -7 -23 -8 -3 -9 12 -1 24 3 28 8 5 10 160 7 483 -8 124 -6 166 -11 173
-22 5 -8 9 -9 10 -4 0 6 3 33 5 60 4 48 3 49 -11 25 -14 -24 -14 -24 -15 22 0
52 16 75 22 31 2 -16 5 17 6 72 3 139 9 165 37 165 12 0 28 7 35 15 7 8 24 15
39 14 26 -1 26 -1 2 -8z m-125 -121 c0 -64 -4 -98 -13 -105 -6 -5 -13 -30 -15
-55 l-3 -45 -270 3 c-148 2 -273 6 -277 8 -4 3 1 15 12 26 11 12 17 24 15 27
-3 2 -12 -5 -21 -17 -17 -25 -52 -29 -60 -8 -7 19 24 134 49 179 23 41 56 67
102 78 16 4 131 7 255 6 l225 -2 1 -95z m-676 35 c10 -13 9 -15 -9 -15 -12 0
-21 6 -21 15 0 8 4 15 9 15 5 0 14 -7 21 -15z m2665 -15 c14 -16 15 -20 4 -20
-16 0 -39 19 -39 32 0 14 16 9 35 -12z m-2835 -102 c0 -57 -4 -108 -8 -114 -4
-6 -47 -11 -102 -12 -52 -1 -107 -4 -121 -7 -18 -4 -31 0 -44 15 -17 19 -17
23 0 97 10 43 24 84 31 92 16 18 76 28 172 30 l72 1 0 -102z m197 84 c9 -5 9
-21 -1 -67 -20 -95 -37 -135 -59 -135 -18 0 -19 6 -12 98 4 53 9 100 12 105 5
9 44 9 60 -1z m-189 -292 l3 -35 -133 1 c-76 1 -136 -3 -139 -8 -3 -5 -9 0
-12 12 -5 19 -2 21 18 18 13 -3 30 -1 37 3 10 7 10 9 1 9 -7 0 -13 4 -13 9 0
14 89 29 165 28 l70 -2 3 -35z m72 -10 c-1 -12 -4 -11 -15 4 -8 10 -12 23 -8
29 7 11 23 -12 23 -33z m-150 -61 c0 -5 19 -9 43 -11 37 -3 42 -6 45 -29 4
-33 -39 -60 -61 -38 -10 10 -29 13 -63 9 -45 -4 -46 -5 -14 -9 33 -4 34 -4 10
-11 -22 -7 -20 -8 15 -10 22 0 57 -4 78 -8 l39 -7 -21 -26 c-20 -25 -20 -27
-3 -60 12 -23 16 -52 14 -91 -4 -68 -6 -69 -103 -37 -83 28 -93 37 -82 79 10
40 54 61 85 41 21 -13 28 -14 28 -3 0 5 -18 16 -41 26 -30 13 -44 15 -52 7 -8
-8 -7 -11 3 -11 9 0 5 -6 -9 -16 -28 -20 -36 -11 -46 49 -6 33 -3 41 20 62
l26 25 -25 0 c-18 0 -24 -4 -20 -15 4 -9 0 -15 -7 -16 -8 0 -36 -4 -62 -8 -46
-8 -75 3 -43 15 14 5 14 8 0 21 -13 14 -13 17 2 34 9 11 25 19 35 19 9 0 20 6
22 13 4 9 8 8 16 -3 9 -13 11 -13 11 2 0 14 11 16 80 15 44 -1 80 -4 80 -8z
m2026 -113 c-9 -30 -21 -58 -26 -61 -6 -3 -8 -16 -5 -28 3 -12 -1 -31 -9 -42
-15 -20 -15 -20 -9 3 3 13 1 22 -6 22 -7 0 -10 -4 -7 -8 10 -17 -45 -63 -137
-112 -61 -32 -72 -36 -62 -20 9 14 -7 12 -28 -4 -16 -12 -16 -14 -2 -20 10 -4
14 -2 9 5 -4 7 -1 10 6 7 8 -2 15 -8 17 -14 3 -12 -125 -74 -154 -74 -12 0
-25 -5 -28 -10 -4 -6 -10 -8 -15 -5 -9 5 -100 -32 -100 -42 0 -3 17 -2 37 2
33 6 35 5 24 -9 -8 -9 -18 -16 -23 -16 -6 0 -24 -7 -41 -15 -18 -8 -59 -21
-92 -29 -41 -10 -51 -15 -31 -15 16 -1 27 -4 24 -7 -10 -10 -182 -34 -248 -34
-63 -1 -64 -1 -34 -14 30 -13 31 -17 38 -90 4 -42 4 -81 1 -86 -3 -6 -21 -10
-40 -10 -19 0 -37 -4 -40 -10 -4 -6 13 -10 44 -10 37 0 51 -4 51 -14 0 -7 7
-19 15 -26 34 -28 18 -48 -77 -94 l-93 -45 -3 97 c-2 60 -6 92 -11 83 -6 -9
-9 -2 -8 22 0 20 5 33 9 31 5 -3 8 41 7 98 -2 93 -4 104 -21 105 -12 1 -18 -5
-18 -20 0 -39 -19 -50 -60 -35 -8 3 -44 15 -80 26 -88 28 -290 100 -315 111
-11 6 -31 13 -45 16 -55 14 -196 57 -216 67 -19 9 -21 16 -16 81 3 51 1 69 -6
62 -6 -5 -12 -35 -14 -65 -4 -77 -22 -64 -26 17 -4 83 5 143 19 122 5 -8 9
-24 9 -36 0 -13 5 -23 11 -23 6 0 9 7 6 15 -4 8 -2 17 3 20 6 4 10 15 10 26 0
23 8 23 102 4 40 -9 82 -15 93 -14 11 1 27 -1 35 -4 25 -10 259 -45 345 -52
131 -10 130 -9 132 -58 2 -23 5 -77 9 -120 6 -71 5 -78 -11 -75 -10 2 -20 -2
-22 -9 -3 -7 4 -9 18 -6 18 5 21 3 16 -10 -3 -9 0 -18 9 -21 8 -3 14 0 14 7 0
8 4 6 10 -3 7 -11 10 -8 10 16 0 19 -6 34 -15 38 -16 6 -21 51 -6 61 6 3 7 27
4 53 -3 26 -5 49 -5 52 -1 24 4 31 16 27 8 -3 16 2 19 14 5 19 11 20 79 14 40
-4 79 -8 86 -10 8 -3 12 -29 12 -84 0 -67 3 -80 18 -85 24 -8 122 18 158 41
12 8 30 16 40 18 11 2 57 18 104 34 80 29 145 42 90 19 -14 -6 -38 -16 -55
-23 -16 -7 -50 -19 -75 -26 -53 -15 -74 -29 -42 -29 41 0 234 80 265 110 9 8
-49 6 -103 -5 -32 -7 -31 -5 15 19 58 30 59 30 52 12 -10 -24 63 -11 153 29
106 47 132 64 126 81 -3 8 1 14 8 14 7 0 22 11 32 25 10 14 24 25 31 25 17 0
17 27 1 33 -9 3 -3 15 17 36 36 39 41 28 21 -43z m-2906 -131 c0 -7 -29 -18
-152 -61 -54 -18 -117 -42 -140 -52 -24 -11 -52 -22 -63 -26 -16 -6 -17 -9 -5
-16 18 -11 13 -15 -25 -24 -29 -6 -29 -6 -10 10 21 18 19 17 -60 -14 -27 -11
-119 -47 -202 -80 -96 -38 -153 -56 -153 -48 0 14 117 64 305 130 66 24 138
52 161 64 22 11 108 43 190 71 166 57 154 53 154 46z m-220 -29 c0 -3 -4 -8
-10 -11 -5 -3 -10 -1 -10 4 0 6 5 11 10 11 6 0 10 -2 10 -4z m210 -26 c0 -13
-9 -22 -27 -26 -74 -16 -105 -26 -100 -30 4 -5 46 4 108 22 14 4 15 -1 8 -38
-5 -24 -25 -141 -46 -261 l-37 -218 -31 -13 c-17 -7 -104 -32 -194 -55 -90
-23 -179 -48 -199 -56 -62 -23 -505 -164 -537 -170 l-30 -7 37 36 c23 22 48
36 63 36 14 0 25 4 25 9 0 25 199 112 413 181 121 39 165 60 95 45 -38 -9
-263 -80 -293 -94 -51 -23 -239 -91 -241 -88 -1 1 5 31 14 65 12 52 25 75 66
120 l51 55 5 -44 c3 -28 -1 -61 -12 -91 -10 -27 -14 -48 -8 -48 18 0 32 43 37
109 2 36 8 68 13 69 6 2 10 11 10 19 0 13 -2 13 -17 2 -15 -13 -15 -12 -5 7 6
11 18 26 26 34 10 7 16 28 16 52 0 22 5 48 10 59 7 13 7 19 0 19 -5 0 -10 -6
-10 -14 0 -8 -4 -18 -10 -21 -6 -4 -10 7 -10 25 0 17 4 29 10 25 5 -3 17 -1
27 4 33 19 107 48 191 76 45 15 82 32 82 37 0 6 7 7 16 4 8 -3 23 -2 33 3 9 5
45 12 80 15 l63 6 -4 -75 c-3 -75 12 -107 18 -38 6 67 14 106 25 119 6 7 8 17
5 23 -3 5 0 12 6 14 10 4 10 8 -1 15 -18 13 -1 22 109 57 47 15 96 31 110 35
37 12 40 12 40 -10z m2605 10 c3 -5 -1 -10 -9 -10 -9 0 -16 5 -16 10 0 6 4 10
9 10 6 0 13 -4 16 -10z m211 -141 c-19 -63 -49 -152 -66 -199 -29 -77 -31 -89
-21 -135 41 -197 53 -294 48 -395 -6 -117 -20 -170 -45 -170 -18 1 -66 62 -94
120 -22 44 -23 187 -3 245 8 22 15 54 15 71 0 53 45 203 113 380 36 94 69 184
74 200 4 18 8 23 11 13 1 -9 -13 -68 -32 -130z m-3356 33 c0 -8 -92 -43 -99
-37 -4 4 76 43 92 44 4 1 7 -2 7 -7z m1500 -2 c0 -5 -4 -10 -10 -10 -5 0 -10
5 -10 10 0 6 5 10 10 10 6 0 10 -4 10 -10z m-40 -30 c0 -5 -4 -10 -10 -10 -5
0 -10 5 -10 10 0 6 5 10 10 10 6 0 10 -4 10 -10z m68 -32 c-5 -32 -28 -35 -28
-4 0 17 5 26 16 26 10 0 14 -7 12 -22z m-1821 -76 c-9 -11 -12 -11 -18 5 -3
10 -2 24 4 31 9 11 12 11 18 -5 3 -10 2 -24 -4 -31z m1824 -19 c13 -16 12 -17
-3 -4 -10 7 -18 15 -18 17 0 8 8 3 21 -13z m-1801 -3 c0 -5 -4 -10 -10 -10 -5
0 -10 5 -10 10 0 6 5 10 10 10 6 0 10 -4 10 -10z m1838 -106 c8 -27 7 -43 -4
-70 -8 -19 -19 -34 -24 -34 -13 0 -13 27 0 35 6 4 8 26 4 56 -8 58 7 66 24 13z
m1617 -64 c0 -27 -4 -40 -13 -40 -8 0 -12 -6 -9 -12 2 -7 10 -12 16 -10 20 4
11 -34 -14 -58 -15 -14 -25 -35 -25 -50 0 -15 -12 -40 -26 -56 -16 -16 -22
-30 -15 -32 8 -3 11 -60 11 -190 0 -206 4 -236 29 -228 15 6 15 5 0 -6 -9 -7
-14 -19 -11 -27 2 -7 -5 -4 -17 8 -11 11 -28 22 -36 22 -8 1 -21 2 -27 3 -10
1 -13 72 -13 321 0 176 -1 313 -3 305 -1 -9 -29 -23 -70 -34 -37 -11 -113 -43
-169 -72 -57 -30 -103 -52 -103 -49 0 6 249 141 312 169 32 14 60 21 63 16 3
-5 1 -58 -5 -117 -12 -135 -13 -361 -1 -347 5 5 12 65 15 134 20 376 20 376
73 367 12 -2 20 -1 18 4 -3 4 1 10 7 12 7 3 13 6 13 6 0 1 0 -17 0 -39z
m-1580 -32 c2 -13 5 -30 6 -38 2 -8 -3 -15 -11 -15 -8 0 -15 6 -14 13 1 6 2
26 3 44 1 34 12 32 16 -4z m-101 -50 c-9 -58 -23 -83 -24 -41 0 28 17 83 27
83 2 0 0 -19 -3 -42z m41 12 c-3 -5 1 -10 9 -10 20 0 20 -14 1 -30 -19 -16
-19 -40 0 -40 9 0 12 6 9 15 -4 8 -2 15 4 15 6 0 15 -13 20 -30 8 -22 15 -28
27 -23 21 7 37 -15 29 -41 -4 -10 -2 -16 2 -13 5 3 10 -8 11 -24 2 -23 -2 -29
-19 -29 -15 0 -19 5 -15 20 6 25 -28 29 -37 4 -5 -13 -8 -13 -19 -2 -7 7 -16
21 -20 31 -3 9 -16 17 -27 17 -11 0 -20 5 -20 10 0 6 3 10 8 10 4 0 8 23 9 52
3 60 8 78 23 78 6 0 8 -4 5 -10z m326 -154 c9 -108 6 -144 -26 -312 -14 -74
-61 -194 -75 -194 -10 0 0 39 11 46 5 3 9 17 9 32 0 15 9 43 19 63 17 31 29
101 45 262 4 42 -9 183 -19 219 -7 21 -6 22 10 7 12 -12 19 -45 26 -123z
m-231 104 c0 -5 -5 -10 -11 -10 -5 0 -7 5 -4 10 3 6 8 10 11 10 2 0 4 -4 4
-10z m1511 -93 c-10 -9 -11 -8 -5 6 3 10 9 15 12 12 3 -3 0 -11 -7 -18z
m-1623 -19 c9 -9 9 -15 0 -26 -10 -11 -7 -18 12 -32 14 -10 27 -16 30 -13 3 3
-1 8 -7 10 -20 7 -15 23 5 19 43 -10 62 -19 62 -31 0 -7 6 -15 12 -17 15 -5
-13 -38 -31 -38 -14 0 -14 6 0 33 9 18 9 20 -2 10 -7 -7 -25 -13 -39 -13 -14
0 -34 -6 -44 -13 -16 -12 -16 -14 -2 -26 9 -7 23 -11 31 -7 20 7 30 -35 15
-64 -15 -27 -5 -38 20 -22 28 17 30 16 30 -17 0 -20 -6 -32 -18 -35 -11 -4
-25 -17 -32 -31 -11 -20 -15 -22 -26 -10 -20 19 -17 24 7 18 16 -4 20 -2 17 8
-2 8 -14 15 -26 17 -12 2 -22 8 -22 13 0 5 -11 9 -25 9 -15 0 -25 6 -25 14 0
8 -6 16 -12 19 -9 3 -7 10 7 21 12 9 15 15 7 16 -7 0 -10 5 -7 10 4 6 8 28 9
50 2 22 9 46 16 55 10 13 10 19 -3 33 -15 17 -15 19 0 35 20 20 25 21 41 5z
m-78 -318 c0 -5 -4 -10 -10 -10 -5 0 -10 5 -10 10 0 6 5 10 10 10 6 0 10 -4
10 -10z m157 -17 c-9 -2 -14 -9 -11 -15 4 -7 2 -8 -5 -4 -15 10 -4 26 17 25
15 -1 15 -2 -1 -6z m-152 -23 c3 -5 -1 -10 -9 -10 -9 0 -16 5 -16 10 0 6 4 10
9 10 6 0 13 -4 16 -10z m97 -22 c-6 -6 -15 -8 -19 -4 -4 4 -1 11 7 16 19 12
27 3 12 -12z"/>
<path d="M3152 5135 c-17 -37 -14 -45 4 -12 9 16 14 31 11 33 -2 2 -9 -7 -15
-21z"/>
<path d="M3618 4963 c7 -3 16 -2 19 1 4 3 -2 6 -13 5 -11 0 -14 -3 -6 -6z"/>
<path d="M3285 4785 c-33 -11 -35 -14 -14 -14 14 -1 34 6 45 14 22 17 21 17
-31 0z"/>
<path d="M2880 4242 c-29 -10 -42 -52 -15 -52 15 0 39 35 33 49 -2 4 -10 6
-18 3z"/>
<path d="M7078 4263 c7 -3 16 -2 19 1 4 3 -2 6 -13 5 -11 0 -14 -3 -6 -6z"/>
<path d="M7210 4236 c0 -2 7 -6 15 -10 8 -3 15 -1 15 4 0 6 -7 10 -15 10 -8 0
-15 -2 -15 -4z"/>
<path d="M6165 4584 l-30 -26 33 22 c17 12 32 23 32 26 0 7 -4 5 -35 -22z"/>
<path d="M5305 4480 c11 -5 27 -9 35 -9 9 0 8 4 -5 9 -11 5 -27 9 -35 9 -9 0
-8 -4 5 -9z"/>
<path d="M4070 4385 c0 -8 4 -15 10 -15 5 0 7 7 4 15 -4 8 -8 15 -10 15 -2 0
-4 -7 -4 -15z"/>
<path d="M5136 4258 c-3 -7 -7 -31 -9 -53 -3 -22 -8 -49 -12 -60 -7 -20 -6
-20 9 -1 15 19 16 19 16 -9 0 -15 3 -25 8 -21 9 10 9 156 -1 156 -4 0 -9 -6
-11 -12z"/>
<path d="M5306 4097 c3 -10 9 -15 12 -12 3 3 0 11 -7 18 -10 9 -11 8 -5 -6z"/>
<path d="M5290 4010 c0 -5 6 -10 14 -10 8 0 18 5 21 10 3 6 -3 10 -14 10 -12
0 -21 -4 -21 -10z"/>
<path d="M5003 3845 c0 -33 2 -45 4 -27 2 18 2 45 0 60 -2 15 -4 0 -4 -33z"/>
<path d="M5695 3830 c-17 -6 -16 -8 9 -14 33 -8 42 -3 24 11 -7 6 -22 7 -33 3z"/>
<path d="M5844 3811 c3 -5 15 -7 26 -4 28 7 25 13 -6 13 -14 0 -23 -4 -20 -9z"/>
<path d="M5710 3676 c-30 -11 -114 -22 -305 -40 -22 -3 18 -3 88 0 120 3 240
24 262 45 12 12 -2 11 -45 -5z"/>
<path d="M4594 4178 l-29 -33 33 29 c17 17 32 31 32 33 0 8 -8 1 -36 -29z"/>
<path d="M3924 3732 c3 -5 14 -8 25 -7 33 2 33 11 0 13 -17 1 -28 -1 -25 -6z"/>
<path d="M5123 3335 c0 -38 2 -53 4 -32 2 20 2 52 0 70 -2 17 -4 1 -4 -38z"/>
<path d="M5470 3310 c-14 -4 -34 -6 -45 -4 -11 2 -58 -7 -105 -21 l-85 -25 55
4 c71 5 190 32 203 45 12 12 12 12 -23 1z"/>
<path d="M5158 3220 c6 -44 23 -48 20 -6 -1 20 -7 36 -13 36 -7 0 -10 -12 -7
-30z"/>
<path d="M5310 3210 c0 -13 18 -22 24 -11 3 5 -1 11 -9 15 -8 3 -15 1 -15 -4z"/>
<path d="M5145 3143 c-17 -12 -16 -13 15 -7 43 8 46 10 22 16 -10 3 -27 -1
-37 -9z"/>
<path d="M2898 3125 c-2 -25 0 -45 4 -45 5 0 8 8 9 18 0 9 2 27 3 40 2 13 -1
25 -5 27 -4 3 -9 -15 -11 -40z"/>
<path d="M2945 3056 c-10 -7 -27 -11 -39 -9 -13 3 -28 -2 -35 -11 -8 -9 -21
-16 -29 -16 -12 0 -13 -3 -4 -12 9 -9 22 -8 54 2 24 8 48 15 53 16 19 2 45 16
45 24 0 15 -28 19 -45 6z"/>
<path d="M2968 3003 c7 -3 16 -2 19 1 4 3 -2 6 -13 5 -11 0 -14 -3 -6 -6z"/>
<path d="M2635 2980 c3 -5 8 -10 11 -10 2 0 4 5 4 10 0 6 -5 10 -11 10 -5 0
-7 -4 -4 -10z"/>
<path d="M2710 2981 c0 -5 -8 -7 -18 -4 -10 2 -24 -3 -31 -11 -12 -14 -10 -15
20 -10 39 8 75 34 46 34 -9 0 -17 -4 -17 -9z"/>
<path d="M2830 2970 c0 -5 7 -7 15 -4 8 4 15 8 15 10 0 2 -7 4 -15 4 -8 0 -15
-4 -15 -10z"/>
<path d="M2521 2920 c-24 -11 -42 -23 -39 -25 6 -6 98 31 98 40 0 9 -13 5 -59
-15z"/>
<path d="M2419 2870 c-21 -17 -21 -19 -4 -13 11 3 29 12 40 20 16 10 16 13 3
13 -9 0 -26 -9 -39 -20z"/>
<path d="M5920 2902 c0 -5 9 -26 20 -48 22 -45 27 -30 6 21 -14 33 -26 45 -26
27z"/>
<path d="M5925 2780 c10 -32 35 -70 46 -70 5 0 6 -8 3 -17 -5 -15 -4 -15 4 -4
12 17 -15 77 -44 102 -15 13 -16 12 -9 -11z"/>
<path d="M5980 2663 c0 -4 5 -15 10 -23 8 -13 10 -13 10 2 0 9 -4 20 -10 23
-5 3 -10 3 -10 -2z"/>
<path d="M5820 3000 c0 -11 2 -20 4 -20 2 0 6 9 9 20 3 11 1 20 -4 20 -5 0 -9
-9 -9 -20z"/>
<path d="M4257 2880 c5 -21 53 -30 53 -10 0 6 -9 10 -20 10 -11 0 -20 5 -20
10 0 6 -4 10 -9 10 -5 0 -7 -9 -4 -20z"/>
<path d="M4245 2670 c-3 -5 -1 -10 4 -10 6 0 11 5 11 10 0 6 -2 10 -4 10 -3 0
-8 -4 -11 -10z"/>
<path d="M4190 2630 c0 -5 5 -10 10 -10 6 0 10 5 10 10 0 6 -4 10 -10 10 -5 0
-10 -4 -10 -10z"/>
<path d="M4663 7667 c1 -26 5 -47 10 -47 10 0 9 62 -2 79 -7 10 -9 0 -8 -32z"/>
<path d="M4660 7589 c0 -5 5 -7 10 -4 6 3 10 8 10 11 0 2 -4 4 -10 4 -5 0 -10
-5 -10 -11z"/>
<path d="M4250 7330 c0 -5 -7 -10 -15 -10 -46 0 12 -47 69 -57 29 -4 36 -2 36
11 0 11 -9 16 -30 16 -23 0 -31 5 -36 25 -6 24 -24 35 -24 15z"/>
<path d="M3810 6592 c0 -6 4 -12 10 -14 6 -2 5 -70 -2 -188 -8 -134 -7 -197 0
-230 10 -41 11 -38 7 35 -3 44 -1 118 5 165 6 47 12 119 13 160 2 64 0 75 -15
78 -10 2 -18 -1 -18 -6z"/>
<path d="M3871 5934 c0 -11 3 -14 6 -6 3 7 2 16 -1 19 -3 4 -6 -2 -5 -13z"/>
<path d="M3857 5896 c-4 -10 -7 -25 -6 -34 0 -11 4 -9 10 7 5 13 8 29 6 35 -2
5 -6 2 -10 -8z"/>
<path d="M3867 5803 c-12 -12 -8 -21 13 -28 21 -7 50 9 50 26 0 14 -28 11 -33
-3 -4 -10 -7 -10 -14 0 -5 7 -12 9 -16 5z"/>
<path d="M7375 4723 c4 -10 9 -33 12 -50 3 -18 10 -33 14 -33 5 0 6 12 3 28
-10 42 -23 72 -30 72 -3 0 -3 -8 1 -17z"/>
<path d="M2716 3975 c-3 -9 0 -15 9 -15 9 0 12 6 9 15 -4 8 -7 15 -9 15 -2 0
-5 -7 -9 -15z"/>
<path d="M7091 3599 c15 -22 24 -53 29 -101 5 -64 13 -80 43 -91 6 -2 56 -321
57 -364 0 -1 26 -10 58 -19 31 -9 152 -50 267 -91 260 -93 402 -136 418 -127
7 4 9 3 4 -1 -7 -8 52 -39 60 -32 5 6 -68 97 -78 97 -5 0 -4 -11 1 -25 5 -14
6 -25 1 -25 -10 0 -64 140 -57 148 3 2 -9 32 -26 65 -37 74 -93 220 -101 265
-6 29 -4 32 19 32 18 0 30 -9 42 -31 9 -17 25 -41 35 -53 18 -21 18 -20 4 9
-27 55 -30 75 -13 75 27 0 18 17 -16 33 -58 27 -318 117 -511 177 -103 32
-202 66 -219 74 -42 21 -43 21 -17 -15z m70 -134 c9 -25 14 -45 10 -45 -6 0
-15 22 -39 90 -12 36 14 -5 29 -45z"/>
<path d="M2646 3454 c-39 -8 -75 -19 -80 -25 -8 -9 -6 -10 9 -5 11 4 53 14 94
21 41 8 76 17 79 20 8 8 -26 4 -102 -11z"/>
<path d="M4415 2860 c3 -5 8 -10 11 -10 2 0 4 5 4 10 0 6 -5 10 -11 10 -5 0
-7 -4 -4 -10z"/>
<path d="M4372 2650 c0 -19 2 -27 5 -17 2 9 2 25 0 35 -3 9 -5 1 -5 -18z"/>
<path d="M10080 80 l0 -80 80 0 80 0 0 80 0 80 -80 0 -80 0 0 -80z"/>
</g>
</svg>
