<?xml version="1.0" standalone="no"?>
<!DOCTYPE svg PUBLIC "-//W3C//DTD SVG 20010904//EN"
 "http://www.w3.org/TR/2001/REC-SVG-20010904/DTD/svg10.dtd">
<svg version="1.0" xmlns="http://www.w3.org/2000/svg"
 width="826.000000pt" height="826.000000pt" viewBox="0 0 826.000000 826.000000"
 preserveAspectRatio="xMidYMid meet">

<g transform="translate(0.000000,826.000000) scale(0.100000,-0.100000)"
fill="#000000" stroke="none">
<path d="M2581 7107 c-5 -13 -14 -67 -21 -120 -18 -156 10 -382 75 -586 26
-82 40 -116 147 -359 27 -63 48 -116 45 -118 -2 -3 -33 42 -69 98 -36 57 -72
104 -81 106 -25 5 -21 -14 12 -61 33 -50 46 -88 61 -182 16 -99 28 -135 60
-175 l28 -36 -29 -29 c-35 -34 -36 -52 -8 -136 17 -54 20 -81 16 -172 -4 -96
-3 -108 12 -105 26 5 100 127 128 213 22 67 26 99 27 195 0 77 -4 123 -13 139
l-13 23 -44 -43 c-24 -24 -44 -38 -44 -32 0 19 81 103 101 103 38 0 69 -108
69 -243 0 -91 -15 -157 -54 -243 -14 -31 -24 -59 -21 -62 3 -3 21 2 40 11 49
23 56 22 93 -16 l33 -34 -16 -64 c-8 -35 -15 -90 -15 -121 0 -62 13 -83 57
-94 23 -6 121 1 130 9 2 2 -13 33 -33 68 -79 138 -85 151 -81 155 2 2 43 -46
91 -107 l88 -111 -40 -87 c-38 -81 -132 -352 -132 -379 0 -6 2 -12 5 -12 5 0
397 290 405 300 3 4 34 26 70 49 61 40 63 41 29 9 -57 -54 -580 -480 -584
-477 -2 2 9 60 25 129 16 69 27 126 26 128 -4 4 -91 -129 -115 -176 -11 -23
-21 -53 -21 -67 0 -30 23 -90 38 -99 6 -3 43 19 84 49 40 30 105 72 143 92 79
43 226 105 233 99 2 -2 -34 -23 -80 -46 -117 -59 -212 -124 -294 -202 -39 -38
-76 -68 -81 -68 -5 0 -20 11 -33 25 -41 43 -44 39 -95 -130 -30 -99 -91 -394
-82 -401 1 -1 99 44 217 99 187 88 222 101 266 100 105 -1 208 -86 272 -223
64 -136 53 -272 -27 -331 -17 -12 -31 -28 -31 -33 0 -28 -23 -86 -50 -130 -34
-53 -52 -56 -25 -4 17 35 33 128 21 128 -15 0 -486 -133 -531 -150 -29 -11
-101 -30 -111 -30 -23 1 59 35 203 84 345 118 467 166 496 198 28 29 29 33 25
117 -3 86 -28 161 -73 216 -18 22 20 39 -495 -226 -151 -77 -270 -136 -265
-130 6 6 161 101 345 211 184 111 336 204 338 209 4 12 -46 31 -84 31 -44 0
-64 -10 -369 -190 -473 -277 -442 -262 -562 -271 -84 -6 -116 -13 -161 -35
-65 -32 -162 -123 -162 -153 0 -11 12 -29 28 -41 l27 -22 -31 6 c-36 8 -40 3
-50 -72 -15 -118 56 -124 86 -7 12 49 58 135 72 135 3 0 -2 -22 -12 -49 -23
-60 -17 -85 26 -106 45 -21 43 -29 -7 -22 -39 5 -40 5 -23 -14 19 -22 66 -25
82 -6 5 6 12 32 16 57 11 78 26 83 26 9 0 -53 4 -69 20 -84 27 -24 46 -13 55
32 11 61 20 62 25 3 4 -47 8 -55 27 -58 15 -2 29 7 45 28 13 18 48 45 78 60
70 35 108 73 116 116 8 44 -9 84 -65 153 -40 49 -41 52 -13 33 85 -61 143
-166 127 -229 -3 -15 -26 -46 -49 -70 l-43 -42 26 -5 c14 -3 151 -26 305 -52
211 -35 284 -44 301 -36 48 22 36 141 -17 161 -13 4 -88 16 -168 25 -80 10
-147 20 -150 23 -3 3 69 3 160 -1 134 -6 170 -10 190 -25 65 -46 77 -147 24
-202 -24 -25 -35 -29 -83 -29 -31 0 -101 7 -156 15 -55 8 -119 15 -142 15 -39
0 -44 -3 -74 -47 -18 -27 -40 -55 -50 -63 -11 -8 -44 -80 -74 -159 -42 -109
-65 -155 -94 -186 -30 -32 -46 -67 -76 -156 -21 -63 -48 -134 -61 -160 -19
-38 -23 -67 -29 -200 -7 -141 -9 -158 -33 -199 -24 -42 -26 -55 -30 -203 l-4
-157 55 0 54 0 7 38 c3 20 6 87 6 147 0 85 5 124 20 168 16 45 20 82 20 182 0
103 3 132 19 163 10 20 28 75 40 122 31 117 56 171 101 215 27 26 48 62 66
109 72 192 86 227 91 222 3 -2 -11 -60 -30 -128 -19 -68 -38 -136 -41 -151 -4
-16 -24 -47 -46 -71 -22 -23 -48 -63 -59 -87 l-20 -44 154 -12 c84 -6 179 -16
211 -22 90 -17 89 -17 145 65 28 42 53 73 55 71 7 -6 -94 -207 -104 -207 -4 0
-43 7 -87 15 -94 19 -364 30 -383 17 -20 -14 -41 -105 -56 -242 -8 -69 -13
-126 -12 -127 1 -1 69 -5 151 -7 83 -3 187 -10 233 -16 45 -6 86 -8 91 -6 4 3
14 66 21 141 15 161 37 201 27 49 -4 -54 -7 -130 -7 -169 l0 -70 -259 0 c-143
0 -262 -2 -264 -5 -6 -6 -37 -272 -37 -315 l0 -25 108 0 c60 0 155 -5 213 -11
57 -5 120 -11 139 -12 l35 -2 13 120 c21 196 30 198 29 5 l-2 -175 -75 5 c-41
3 -160 4 -264 3 -143 -1 -191 -4 -201 -15 -7 -7 -16 -52 -20 -103 l-7 -90 69
1 68 1 19 76 c10 42 21 77 25 77 3 0 5 -35 3 -77 l-3 -78 288 2 288 2 12 58
c56 271 233 1210 233 1237 0 17 -45 39 -102 50 -44 8 -60 26 -23 26 35 0 164
-30 169 -39 3 -4 -2 -48 -10 -98 -34 -212 -184 -1208 -184 -1223 0 -13 54 -15
497 -13 l498 3 -1 45 c0 25 -4 49 -10 53 -5 4 -70 5 -144 2 -74 -4 -137 -5
-139 -3 -4 3 -30 278 -30 318 -1 46 17 -15 39 -135 13 -69 26 -128 29 -132 3
-4 71 2 151 12 80 11 162 19 182 20 20 0 39 4 42 8 3 5 -1 46 -9 93 -7 46 -16
122 -21 168 l-7 84 -223 -7 c-123 -4 -224 -4 -224 1 0 14 -19 227 -25 276 -10
82 10 51 29 -45 9 -51 22 -115 28 -142 l10 -49 185 7 c102 4 192 10 199 13 16
6 12 46 -22 223 -33 167 -74 306 -141 474 -30 76 -52 140 -50 142 12 13 174
-340 208 -453 7 -24 16 -43 21 -43 14 0 10 118 -5 127 -7 4 -23 53 -36 108
-49 207 -98 274 -262 355 -189 93 -167 89 246 -45 655 -213 1119 -393 1524
-594 157 -78 204 -88 241 -51 40 40 12 110 -62 154 -97 57 -562 263 -863 383
-237 94 -722 266 -926 328 -85 26 -163 55 -174 65 -35 31 -83 50 -127 50 -38
0 -49 -5 -83 -41 -22 -23 -70 -61 -107 -86 -53 -34 -68 -49 -68 -68 0 -54 112
-37 248 35 39 22 72 35 72 31 0 -14 -90 -79 -144 -106 -65 -32 -136 -42 -177
-25 -32 14 -53 49 -43 74 5 13 -48 39 -126 60 -43 12 -131 48 -127 52 2 3 65
-10 139 -27 l135 -31 49 35 c27 20 72 60 100 91 80 85 159 94 273 30 24 -13
45 -24 47 -24 1 0 8 26 14 58 7 31 36 166 66 300 30 133 54 248 54 256 0 18
-146 60 -295 86 -161 28 -208 44 -245 86 -35 41 -36 45 -14 239 12 98 17 262
20 543 2 252 7 410 14 422 6 10 25 30 43 43 161 120 530 30 686 -167 46 -58
38 -65 -17 -14 -26 24 -69 57 -96 73 -58 34 -174 77 -186 70 -5 -3 -12 -22
-15 -43 -12 -67 -19 -68 -25 -2 l-5 65 -60 8 c-115 15 -239 -14 -264 -62 -7
-13 -7 -96 -1 -252 10 -239 8 -370 -11 -677 -9 -135 -8 -176 1 -187 17 -21 95
-42 225 -60 267 -38 412 -104 505 -230 56 -76 71 -90 81 -73 4 8 3 77 -2 153
-11 156 -10 154 -99 215 -87 59 -298 160 -335 160 -6 0 -20 -32 -30 -72 -31
-110 -42 -113 -31 -8 5 49 7 92 4 96 -3 3 -43 12 -89 21 -118 21 -138 31 -63
32 144 2 354 -54 526 -140 59 -30 99 -45 103 -38 4 5 4 33 0 60 -7 51 -7 51
-93 107 -85 55 -238 128 -293 139 -26 5 -29 3 -40 -41 -18 -71 -33 -70 -25 2
l7 60 -53 12 c-29 6 -77 14 -106 17 -29 3 -55 10 -59 16 -10 16 173 -1 291
-28 99 -22 235 -73 314 -117 18 -10 37 -18 42 -18 17 0 11 77 -7 99 -40 48
-358 211 -382 196 -6 -3 -13 -26 -17 -50 -9 -63 -24 -56 -24 10 0 65 -2 66
-126 85 -100 16 -119 23 -71 28 55 5 242 -24 345 -54 48 -14 129 -46 180 -71
52 -25 97 -42 101 -37 5 5 6 26 4 47 -5 33 -13 43 -62 76 -95 65 -282 151
-326 151 -7 0 -16 -20 -19 -45 -10 -60 -26 -57 -26 5 0 59 -7 65 -111 81 -112
18 -119 31 -14 25 150 -8 305 -48 459 -120 93 -43 111 -45 102 -13 -3 12 -6
34 -6 49 0 22 -11 35 -57 66 -94 64 -284 152 -328 152 -9 0 -16 -16 -21 -47
-11 -77 -20 -80 -27 -8 -4 38 -9 70 -11 73 -8 7 -129 31 -163 32 -17 0 -35 5
-38 10 -8 13 37 13 150 -1 131 -16 265 -53 378 -104 56 -24 103 -42 106 -40
10 11 -22 114 -57 185 -101 204 -308 333 -562 347 -133 8 -96 24 56 24 163 0
290 -42 418 -141 l69 -53 -6 44 c-48 339 -298 420 -680 221 -119 -62 -167
-102 -167 -138 0 -13 20 -48 46 -79 25 -31 43 -59 40 -62 -3 -4 -33 21 -66 54
-52 51 -60 65 -60 97 0 29 8 46 39 79 54 58 187 135 306 176 92 32 109 35 215
35 98 -1 128 -5 198 -28 96 -31 79 -37 185 64 131 123 129 215 -4 254 -118 36
-412 12 -604 -49 l-80 -25 -185 26 c-317 45 -411 22 -615 -151 -36 -31 -65
-51 -65 -45 0 6 35 46 78 89 176 178 286 207 622 160 l150 -21 128 36 c70 20
160 41 201 48 88 14 85 15 -107 53 -165 32 -171 31 -233 -47 -20 -26 -39 -45
-42 -42 -9 9 33 84 70 125 45 50 40 62 -38 102 -60 30 -137 43 -192 33 -45 -8
-90 -73 -109 -154 -11 -52 -13 -54 -18 -27 -3 17 -3 50 1 73 4 31 2 45 -7 49
-18 7 -27 35 -12 44 7 4 17 1 24 -9 10 -14 15 -11 43 21 18 19 48 41 67 47 19
7 33 17 31 23 -7 23 -126 105 -184 128 -45 17 -79 23 -152 23 l-95 1 -27 -120
c-34 -149 -66 -247 -119 -360 -45 -98 -63 -108 -31 -18 46 131 67 243 101 528
25 207 59 363 111 515 49 142 54 160 42 160 -13 0 -139 -256 -194 -392 -36
-91 -45 -105 -59 -98 -15 8 -20 -3 -38 -83 -11 -51 -30 -146 -42 -212 -12 -66
-25 -136 -30 -155 l-8 -35 -1 45 c-2 100 44 463 76 588 11 45 -15 20 -51 -47
-50 -95 -74 -199 -86 -365 -21 -289 -53 -397 -118 -396 l-27 1 26 14 c51 28
69 110 80 365 4 113 11 218 15 233 11 47 -47 93 -61 48 -3 -10 -1 -50 6 -87 9
-57 19 -224 13 -224 -6 0 -87 178 -122 265 -62 156 -85 251 -101 409 -10 97
-3 139 30 180 l21 27 -46 49 c-25 27 -46 54 -46 60 0 19 -20 10 -29 -13z m909
-992 c0 -8 7 -15 15 -15 8 0 15 -5 15 -11 0 -6 -10 -9 -22 -7 -23 3 -40 48
-19 48 6 0 11 -7 11 -15z m-60 -45 c6 0 8 -4 5 -10 -18 -30 -54 3 -40 38 6 15
8 14 16 -5 4 -13 13 -23 19 -23z m275 -149 c-15 -29 -29 -77 -32 -106 -8 -71
-23 -71 -23 0 0 58 17 103 53 142 30 34 31 22 2 -36z m-205 34 c0 -8 7 -15 16
-15 13 0 14 -3 4 -14 -19 -24 -61 8 -44 35 8 14 24 11 24 -6z m404 -17 c-5 -7
-20 -33 -36 -57 -15 -24 -33 -68 -39 -98 -9 -39 -15 -50 -21 -39 -10 17 6 95
27 136 8 16 27 38 41 49 31 24 38 26 28 9z m-246 -559 c3 -85 1 -104 -22 -159
-27 -68 -83 -157 -103 -165 -7 -2 1 23 18 56 47 94 69 195 70 323 1 110 1 111
17 76 10 -22 18 -71 20 -131z m-114 -391 c-55 -51 -129 -122 -166 -157 -38
-35 -71 -61 -74 -58 -16 16 185 219 280 283 28 18 52 32 54 29 2 -2 -40 -46
-94 -97z m185 -295 c-70 -104 -133 -239 -164 -353 -38 -143 -41 -137 58 -132
53 2 93 -1 112 -9 29 -12 26 -13 -51 -19 -136 -12 -251 -78 -324 -187 -20 -31
-30 -40 -30 -27 1 35 37 101 83 148 39 41 48 59 67 134 28 114 67 211 118 299
48 82 157 223 172 223 6 0 -13 -34 -41 -77z m306 -1143 c-13 -21 -85 -50 -138
-56 -65 -8 -142 9 -177 37 l-25 21 25 -7 c57 -15 196 -15 250 -1 70 18 72 18
65 6z m141 -64 c-40 -81 -98 -141 -174 -178 -60 -30 -75 -33 -152 -32 -88 1
-182 23 -216 50 -19 15 -19 15 1 9 45 -15 224 -18 272 -5 106 29 193 90 254
178 42 62 50 50 15 -22z m-788 -349 c15 -14 67 -32 150 -53 192 -48 393 -126
246 -95 -83 17 -344 68 -345 67 0 -1 -2 -33 -3 -71 -7 -142 -95 -246 -172
-205 -34 19 -30 27 11 22 68 -8 125 79 125 191 0 87 -37 142 -100 149 -35 4
-35 4 -10 16 32 14 69 7 98 -21z m-202 -390 c-67 -50 -118 -103 -151 -157 -26
-43 -47 -63 -87 -85 -29 -15 -65 -37 -80 -47 -55 -38 -27 3 35 51 34 27 80 74
101 105 50 73 155 151 206 155 3 0 -8 -10 -24 -22z m239 -17 c72 -33 141 -50
213 -50 66 0 83 -13 31 -24 -100 -20 -208 6 -272 66 -46 43 -45 43 28 8z m-27
-132 c-11 -29 -31 -77 -44 -107 -24 -52 -25 -53 -59 -47 -60 12 -198 26 -250
26 -36 0 -46 3 -35 10 8 5 80 10 160 10 l145 0 43 80 c49 91 70 105 40 28z
m742 -105 c0 -2 -4 -3 -10 -3 -16 0 -40 69 -39 114 1 39 2 38 25 -34 13 -41
24 -76 24 -77z m-70 76 c0 -15 5 -31 10 -34 12 -7 14 -55 2 -55 -11 0 -30 56
-37 110 -6 42 -5 44 9 26 9 -11 16 -32 16 -47z m-50 9 c7 -24 16 -56 21 -72
12 -38 11 -40 -5 -26 -16 12 -30 52 -40 108 -8 47 9 39 24 -10z m-155 -101
l24 -58 63 8 c88 11 257 8 271 -6 8 -8 -5 -11 -49 -11 -63 0 -205 -22 -262
-41 -20 -7 -38 -7 -43 -2 -10 10 -69 215 -68 236 0 13 24 -34 64 -126z m-890
-123 c-13 -37 -27 -69 -31 -73 -10 -9 5 64 22 104 26 63 34 37 9 -31z m46 27
c-6 -11 -11 -24 -11 -30 0 -21 15 -11 28 19 27 59 29 28 3 -42 l-26 -73 -5 40
-5 40 -13 -34 c-16 -45 -24 -35 -11 15 12 47 43 108 47 95 2 -6 -1 -19 -7 -30z
m1225 -117 c24 -90 25 -113 3 -72 -24 42 -39 92 -39 132 0 55 8 42 36 -60z
m-47 1 c10 -39 22 -78 26 -87 4 -11 3 -18 -4 -18 -6 0 -16 12 -22 28 -7 15
-15 36 -19 47 -5 11 -11 42 -14 70 -8 68 9 47 33 -40z m-47 -5 c23 -86 28
-113 24 -118 -11 -10 -46 92 -51 146 -5 48 -4 53 6 32 6 -14 16 -41 21 -60z
m-207 -55 c46 -112 48 -115 74 -108 72 21 320 0 337 -28 3 -5 -46 -9 -114 -9
-71 0 -151 -7 -197 -16 -42 -9 -78 -14 -81 -12 -13 14 -81 288 -72 288 3 0 27
-52 53 -115z m-1100 -192 c-4 -21 -11 -66 -15 -101 -5 -35 -11 -66 -14 -69
-11 -11 -6 104 6 156 13 59 34 71 23 14z m36 -96 c-6 -6 -11 -26 -11 -44 0
-18 -4 -33 -10 -33 -12 0 -13 73 -1 120 25 98 26 99 29 31 2 -36 -2 -69 -7
-74z m47 22 c-14 -121 -33 -146 -24 -31 6 71 23 139 32 129 2 -2 -2 -46 -8
-98z m1367 -131 c3 -37 2 -58 -5 -58 -5 0 -10 3 -10 8 0 4 -7 38 -15 75 -14
65 -13 75 2 115 7 18 16 -30 28 -140z m40 31 c5 -75 4 -90 -6 -75 -6 10 -14
60 -16 110 -6 123 14 93 22 -35z m-91 -19 c5 -64 4 -81 -5 -67 -15 26 -29 134
-22 171 6 31 7 31 13 6 4 -14 10 -63 14 -110z m-1449 -157 c-2 -10 -9 -58 -16
-106 -9 -63 -15 -84 -22 -72 -13 23 16 195 33 195 4 0 7 -8 5 -17z m36 -80
c-6 -48 -11 -94 -11 -100 0 -7 -5 -13 -11 -13 -9 0 -10 21 -5 73 6 68 25 141
34 133 2 -3 -1 -44 -7 -93z m45 -13 c-8 -57 -18 -105 -21 -108 -10 -10 -5 125
6 159 6 19 13 40 15 48 3 8 7 11 10 9 3 -3 -2 -52 -10 -108z m1467 -105 c6
-94 5 -98 -8 -66 -9 20 -15 65 -15 115 1 110 16 78 23 -49z m41 58 c4 -38 9
-86 12 -108 7 -50 -8 -37 -24 21 -14 48 -16 154 -3 154 5 0 12 -30 15 -67z
m-93 35 c0 -13 4 -60 7 -105 8 -90 2 -105 -16 -44 -15 47 -16 171 -2 171 6 0
10 -10 11 -22z"/>
</g>
</svg>
